<svg width="66" height="179" viewBox="0 0 66 179" fill="none" xmlns="http://www.w3.org/2000/svg">
<path d="M62.25 176.75L51.75 170L62.25 163.25L62.25 176.75Z" stroke="#D9A8A5" stroke-width="1.5" stroke-linecap="round" stroke-linejoin="round"/>
<path opacity="0.2" d="M2.04403 37V35.4489L5.66832 32.093C5.97656 31.7947 6.23509 31.5263 6.44389 31.2876C6.65601 31.049 6.81676 30.8153 6.92614 30.5866C7.03551 30.3546 7.0902 30.1044 7.0902 29.8359C7.0902 29.5376 7.02225 29.2808 6.88636 29.0653C6.75047 28.8466 6.56487 28.6792 6.32955 28.5632C6.09422 28.4439 5.82741 28.3842 5.52912 28.3842C5.21757 28.3842 4.94579 28.4472 4.71378 28.5732C4.48177 28.6991 4.30279 28.8797 4.17685 29.1151C4.0509 29.3504 3.98793 29.6304 3.98793 29.9553H1.9446C1.9446 29.2891 2.09541 28.7107 2.39702 28.2202C2.69863 27.7296 3.12121 27.3501 3.66477 27.0817C4.20833 26.8132 4.83475 26.679 5.54403 26.679C6.2732 26.679 6.90791 26.8082 7.44815 27.0668C7.99171 27.322 8.4143 27.6766 8.71591 28.1307C9.01752 28.5848 9.16832 29.1051 9.16832 29.6918C9.16832 30.0762 9.09209 30.4557 8.93963 30.8303C8.79048 31.2048 8.52367 31.6207 8.1392 32.0781C7.75473 32.5322 7.21283 33.0774 6.51349 33.7138L5.02699 35.1705V35.2401H9.30256V37H2.04403ZM14.8546 37.2237C13.9995 37.2204 13.2637 37.0099 12.6472 36.5923C12.034 36.1747 11.5617 35.5698 11.2303 34.7777C10.9022 33.9856 10.7398 33.0327 10.7431 31.919C10.7431 30.8087 10.9071 29.8625 11.2353 29.0803C11.5667 28.2981 12.039 27.7031 12.6522 27.2955C13.2686 26.8845 14.0028 26.679 14.8546 26.679C15.7064 26.679 16.4389 26.8845 17.052 27.2955C17.6685 27.7064 18.1425 28.303 18.4739 29.0852C18.8053 29.8641 18.9694 30.8087 18.9661 31.919C18.9661 33.036 18.8004 33.9905 18.4689 34.7827C18.1408 35.5748 17.6702 36.1797 17.057 36.5973C16.4438 37.0149 15.7097 37.2237 14.8546 37.2237ZM14.8546 35.4389C15.4379 35.4389 15.9036 35.1456 16.2516 34.5589C16.5996 33.9723 16.772 33.0923 16.7686 31.919C16.7686 31.1468 16.6891 30.5038 16.53 29.9901C16.3742 29.4763 16.1522 29.0902 15.8638 28.8317C15.5788 28.5732 15.2424 28.4439 14.8546 28.4439C14.2746 28.4439 13.8105 28.7339 13.4625 29.3139C13.1145 29.8939 12.9389 30.7623 12.9355 31.919C12.9355 32.7012 13.0134 33.3542 13.1692 33.8778C13.3283 34.3982 13.552 34.7893 13.8404 35.0511C14.1287 35.3097 14.4668 35.4389 14.8546 35.4389ZM24.9308 26.8182V37H22.7781V28.8615H22.7184L20.3867 30.3232V28.4141L22.9073 26.8182H24.9308ZM31.149 37.1392C30.3833 37.1392 29.7022 37.0149 29.1056 36.7663C28.5124 36.5144 28.0467 36.1714 27.7086 35.7372C27.3706 35.303 27.2015 34.8108 27.2015 34.2607C27.2015 33.8364 27.2976 33.447 27.4899 33.0923C27.6854 32.7344 27.9506 32.4377 28.2853 32.2024C28.6201 31.9638 28.9946 31.8113 29.4089 31.745V31.6754C28.8654 31.5661 28.4245 31.3026 28.0865 30.8849C27.7484 30.464 27.5794 29.9751 27.5794 29.4183C27.5794 28.8913 27.7335 28.4223 28.0417 28.0114C28.35 27.5971 28.7725 27.2723 29.3095 27.0369C29.8497 26.7983 30.4629 26.679 31.149 26.679C31.835 26.679 32.4466 26.7983 32.9835 27.0369C33.5237 27.2756 33.948 27.602 34.2562 28.0163C34.5645 28.4273 34.7202 28.8946 34.7235 29.4183C34.7202 29.9785 34.5479 30.4673 34.2065 30.8849C33.8651 31.3026 33.4276 31.5661 32.894 31.6754V31.745C33.3017 31.8113 33.6712 31.9638 34.0027 32.2024C34.3374 32.4377 34.6026 32.7344 34.7981 33.0923C34.997 33.447 35.0981 33.8364 35.1014 34.2607C35.0981 34.8108 34.9274 35.303 34.5893 35.7372C34.2512 36.1714 33.7839 36.5144 33.1873 36.7663C32.594 37.0149 31.9146 37.1392 31.149 37.1392ZM31.149 35.5582C31.4904 35.5582 31.7886 35.4969 32.0439 35.3743C32.2991 35.2483 32.4979 35.076 32.6404 34.8572C32.7863 34.6352 32.8592 34.38 32.8592 34.0916C32.8592 33.7966 32.7846 33.5365 32.6355 33.3111C32.4863 33.0824 32.2842 32.9034 32.0289 32.7741C31.7737 32.6416 31.4804 32.5753 31.149 32.5753C30.8208 32.5753 30.5275 32.6416 30.269 32.7741C30.0105 32.9034 29.8066 33.0824 29.6575 33.3111C29.5117 33.5365 29.4387 33.7966 29.4387 34.0916C29.4387 34.38 29.51 34.6352 29.6525 34.8572C29.795 35.076 29.9956 35.2483 30.2541 35.3743C30.5126 35.4969 30.8109 35.5582 31.149 35.5582ZM31.149 31.0092C31.434 31.0092 31.6876 30.9512 31.9096 30.8352C32.1317 30.7192 32.3057 30.5585 32.4316 30.353C32.5576 30.1475 32.6206 29.9105 32.6206 29.642C32.6206 29.3769 32.5576 29.1449 32.4316 28.946C32.3057 28.7438 32.1333 28.5864 31.9146 28.4737C31.6958 28.3577 31.4406 28.2997 31.149 28.2997C30.8606 28.2997 30.6054 28.3577 30.3833 28.4737C30.1613 28.5864 29.9873 28.7438 29.8613 28.946C29.7387 29.1449 29.6774 29.3769 29.6774 29.642C29.6774 29.9105 29.7404 30.1475 29.8663 30.353C29.9922 30.5585 30.1663 30.7192 30.3883 30.8352C30.6104 30.9512 30.8639 31.0092 31.149 31.0092Z" fill="#D9A8A5"/>
<path opacity="0.3" d="M2.05087 60V58.4489L5.67516 55.093C5.9834 54.7947 6.24192 54.5263 6.45073 54.2876C6.66285 54.049 6.8236 53.8153 6.93297 53.5866C7.04235 53.3546 7.09703 53.1044 7.09703 52.8359C7.09703 52.5376 7.02909 52.2808 6.8932 52.0653C6.75731 51.8466 6.5717 51.6792 6.33638 51.5632C6.10106 51.4439 5.83425 51.3842 5.53596 51.3842C5.2244 51.3842 4.95262 51.4472 4.72061 51.5732C4.48861 51.6991 4.30963 51.8797 4.18368 52.1151C4.05774 52.3504 3.99476 52.6304 3.99476 52.9553H1.95144C1.95144 52.2891 2.10224 51.7107 2.40385 51.2202C2.70546 50.7296 3.12805 50.3501 3.67161 50.0817C4.21517 49.8132 4.84159 49.679 5.55087 49.679C6.28004 49.679 6.91474 49.8082 7.45499 50.0668C7.99855 50.322 8.42114 50.6766 8.72275 51.1307C9.02436 51.5848 9.17516 52.1051 9.17516 52.6918C9.17516 53.0762 9.09893 53.4557 8.94647 53.8303C8.79732 54.2048 8.53051 54.6207 8.14604 55.0781C7.76157 55.5322 7.21967 56.0774 6.52033 56.7138L5.03382 58.1705V58.2401H9.30939V60H2.05087ZM14.8614 60.2237C14.0063 60.2204 13.2705 60.0099 12.654 59.5923C12.0409 59.1747 11.5686 58.5698 11.2371 57.7777C10.909 56.9856 10.7466 56.0327 10.7499 54.919C10.7499 53.8087 10.914 52.8625 11.2421 52.0803C11.5735 51.2981 12.0458 50.7031 12.659 50.2955C13.2755 49.8845 14.0096 49.679 14.8614 49.679C15.7132 49.679 16.4457 49.8845 17.0589 50.2955C17.6753 50.7064 18.1493 51.303 18.4807 52.0852C18.8122 52.8641 18.9762 53.8087 18.9729 54.919C18.9729 56.036 18.8072 56.9905 18.4758 57.7827C18.1476 58.5748 17.677 59.1797 17.0638 59.5973C16.4507 60.0149 15.7165 60.2237 14.8614 60.2237ZM14.8614 58.4389C15.4448 58.4389 15.9104 58.1456 16.2584 57.5589C16.6064 56.9723 16.7788 56.0923 16.7755 54.919C16.7755 54.1468 16.6959 53.5038 16.5368 52.9901C16.3811 52.4763 16.159 52.0902 15.8706 51.8317C15.5856 51.5732 15.2492 51.4439 14.8614 51.4439C14.2814 51.4439 13.8174 51.7339 13.4694 52.3139C13.1214 52.8939 12.9457 53.7623 12.9424 54.919C12.9424 55.7012 13.0203 56.3542 13.176 56.8778C13.3351 57.3982 13.5589 57.7893 13.8472 58.0511C14.1356 58.3097 14.4736 58.4389 14.8614 58.4389ZM24.9376 49.8182V60H22.7849V51.8615H22.7252L20.3936 53.3232V51.4141L22.9142 49.8182H24.9376ZM31.0415 49.679C31.5651 49.679 32.0689 49.7668 32.5528 49.9425C33.04 50.1181 33.4742 50.3982 33.8554 50.7827C34.2398 51.1671 34.5431 51.6776 34.7652 52.3139C34.9906 52.947 35.1049 53.7242 35.1082 54.6456C35.1082 55.5107 35.0104 56.2829 34.8149 56.9624C34.6227 57.6385 34.3459 58.2135 33.9846 58.6875C33.6234 59.1615 33.1875 59.5227 32.6771 59.7713C32.1667 60.0166 31.5966 60.1392 30.9669 60.1392C30.2874 60.1392 29.6875 60.0083 29.1672 59.7464C28.6468 59.4813 28.2275 59.1217 27.9094 58.6676C27.5945 58.2102 27.4039 57.6965 27.3376 57.1264H29.4605C29.5434 57.4976 29.7174 57.786 29.9825 57.9915C30.2477 58.1937 30.5758 58.2947 30.9669 58.2947C31.6298 58.2947 32.1336 58.0064 32.4782 57.4297C32.8229 56.8497 32.997 56.0559 33.0003 55.0483H32.9307C32.7782 55.3466 32.5727 55.6035 32.3142 55.8189C32.0557 56.031 31.759 56.1951 31.4243 56.3111C31.0928 56.4271 30.7398 56.4851 30.3653 56.4851C29.7654 56.4851 29.2301 56.3442 28.7595 56.0625C28.2889 55.7808 27.9176 55.393 27.6459 54.8991C27.3741 54.4053 27.2382 53.8419 27.2382 53.2088C27.2349 52.526 27.3923 51.9179 27.7105 51.3842C28.0287 50.8506 28.4728 50.433 29.0429 50.1314C29.6163 49.8265 30.2825 49.6757 31.0415 49.679ZM31.0564 51.3693C30.7216 51.3693 30.4233 51.4489 30.1615 51.608C29.903 51.767 29.6975 51.9808 29.545 52.2493C29.3959 52.5178 29.3229 52.8177 29.3263 53.1491C29.3263 53.4839 29.3992 53.7855 29.545 54.054C29.6942 54.3191 29.8963 54.5312 30.1515 54.6903C30.4101 54.8461 30.705 54.924 31.0365 54.924C31.2851 54.924 31.5154 54.8776 31.7275 54.7848C31.9397 54.692 32.1236 54.5644 32.2794 54.402C32.4385 54.2363 32.5628 54.0457 32.6523 53.8303C32.7417 53.6148 32.7865 53.3861 32.7865 53.1442C32.7832 52.8227 32.7069 52.5277 32.5578 52.2592C32.4086 51.9908 32.2032 51.7753 31.9413 51.6129C31.6795 51.4505 31.3845 51.3693 31.0564 51.3693Z" fill="#D9A8A5"/>
<path opacity="0.4" d="M0.868253 83V81.4489L4.49254 78.093C4.80078 77.7947 5.0593 77.5263 5.26811 77.2876C5.48023 77.049 5.64098 76.8153 5.75036 76.5866C5.85973 76.3546 5.91442 76.1044 5.91442 75.8359C5.91442 75.5376 5.84647 75.2808 5.71058 75.0653C5.57469 74.8466 5.38909 74.6792 5.15376 74.5632C4.91844 74.4439 4.65163 74.3842 4.35334 74.3842C4.04179 74.3842 3.77 74.4472 3.538 74.5732C3.30599 74.6991 3.12701 74.8797 3.00107 75.1151C2.87512 75.3504 2.81214 75.6304 2.81214 75.9553H0.768821C0.768821 75.2891 0.919626 74.7107 1.22124 74.2202C1.52285 73.7296 1.94543 73.3501 2.48899 73.0817C3.03255 72.8132 3.65897 72.679 4.36825 72.679C5.09742 72.679 5.73213 72.8082 6.27237 73.0668C6.81593 73.322 7.23852 73.6766 7.54013 74.1307C7.84174 74.5848 7.99254 75.1051 7.99254 75.6918C7.99254 76.0762 7.91631 76.4557 7.76385 76.8303C7.6147 77.2048 7.34789 77.6207 6.96342 78.0781C6.57895 78.5322 6.03705 79.0774 5.33771 79.7138L3.85121 81.1705V81.2401H8.12678V83H0.868253ZM13.6788 83.2237C12.8237 83.2204 12.0879 83.0099 11.4714 82.5923C10.8583 82.1747 10.3859 81.5698 10.0545 80.7777C9.72638 79.9856 9.56398 79.0327 9.56729 77.919C9.56729 76.8087 9.73136 75.8625 10.0595 75.0803C10.3909 74.2981 10.8632 73.7031 11.4764 73.2955C12.0929 72.8845 12.827 72.679 13.6788 72.679C14.5306 72.679 15.2631 72.8845 15.8762 73.2955C16.4927 73.7064 16.9667 74.303 17.2981 75.0852C17.6296 75.8641 17.7936 76.8087 17.7903 77.919C17.7903 79.036 17.6246 79.9905 17.2931 80.7827C16.965 81.5748 16.4944 82.1797 15.8812 82.5973C15.2681 83.0149 14.5339 83.2237 13.6788 83.2237ZM13.6788 81.4389C14.2621 81.4389 14.7278 81.1456 15.0758 80.5589C15.4238 79.9723 15.5962 79.0923 15.5929 77.919C15.5929 77.1468 15.5133 76.5038 15.3542 75.9901C15.1984 75.4763 14.9764 75.0902 14.688 74.8317C14.403 74.5732 14.0666 74.4439 13.6788 74.4439C13.0988 74.4439 12.6348 74.7339 12.2868 75.3139C11.9387 75.8939 11.7631 76.7623 11.7598 77.919C11.7598 78.7012 11.8377 79.3542 11.9934 79.8778C12.1525 80.3982 12.3762 80.7893 12.6646 81.0511C12.9529 81.3097 13.291 81.4389 13.6788 81.4389ZM19.3253 83V81.4489L22.9496 78.093C23.2578 77.7947 23.5163 77.5263 23.7251 77.2876C23.9373 77.049 24.098 76.8153 24.2074 76.5866C24.3168 76.3546 24.3714 76.1044 24.3714 75.8359C24.3714 75.5376 24.3035 75.2808 24.1676 75.0653C24.0317 74.8466 23.8461 74.6792 23.6108 74.5632C23.3755 74.4439 23.1087 74.3842 22.8104 74.3842C22.4988 74.3842 22.227 74.4472 21.995 74.5732C21.763 74.6991 21.584 74.8797 21.4581 75.1151C21.3321 75.3504 21.2692 75.6304 21.2692 75.9553H19.2259C19.2259 75.2891 19.3767 74.7107 19.6783 74.2202C19.9799 73.7296 20.4025 73.3501 20.946 73.0817C21.4896 72.8132 22.116 72.679 22.8253 72.679C23.5545 72.679 24.1892 72.8082 24.7294 73.0668C25.273 73.322 25.6955 73.6766 25.9972 74.1307C26.2988 74.5848 26.4496 75.1051 26.4496 75.6918C26.4496 76.0762 26.3733 76.4557 26.2209 76.8303C26.0717 77.2048 25.8049 77.6207 25.4205 78.0781C25.036 78.5322 24.4941 79.0774 23.7947 79.7138L22.3082 81.1705V81.2401H26.5838V83H19.3253ZM32.1358 83.2237C31.2807 83.2204 30.5449 83.0099 29.9284 82.5923C29.3153 82.1747 28.843 81.5698 28.5115 80.7777C28.1834 79.9856 28.021 79.0327 28.0243 77.919C28.0243 76.8087 28.1884 75.8625 28.5165 75.0803C28.848 74.2981 29.3203 73.7031 29.9334 73.2955C30.5499 72.8845 31.284 72.679 32.1358 72.679C32.9876 72.679 33.7201 72.8845 34.3333 73.2955C34.9498 73.7064 35.4237 74.303 35.7551 75.0852C36.0866 75.8641 36.2507 76.8087 36.2473 77.919C36.2473 79.036 36.0816 79.9905 35.7502 80.7827C35.4221 81.5748 34.9514 82.1797 34.3382 82.5973C33.7251 83.0149 32.9909 83.2237 32.1358 83.2237ZM32.1358 81.4389C32.7192 81.4389 33.1848 81.1456 33.5328 80.5589C33.8809 79.9723 34.0532 79.0923 34.0499 77.919C34.0499 77.1468 33.9703 76.5038 33.8113 75.9901C33.6555 75.4763 33.4334 75.0902 33.1451 74.8317C32.86 74.5732 32.5236 74.4439 32.1358 74.4439C31.5558 74.4439 31.0918 74.7339 30.7438 75.3139C30.3958 75.8939 30.2201 76.7623 30.2168 77.919C30.2168 78.7012 30.2947 79.3542 30.4505 79.8778C30.6096 80.3982 30.8333 80.7893 31.1216 81.0511C31.41 81.3097 31.748 81.4389 32.1358 81.4389Z" fill="#D9A8A5"/>
<path opacity="0.5" d="M2.26278 106V104.449L5.88707 101.093C6.19531 100.795 6.45384 100.526 6.66264 100.288C6.87476 100.049 7.03551 99.8153 7.14489 99.5866C7.25426 99.3546 7.30895 99.1044 7.30895 98.8359C7.30895 98.5376 7.241 98.2808 7.10511 98.0653C6.96922 97.8466 6.78362 97.6792 6.5483 97.5632C6.31297 97.4439 6.04616 97.3842 5.74787 97.3842C5.43632 97.3842 5.16454 97.4472 4.93253 97.5732C4.70052 97.6991 4.52154 97.8797 4.3956 98.1151C4.26965 98.3504 4.20668 98.6304 4.20668 98.9553H2.16335C2.16335 98.2891 2.31416 97.7107 2.61577 97.2202C2.91738 96.7296 3.33996 96.3501 3.88352 96.0817C4.42708 95.8132 5.0535 95.679 5.76278 95.679C6.49195 95.679 7.12666 95.8082 7.6669 96.0668C8.21046 96.322 8.63305 96.6766 8.93466 97.1307C9.23627 97.5848 9.38707 98.1051 9.38707 98.6918C9.38707 99.0762 9.31084 99.4557 9.15838 99.8303C9.00923 100.205 8.74242 100.621 8.35795 101.078C7.97348 101.532 7.43158 102.077 6.73224 102.714L5.24574 104.17V104.24H9.52131V106H2.26278ZM15.0733 106.224C14.2182 106.22 13.4824 106.01 12.8659 105.592C12.2528 105.175 11.7805 104.57 11.449 103.778C11.1209 102.986 10.9585 102.033 10.9618 100.919C10.9618 99.8087 11.1259 98.8625 11.454 98.0803C11.7855 97.2981 12.2578 96.7031 12.8709 96.2955C13.4874 95.8845 14.2215 95.679 15.0733 95.679C15.9251 95.679 16.6576 95.8845 17.2708 96.2955C17.8873 96.7064 18.3612 97.303 18.6926 98.0852C19.0241 98.8641 19.1882 99.8087 19.1848 100.919C19.1848 102.036 19.0191 102.991 18.6877 103.783C18.3596 104.575 17.8889 105.18 17.2757 105.597C16.6626 106.015 15.9284 106.224 15.0733 106.224ZM15.0733 104.439C15.6567 104.439 16.1223 104.146 16.4703 103.559C16.8184 102.972 16.9907 102.092 16.9874 100.919C16.9874 100.147 16.9078 99.5038 16.7488 98.9901C16.593 98.4763 16.3709 98.0902 16.0826 97.8317C15.7975 97.5732 15.4611 97.4439 15.0733 97.4439C14.4933 97.4439 14.0293 97.7339 13.6813 98.3139C13.3333 98.8939 13.1576 99.7623 13.1543 100.919C13.1543 101.701 13.2322 102.354 13.388 102.878C13.5471 103.398 13.7708 103.789 14.0591 104.051C14.3475 104.31 14.6855 104.439 15.0733 104.439ZM20.7198 106V104.449L24.3441 101.093C24.6523 100.795 24.9109 100.526 25.1197 100.288C25.3318 100.049 25.4925 99.8153 25.6019 99.5866C25.7113 99.3546 25.766 99.1044 25.766 98.8359C25.766 98.5376 25.698 98.2808 25.5621 98.0653C25.4263 97.8466 25.2406 97.6792 25.0053 97.5632C24.77 97.4439 24.5032 97.3842 24.2049 97.3842C23.8933 97.3842 23.6216 97.4472 23.3896 97.5732C23.1576 97.6991 22.9786 97.8797 22.8526 98.1151C22.7267 98.3504 22.6637 98.6304 22.6637 98.9553H20.6204C20.6204 98.2891 20.7712 97.7107 21.0728 97.2202C21.3744 96.7296 21.797 96.3501 22.3406 96.0817C22.8841 95.8132 23.5105 95.679 24.2198 95.679C24.949 95.679 25.5837 95.8082 26.1239 96.0668C26.6675 96.322 27.0901 96.6766 27.3917 97.1307C27.6933 97.5848 27.8441 98.1051 27.8441 98.6918C27.8441 99.0762 27.7679 99.4557 27.6154 99.8303C27.4663 100.205 27.1995 100.621 26.815 101.078C26.4305 101.532 25.8886 102.077 25.1893 102.714L23.7028 104.17V104.24H27.9783V106H20.7198ZM33.9679 95.8182V106H31.8152V97.8615H31.7555L29.4238 99.3232V97.4141L31.9444 95.8182H33.9679Z" fill="#D9A8A5"/>
<path opacity="0.6" d="M1.27841 129V127.449L4.9027 124.093C5.21094 123.795 5.46946 123.526 5.67827 123.288C5.89039 123.049 6.05114 122.815 6.16051 122.587C6.26989 122.355 6.32457 122.104 6.32457 121.836C6.32457 121.538 6.25663 121.281 6.12074 121.065C5.98485 120.847 5.79924 120.679 5.56392 120.563C5.3286 120.444 5.06179 120.384 4.76349 120.384C4.45194 120.384 4.18016 120.447 3.94815 120.573C3.71615 120.699 3.53717 120.88 3.41122 121.115C3.28527 121.35 3.2223 121.63 3.2223 121.955H1.17898C1.17898 121.289 1.32978 120.711 1.63139 120.22C1.933 119.73 2.35559 119.35 2.89915 119.082C3.44271 118.813 4.06913 118.679 4.77841 118.679C5.50758 118.679 6.14228 118.808 6.68253 119.067C7.22609 119.322 7.64867 119.677 7.95028 120.131C8.25189 120.585 8.4027 121.105 8.4027 121.692C8.4027 122.076 8.32647 122.456 8.17401 122.83C8.02486 123.205 7.75805 123.621 7.37358 124.078C6.98911 124.532 6.44721 125.077 5.74787 125.714L4.26136 127.17V127.24H8.53693V129H1.27841ZM14.089 129.224C13.2338 129.22 12.498 129.01 11.8816 128.592C11.2684 128.175 10.7961 127.57 10.4647 126.778C10.1365 125.986 9.97414 125.033 9.97745 123.919C9.97745 122.809 10.1415 121.862 10.4696 121.08C10.8011 120.298 11.2734 119.703 11.8865 119.295C12.503 118.884 13.2372 118.679 14.089 118.679C14.9408 118.679 15.6732 118.884 16.2864 119.295C16.9029 119.706 17.3768 120.303 17.7083 121.085C18.0397 121.864 18.2038 122.809 18.2005 123.919C18.2005 125.036 18.0347 125.991 17.7033 126.783C17.3752 127.575 16.9045 128.18 16.2914 128.597C15.6782 129.015 14.9441 129.224 14.089 129.224ZM14.089 127.439C14.6723 127.439 15.138 127.146 15.486 126.559C15.834 125.972 16.0063 125.092 16.003 123.919C16.003 123.147 15.9235 122.504 15.7644 121.99C15.6086 121.476 15.3865 121.09 15.0982 120.832C14.8132 120.573 14.4767 120.444 14.089 120.444C13.5089 120.444 13.0449 120.734 12.6969 121.314C12.3489 121.894 12.1732 122.762 12.1699 123.919C12.1699 124.701 12.2478 125.354 12.4036 125.878C12.5627 126.398 12.7864 126.789 13.0748 127.051C13.3631 127.31 13.7012 127.439 14.089 127.439ZM19.7354 129V127.449L23.3597 124.093C23.668 123.795 23.9265 123.526 24.1353 123.288C24.3474 123.049 24.5082 122.815 24.6175 122.587C24.7269 122.355 24.7816 122.104 24.7816 121.836C24.7816 121.538 24.7137 121.281 24.5778 121.065C24.4419 120.847 24.2563 120.679 24.021 120.563C23.7856 120.444 23.5188 120.384 23.2205 120.384C22.909 120.384 22.6372 120.447 22.4052 120.573C22.1732 120.699 21.9942 120.88 21.8683 121.115C21.7423 121.35 21.6793 121.63 21.6793 121.955H19.636C19.636 121.289 19.7868 120.711 20.0884 120.22C20.39 119.73 20.8126 119.35 21.3562 119.082C21.8997 118.813 22.5262 118.679 23.2354 118.679C23.9646 118.679 24.5993 118.808 25.1396 119.067C25.6831 119.322 26.1057 119.677 26.4073 120.131C26.7089 120.585 26.8597 121.105 26.8597 121.692C26.8597 122.076 26.7835 122.456 26.631 122.83C26.4819 123.205 26.2151 123.621 25.8306 124.078C25.4461 124.532 24.9042 125.077 24.2049 125.714L22.7184 127.17V127.24H26.994V129H19.7354ZM28.5538 129V127.449L32.1781 124.093C32.4863 123.795 32.7449 123.526 32.9537 123.288C33.1658 123.049 33.3265 122.815 33.4359 122.587C33.5453 122.355 33.6 122.104 33.6 121.836C33.6 121.538 33.532 121.281 33.3961 121.065C33.2602 120.847 33.0746 120.679 32.8393 120.563C32.604 120.444 32.3372 120.384 32.0389 120.384C31.7273 120.384 31.4556 120.447 31.2235 120.573C30.9915 120.699 30.8126 120.88 30.6866 121.115C30.5607 121.35 30.4977 121.63 30.4977 121.955H28.4544C28.4544 121.289 28.6052 120.711 28.9068 120.22C29.2084 119.73 29.631 119.35 30.1745 119.082C30.7181 118.813 31.3445 118.679 32.0538 118.679C32.783 118.679 33.4177 118.808 33.9579 119.067C34.5015 119.322 34.9241 119.677 35.2257 120.131C35.5273 120.585 35.6781 121.105 35.6781 121.692C35.6781 122.076 35.6019 122.456 35.4494 122.83C35.3002 123.205 35.0334 123.621 34.649 124.078C34.2645 124.532 33.7226 125.077 33.0233 125.714L31.5368 127.17V127.24H35.8123V129H28.5538Z" fill="#D9A8A5"/>
<path opacity="0.7" d="M1.07333 152V150.449L4.69762 147.093C5.00586 146.795 5.26438 146.526 5.47319 146.288C5.68531 146.049 5.84606 145.815 5.95543 145.587C6.06481 145.355 6.1195 145.104 6.1195 144.836C6.1195 144.538 6.05155 144.281 5.91566 144.065C5.77977 143.847 5.59416 143.679 5.35884 143.563C5.12352 143.444 4.85671 143.384 4.55842 143.384C4.24686 143.384 3.97508 143.447 3.74308 143.573C3.51107 143.699 3.33209 143.88 3.20614 144.115C3.0802 144.35 3.01722 144.63 3.01722 144.955H0.973899C0.973899 144.289 1.1247 143.711 1.42631 143.22C1.72792 142.73 2.15051 142.35 2.69407 142.082C3.23763 141.813 3.86405 141.679 4.57333 141.679C5.3025 141.679 5.9372 141.808 6.47745 142.067C7.02101 142.322 7.4436 142.677 7.74521 143.131C8.04682 143.585 8.19762 144.105 8.19762 144.692C8.19762 145.076 8.12139 145.456 7.96893 145.83C7.81978 146.205 7.55297 146.621 7.1685 147.078C6.78403 147.532 6.24213 148.077 5.54279 148.714L4.05629 150.17V150.24H8.33185V152H1.07333ZM13.8839 152.224C13.0288 152.22 12.293 152.01 11.6765 151.592C11.0633 151.175 10.591 150.57 10.2596 149.778C9.93146 148.986 9.76906 148.033 9.77237 146.919C9.77237 145.809 9.93643 144.862 10.2646 144.08C10.596 143.298 11.0683 142.703 11.6815 142.295C12.2979 141.884 13.0321 141.679 13.8839 141.679C14.7357 141.679 15.4682 141.884 16.0813 142.295C16.6978 142.706 17.1718 143.303 17.5032 144.085C17.8346 144.864 17.9987 145.809 17.9954 146.919C17.9954 148.036 17.8297 148.991 17.4982 149.783C17.1701 150.575 16.6995 151.18 16.0863 151.597C15.4731 152.015 14.739 152.224 13.8839 152.224ZM13.8839 150.439C14.4672 150.439 14.9329 150.146 15.2809 149.559C15.6289 148.972 15.8013 148.092 15.7979 146.919C15.7979 146.147 15.7184 145.504 15.5593 144.99C15.4035 144.476 15.1815 144.09 14.8931 143.832C14.6081 143.573 14.2717 143.444 13.8839 143.444C13.3039 143.444 12.8398 143.734 12.4918 144.314C12.1438 144.894 11.9682 145.762 11.9648 146.919C11.9648 147.701 12.0427 148.354 12.1985 148.878C12.3576 149.398 12.5813 149.789 12.8697 150.051C13.158 150.31 13.4961 150.439 13.8839 150.439ZM19.5304 152V150.449L23.1547 147.093C23.4629 146.795 23.7214 146.526 23.9302 146.288C24.1423 146.049 24.3031 145.815 24.4125 145.587C24.5218 145.355 24.5765 145.104 24.5765 144.836C24.5765 144.538 24.5086 144.281 24.3727 144.065C24.2368 143.847 24.0512 143.679 23.8159 143.563C23.5806 143.444 23.3137 143.384 23.0154 143.384C22.7039 143.384 22.4321 143.447 22.2001 143.573C21.9681 143.699 21.7891 143.88 21.6632 144.115C21.5372 144.35 21.4743 144.63 21.4743 144.955H19.4309C19.4309 144.289 19.5817 143.711 19.8833 143.22C20.185 142.73 20.6075 142.35 21.1511 142.082C21.6947 141.813 22.3211 141.679 23.0304 141.679C23.7595 141.679 24.3942 141.808 24.9345 142.067C25.478 142.322 25.9006 142.677 26.2022 143.131C26.5038 143.585 26.6547 144.105 26.6547 144.692C26.6547 145.076 26.5784 145.456 26.426 145.83C26.2768 146.205 26.01 146.621 25.6255 147.078C25.2411 147.532 24.6992 148.077 23.9998 148.714L22.5133 150.17V150.24H26.7889V152H19.5304ZM32.1122 152.139C31.3698 152.139 30.7086 152.012 30.1286 151.756C29.5518 151.498 29.0961 151.143 28.7614 150.692C28.4299 150.238 28.2592 149.715 28.2493 149.121H30.4169C30.4302 149.37 30.5114 149.589 30.6605 149.778C30.813 149.963 31.0152 150.107 31.267 150.21C31.5189 150.313 31.8023 150.364 32.1172 150.364C32.4453 150.364 32.7353 150.306 32.9872 150.19C33.2391 150.074 33.4363 149.914 33.5788 149.708C33.7214 149.503 33.7926 149.266 33.7926 148.997C33.7926 148.725 33.7164 148.485 33.5639 148.276C33.4148 148.064 33.1993 147.898 32.9176 147.779C32.6392 147.66 32.3078 147.6 31.9233 147.6H30.9737V146.019H31.9233C32.2481 146.019 32.5348 145.963 32.7834 145.85C33.0353 145.737 33.2308 145.582 33.37 145.383C33.5092 145.181 33.5788 144.945 33.5788 144.677C33.5788 144.422 33.5175 144.198 33.3949 144.006C33.2756 143.81 33.1065 143.658 32.8878 143.548C32.6723 143.439 32.4205 143.384 32.1321 143.384C31.8404 143.384 31.5736 143.437 31.3317 143.543C31.0897 143.646 30.8958 143.794 30.75 143.986C30.6042 144.178 30.5263 144.403 30.5163 144.662H28.4531C28.4631 144.075 28.6304 143.558 28.9553 143.111C29.2801 142.663 29.7176 142.314 30.2678 142.062C30.8213 141.807 31.446 141.679 32.142 141.679C32.8447 141.679 33.4595 141.807 33.9865 142.062C34.5135 142.317 34.9228 142.662 35.2145 143.096C35.5095 143.527 35.6553 144.011 35.652 144.548C35.6553 145.118 35.478 145.593 35.12 145.974C34.7654 146.356 34.303 146.598 33.733 146.7V146.78C34.482 146.876 35.0521 147.136 35.4432 147.56C35.8376 147.981 36.0331 148.508 36.0298 149.141C36.0331 149.721 35.8658 150.237 35.5277 150.688C35.1929 151.138 34.7306 151.493 34.1406 151.751C33.5507 152.01 32.8745 152.139 32.1122 152.139Z" fill="#D9A8A5"/>
<path d="M1.05282 175V173.449L4.67711 170.093C4.98535 169.795 5.24387 169.526 5.45268 169.288C5.6648 169.049 5.82555 168.815 5.93493 168.587C6.0443 168.355 6.09899 168.104 6.09899 167.836C6.09899 167.538 6.03104 167.281 5.89515 167.065C5.75926 166.847 5.57366 166.679 5.33833 166.563C5.10301 166.444 4.8362 166.384 4.53791 166.384C4.22636 166.384 3.95458 166.447 3.72257 166.573C3.49056 166.699 3.31158 166.88 3.18564 167.115C3.05969 167.35 2.99672 167.63 2.99672 167.955H0.953391C0.953391 167.289 1.1042 166.711 1.40581 166.22C1.70742 165.73 2.13 165.35 2.67356 165.082C3.21712 164.813 3.84354 164.679 4.55282 164.679C5.28199 164.679 5.9167 164.808 6.45694 165.067C7.0005 165.322 7.42309 165.677 7.7247 166.131C8.02631 166.585 8.17711 167.105 8.17711 167.692C8.17711 168.076 8.10088 168.456 7.94842 168.83C7.79927 169.205 7.53246 169.621 7.14799 170.078C6.76352 170.532 6.22162 171.077 5.52228 171.714L4.03578 173.17V173.24H8.31135V175H1.05282ZM13.8634 175.224C13.0083 175.22 12.2725 175.01 11.656 174.592C11.0428 174.175 10.5705 173.57 10.2391 172.778C9.91096 171.986 9.74855 171.033 9.75186 169.919C9.75186 168.809 9.91593 167.862 10.2441 167.08C10.5755 166.298 11.0478 165.703 11.661 165.295C12.2774 164.884 13.0116 164.679 13.8634 164.679C14.7152 164.679 15.4477 164.884 16.0608 165.295C16.6773 165.706 17.1512 166.303 17.4827 167.085C17.8141 167.864 17.9782 168.809 17.9749 169.919C17.9749 171.036 17.8092 171.991 17.4777 172.783C17.1496 173.575 16.6789 174.18 16.0658 174.597C15.4526 175.015 14.7185 175.224 13.8634 175.224ZM13.8634 173.439C14.4467 173.439 14.9124 173.146 15.2604 172.559C15.6084 171.972 15.7807 171.092 15.7774 169.919C15.7774 169.147 15.6979 168.504 15.5388 167.99C15.383 167.476 15.161 167.09 14.8726 166.832C14.5876 166.573 14.2512 166.444 13.8634 166.444C13.2834 166.444 12.8193 166.734 12.4713 167.314C12.1233 167.894 11.9477 168.762 11.9443 169.919C11.9443 170.701 12.0222 171.354 12.178 171.878C12.3371 172.398 12.5608 172.789 12.8492 173.051C13.1375 173.31 13.4756 173.439 13.8634 173.439ZM19.5099 175V173.449L23.1341 170.093C23.4424 169.795 23.7009 169.526 23.9097 169.288C24.1218 169.049 24.2826 168.815 24.392 168.587C24.5013 168.355 24.556 168.104 24.556 167.836C24.556 167.538 24.4881 167.281 24.3522 167.065C24.2163 166.847 24.0307 166.679 23.7954 166.563C23.56 166.444 23.2932 166.384 22.9949 166.384C22.6834 166.384 22.4116 166.447 22.1796 166.573C21.9476 166.699 21.7686 166.88 21.6427 167.115C21.5167 167.35 21.4537 167.63 21.4537 167.955H19.4104C19.4104 167.289 19.5612 166.711 19.8628 166.22C20.1644 165.73 20.587 165.35 21.1306 165.082C21.6742 164.813 22.3006 164.679 23.0099 164.679C23.739 164.679 24.3737 164.808 24.914 165.067C25.4575 165.322 25.8801 165.677 26.1817 166.131C26.4833 166.585 26.6341 167.105 26.6341 167.692C26.6341 168.076 26.5579 168.456 26.4055 168.83C26.2563 169.205 25.9895 169.621 25.605 170.078C25.2206 170.532 24.6787 171.077 23.9793 171.714L22.4928 173.17V173.24H26.7684V175H19.5099ZM27.9553 173.21V171.515L32.2061 164.818H33.6677V167.165H32.8026L30.123 171.406V171.485H36.1634V173.21H27.9553ZM32.8424 175V172.693L32.8822 171.942V164.818H34.9007V175H32.8424Z" fill="#D9A8A5"/>
<path opacity="0.2" d="M3.00888 14V12.4489L6.63317 9.09304C6.94141 8.79474 7.19993 8.52628 7.40874 8.28764C7.62086 8.04901 7.78161 7.81534 7.89098 7.58665C8.00036 7.35464 8.05504 7.1044 8.05504 6.83594C8.05504 6.53764 7.9871 6.28078 7.85121 6.06534C7.71532 5.84659 7.52971 5.67921 7.29439 5.56321C7.05907 5.44389 6.79226 5.38423 6.49396 5.38423C6.18241 5.38423 5.91063 5.44721 5.67862 5.57315C5.44661 5.6991 5.26764 5.87973 5.14169 6.11506C5.01574 6.35038 4.95277 6.63044 4.95277 6.95526H2.90945C2.90945 6.28906 3.06025 5.7107 3.36186 5.22017C3.66347 4.72964 4.08606 4.35014 4.62962 4.08168C5.17318 3.81321 5.7996 3.67898 6.50888 3.67898C7.23804 3.67898 7.87275 3.80824 8.413 4.06676C8.95656 4.32197 9.37914 4.67661 9.68075 5.13068C9.98236 5.58475 10.1332 6.10511 10.1332 6.69176C10.1332 7.07623 10.0569 7.45573 9.90447 7.83026C9.75533 8.20478 9.48852 8.62074 9.10405 9.07812C8.71958 9.5322 8.17768 10.0774 7.47834 10.7138L5.99183 12.1705V12.2401H10.2674V14H3.00888ZM15.8194 14.2237C14.9643 14.2204 14.2285 14.0099 13.612 13.5923C12.9989 13.1747 12.5266 12.5698 12.1951 11.7777C11.867 10.9856 11.7046 10.0327 11.7079 8.91903C11.7079 7.80871 11.872 6.86245 12.2001 6.08026C12.5315 5.29806 13.0038 4.70312 13.617 4.29545C14.2335 3.88447 14.9676 3.67898 15.8194 3.67898C16.6712 3.67898 17.4037 3.88447 18.0169 4.29545C18.6333 4.70644 19.1073 5.30303 19.4387 6.08523C19.7702 6.86411 19.9342 7.80871 19.9309 8.91903C19.9309 10.036 19.7652 10.9905 19.4338 11.7827C19.1056 12.5748 18.635 13.1797 18.0218 13.5973C17.4087 14.0149 16.6745 14.2237 15.8194 14.2237ZM15.8194 12.4389C16.4028 12.4389 16.8684 12.1456 17.2164 11.5589C17.5645 10.9723 17.7368 10.0923 17.7335 8.91903C17.7335 8.14678 17.6539 7.50379 17.4949 6.99006C17.3391 6.47633 17.117 6.0902 16.8287 5.83168C16.5436 5.57315 16.2072 5.44389 15.8194 5.44389C15.2394 5.44389 14.7754 5.7339 14.4274 6.31392C14.0794 6.89394 13.9037 7.76231 13.9004 8.91903C13.9004 9.70123 13.9783 10.3542 14.1341 10.8778C14.2931 11.3982 14.5169 11.7893 14.8052 12.0511C15.0936 12.3097 15.4316 12.4389 15.8194 12.4389ZM25.8956 3.81818V14H23.7429V5.86151H23.6832L21.3516 7.32315V5.41406L23.8722 3.81818H25.8956ZM28.7182 14L32.9391 5.64773V5.57812H28.0222V3.81818H35.1664V5.60298L30.9405 14H28.7182Z" fill="#D9A8A5"/>
</svg>
