<svg width="860" height="816" viewBox="0 0 860 816" fill="none" xmlns="http://www.w3.org/2000/svg">
<path d="M554.828 585.246C554.828 585.246 551.491 591.714 550.103 592.959C548.719 594.217 544.978 597.109 543.514 597.82C542.042 598.527 537.661 599.936 535.938 602.335C534.224 604.716 530.755 609.058 528.396 609.507C526.047 609.96 516.502 609.782 515.786 611.058C515.07 612.334 513.854 614.113 511.767 614.468C509.685 614.813 507.227 616.402 505.151 616.054C503.062 615.712 502.757 616.487 501.162 617.15C499.634 617.788 497.431 618.666 497.295 618.725C497.127 618.399 496.901 618.102 496.586 617.786C495.374 616.609 493.842 614.908 493.842 614.908L470.928 612.961L459.802 621.368L446.594 614.865C446.594 614.865 447.752 592.759 444.481 582.13L415.717 573.395C415.717 573.395 416.451 569.855 416.891 568.878C417.33 567.902 416.913 565.322 416.214 563.974C415.514 562.626 415.181 558.627 415.319 557.112C415.447 555.594 413.306 551.813 412.302 548.555C411.292 545.285 412.307 544.578 413.048 542.161C413.788 539.743 415.426 539.926 417.72 539.111C420.015 538.296 416.898 532.837 416.898 532.837L424.558 533.068L433.053 531.468L438.553 519.256L447.578 525.593L450.685 519.783L448.165 512.396L455.869 504.742L464.353 506.987L469.547 502.465L475.686 506.872L482.277 502.294L486.81 501.998L487.864 510.029L495.52 518.077L494.233 521.683L504.086 528.045L518.872 530.029L521.769 537.934L531.6 542.361L535.333 554.818C535.333 554.818 538.929 547.315 542.154 547.941C545.374 548.576 547.621 548.761 548.246 550.13C548.857 551.503 553.956 557.301 556.624 558.992C556.624 558.992 554.395 576.973 554.336 581.48C554.318 582.994 554.468 584.258 554.802 585.256L554.828 585.246Z" stroke="#FFF3F1" stroke-width="2" stroke-linejoin="round"/>
<path d="M488.149 314.624L472.789 314.567L470.581 323.12L470.065 337.708L459.655 343.73L460.434 351.018L447.739 366.514L447.734 373.851L430.86 371.786L427.318 365.798C427.318 365.798 419.897 366.707 416.446 366.849C412.996 366.991 410.752 356.597 410.752 356.597L410.962 351.342L402.355 344.487L397.864 345.9L393.345 337.004L386.171 340.917L373.104 326.387L372.937 321.778L364.3 314.191L357.765 314.945L355.92 307.025L348.434 306.361L344.217 303.418L345.782 294.141L351.468 294.136L355.024 282.058L350.999 273.102L347.014 267.687L356.827 250.371L362.305 237.191L356.836 228.084L366.58 221.317L372.105 218.89L375.938 212.288L379.528 211.426L381.243 216.177L388.928 219.639L393.391 220.344L398.995 217.04L394.578 210.962L397.453 209.027C397.453 209.027 404.928 210.296 404.937 210.278C404.855 210.241 407.569 205.352 407.478 205.311L412.503 207.064L414.015 211.42L415.366 212.604L421.938 209.084L430.405 215.235L431.768 220.307L445.618 226.642C445.618 226.642 447.516 230.89 447.512 230.996C447.621 231.045 454.572 228.206 454.572 228.206L458.203 232.353L455.856 238.266L466.531 244.857L470.931 244.903L472.515 245.834L478.622 246.758L481.967 250.863L477.505 260.77L478.36 270.767L486.679 273.209L491.508 282.941C491.508 282.941 498.864 284.014 498.946 284.051C499.027 284.088 499.728 285.675 499.728 285.675L497.992 292.962L500.998 298.643L488.159 301.885L488.114 314.63L488.149 314.624Z" stroke="#FFF3F1" stroke-width="2" stroke-linejoin="round"/>
<path d="M703.348 268.745C704.388 265.517 705.393 260.022 705.393 260.022C705.393 260.022 700.404 252.556 701.385 250.595C702.375 248.638 704.013 247.516 706.304 247.7C708.599 247.874 720.808 248.328 722.367 246.388C723.927 244.448 724.485 244.949 723.829 237.63C723.829 237.63 646.559 232.829 561.623 175.755C561.038 175.361 560.493 174.855 559.891 174.475C559.208 174.058 558.513 173.691 557.858 173.211C557.491 172.937 557.517 172.905 557.154 173.275C556.967 173.473 556.774 173.636 556.545 173.805C556.059 174.184 555.598 174.313 554.951 174.25C554.495 174.198 554.139 173.852 553.7 173.763C553.292 173.678 552.89 174.04 552.499 174.157C551.522 174.489 551.001 173.157 549.999 174.075C549.669 174.373 549.502 174.961 549.225 175.336C548.871 175.807 548.641 176.171 548.069 176.305C547.519 176.438 547.153 176.164 546.647 176.176C546.132 176.183 545.604 176.63 545.203 176.939C544.329 177.6 543.42 178.191 542.428 178.701C541.902 178.975 541.291 179.146 540.802 179.458C540.33 179.757 540.099 180.196 539.857 180.685C539.28 181.774 538.617 182.182 537.379 182.103C536.809 182.063 536.226 182.149 535.672 181.976C534.619 181.654 533.619 181.214 532.565 180.848C531.983 180.64 530.87 181.009 530.322 181.306C529.992 181.483 529.779 181.812 529.481 182.014C529.014 182.326 528.266 182.391 527.742 182.514C527.245 182.627 526.847 182.883 526.403 183.118C525.886 183.396 525.299 183.611 524.745 183.85C523.877 184.231 523.053 184.632 522.159 184.925C521.77 185.065 521.371 185.201 520.963 185.333C520.529 185.474 520.297 185.772 519.908 185.934C519.699 186.036 519.504 185.937 519.297 185.985C519.109 186.042 518.938 186.226 518.775 186.348C518.456 186.596 518.199 186.828 517.932 187.132C517.372 187.793 517.17 188.605 516.679 189.286C516.376 189.715 515.99 189.823 515.471 189.84C515.018 189.853 514.227 189.628 514.215 189.002C514.183 188.444 514.835 188.64 515.132 188.513C515.276 188.458 515.335 188.256 515.484 188.215C515.563 188.185 515.788 188.265 515.809 188.242C516.113 188.074 515.831 186.936 515.849 186.607C515.861 185.927 515.52 185.306 515.138 184.775C514.111 183.334 511.9 183.382 510.351 183.728C509.915 183.826 509.558 184.111 509.117 184.195C508.654 184.28 508.042 184.309 507.576 184.207C507.208 184.129 506.957 183.961 506.749 183.748L500.727 195.715C500.727 195.715 500.013 206.005 500.094 206.042L504.349 207.958L503.798 213.679L505.436 219.593L509.98 216.224L515.701 219.791L516.539 221.364L504.569 232.446L496.863 228.182L492.578 231.362L492.549 236.938L484.602 238.991L478.285 244.943L470.982 244.861L472.566 245.792L478.673 246.716L482.018 250.821L477.556 260.729L478.411 270.725L486.73 273.167L491.559 282.899C491.559 282.899 498.915 283.972 498.997 284.009C499.078 284.046 499.779 285.633 499.779 285.633L498.043 292.92L501.049 298.601L498.569 304.106C498.569 304.106 503.619 309.164 504.293 307.814C504.971 306.478 504.808 304.687 505.783 304.506C506.761 304.316 507.912 304.976 508.66 304.693C509.408 304.41 510.227 304.333 510.227 304.333L515.441 312.074C515.441 312.074 520.713 310.98 522.061 312.098C523.418 313.22 530.951 317.624 531.799 317.723C532.643 317.832 537.742 319.954 537.742 319.954C537.742 319.954 539.345 312.815 540.877 312.243C542.412 311.662 544.411 311.019 544.493 311.056C544.583 311.096 551.637 314.752 551.637 314.752C551.637 314.752 556.934 313.364 559.041 312.117C561.149 310.87 561.908 310.08 562.793 310.338C563.67 310.591 570.319 313.695 571.607 313.35C572.894 313.006 574.601 313.666 575.061 312.014C575.527 310.375 576.545 308.115 578.837 308.876C581.139 309.641 584.39 314.704 584.39 314.704C584.39 314.704 597.905 308.678 598.068 308.752C598.231 308.825 604.362 311.412 604.362 311.412C604.362 311.412 610.952 309.302 615.542 309.651C619.206 309.931 621.783 310.374 623.093 310.269C623.425 310.233 623.68 310.174 623.849 310.065C624.675 309.513 627.749 308.418 628.373 309.015C629.001 309.602 635.595 316.867 635.595 316.867C635.595 316.867 638.644 318.099 638.51 318.082C638.393 318.051 640.442 314.929 642.061 314.864C643.675 314.808 653.97 315.596 656.187 314.637C658.405 313.679 675.577 305.94 675.577 305.94L679.147 306.862C679.147 306.862 682.292 304.908 682.398 304.891C682.513 304.877 698.223 302.199 698.223 302.199L708.887 289.811C708.887 289.811 702.302 271.938 703.337 268.697L703.348 268.745Z" stroke="#FFF3F1" stroke-width="2" stroke-linejoin="round"/>
<path d="M750.058 410.768C750.058 410.768 738.603 433.858 738.513 434.057C738.423 434.256 711.082 435.077 711.082 435.077L683.423 457.882C683.423 457.882 682.742 460.989 682.026 463.787C681.974 463.612 681.539 462.209 680.754 461.921C679.933 461.616 678.692 461.373 678.178 460.315C678.077 460.128 677.973 459.875 677.851 459.591C677.313 458.392 676.555 456.713 675.918 457.09C675.119 457.556 672.748 459.098 672.87 457.739C672.997 456.394 673.414 454.549 672.392 453.24C671.374 451.923 668.794 447.738 664.908 445.825C661.027 443.903 658.263 441.94 656.822 441.802C655.372 441.661 654.453 442.421 653.175 441.052C651.897 439.682 650.43 436.314 649.181 436.404C647.932 436.494 645.588 438.048 646.031 436.703C646.464 435.354 647.777 434.88 647.169 433.475C646.569 432.074 644.867 430.655 645.83 429.436C646.789 428.226 648.591 425.287 647.407 423.177C646.228 421.058 643.196 412.462 643.196 412.462C643.196 412.462 649.343 408.435 649.599 406.343C649.851 404.26 650.648 401.499 651.021 400.503C651.402 399.511 652.848 395.769 651.073 394.97C649.299 394.171 647.2 393.802 646.453 394.64C645.7 395.464 645.283 395.69 644.165 394.74C643.046 393.791 640.979 392.892 640.998 391.085C641.021 389.269 641.062 388.428 641.205 388.329C641.351 388.221 645.639 387.478 646.095 385.932C646.552 384.387 647.459 384.209 645.964 383.394C644.478 382.584 641.534 381.192 640.372 381.909C639.224 382.621 637.732 382.96 636.884 382.643C636.032 382.335 632.647 382.453 632.178 380.665C631.709 378.877 630.533 373.922 630.571 371.71C630.604 369.485 631.119 367.978 630.296 367.194C629.482 366.414 626.094 363.855 626.094 363.855C626.094 363.855 627.804 359.721 627.894 359.86C627.906 359.832 624.134 349.761 622.756 348.662C621.36 347.555 619.271 345.472 619.685 344.191C620.089 342.905 620.177 342.347 620.018 340.84C619.876 339.341 621.056 335.175 620.576 333.436C620.082 331.703 616.403 326.381 618.46 324.013C620.518 321.645 622.868 319.714 623.071 318.055C623.258 316.432 623.081 310.611 623.069 310.323C623.401 310.287 623.656 310.228 623.825 310.12C624.651 309.567 627.724 308.472 628.349 309.069C628.977 309.656 635.57 316.921 635.57 316.921C635.57 316.921 638.62 318.153 638.486 318.136C638.369 318.105 640.417 314.983 642.036 314.918C643.651 314.862 653.946 315.65 656.163 314.691C658.381 313.733 675.553 305.994 675.553 305.994L679.123 306.917C679.123 306.917 682.268 304.962 682.374 304.945C682.488 304.931 698.198 302.253 698.198 302.253L708.862 289.865C708.862 289.865 702.277 271.993 703.313 268.751C704.353 265.523 705.358 260.028 705.358 260.028C705.358 260.028 700.369 252.561 701.35 250.6C702.34 248.643 703.978 247.522 706.269 247.705C708.564 247.88 720.773 248.333 722.332 246.393C723.892 244.454 724.45 244.955 723.794 237.636L728.058 234.696L730.924 236.769L730.831 240.022L734.868 239.328L734.895 243.451L737.581 245.03L734.855 248.108L737.514 250.545L739.989 248.822L741.502 249.645L742.373 253.005L743.798 253.734C743.798 253.734 744.092 256.346 744.043 256.454C743.99 256.572 754.66 262.932 754.66 262.932L757.2 271.219L758.205 272.662L758.15 282.77L754.409 288.827L754.337 292.057L754.71 305.784L752.628 312.947L753.71 316.272L750.077 372.623L754.326 375.493C754.326 375.493 752.783 378.604 752.689 378.692C752.628 378.828 754.251 381.875 754.251 381.875L750.57 389.927L752.917 399.922L750.044 410.773L750.058 410.768Z" stroke="#FFF3F1" stroke-width="2" stroke-linejoin="round"/>
<path d="M688.085 630.55L692.937 641.488L691.865 644.256L693.069 645.984L682.334 660.341L672.585 660.81L664.753 658.979L655.516 667.834L650.597 670.61C642.238 665.258 640.12 660.726 639.071 658.677C637.95 656.476 633.304 651.633 633.304 651.633L627.189 653.511L620.651 648.37L605.987 657.043L597.93 652.642L593.919 651.249L589.535 643.599L575.801 640.61C575.801 640.61 574.717 634.674 574.283 633.609C573.839 632.539 577.591 631.945 579.424 631.162C581.245 630.383 585.132 630.481 587.123 631.378C589.115 632.275 588.366 629.828 587.939 628.962C587.507 628.083 588.077 626.915 587.276 625.14C586.478 623.357 590.177 618.89 589.47 618.528C588.762 618.166 581.786 610.131 579.997 608.13C578.196 606.133 572.571 607.623 572.571 607.623L568.931 600.764L575.522 594.567L571.028 586.921C571.028 586.921 562.553 588.041 559.155 588.163C556.888 588.24 555.492 587.253 554.837 585.251C554.507 584.243 554.357 582.98 554.371 581.474C554.426 576.976 556.659 558.986 556.659 558.986C556.659 558.986 557.9 553.499 559.097 552.049C560.299 550.589 560.934 547.657 561.296 546.102C561.65 544.543 562.074 542.538 563.56 541.076C565.037 539.61 567.244 537.32 568.562 534.685C569.889 532.053 571.751 531.108 569.248 528.883C566.744 526.657 567.817 522.606 569.684 522.425C571.556 522.235 573.489 523.454 574.069 521.247C574.654 519.031 574.336 518.116 574.886 516.58C575.436 515.045 575.466 512.536 576.288 511.025C577.11 509.514 577.971 508.401 576.859 508.357C575.728 508.304 569.78 508.093 568.398 506.471C567.02 504.839 563.019 498.372 563.636 497.509C564.258 496.636 566.303 495.045 567.207 496.181C568.107 497.326 570.386 501.234 572.354 501.337C574.322 501.441 577.266 501.625 578.455 500.823C579.631 500.026 583.697 496.823 585.176 496.586C586.662 496.332 585.537 496.195 585.067 494.385C584.598 492.575 582.903 489.931 584.888 489.9C586.868 489.879 589.171 489.045 589.171 489.045L586.66 481.782L592.64 468.916L605.08 467.429L623.707 475.633L634.238 471.591L639.947 476.13C639.947 476.13 643.602 469.947 645.417 469.666C647.244 469.38 648.26 469.566 649.141 470.56C650.021 471.555 654.367 478.177 657.009 476.3C659.646 474.411 660.085 471.912 662.355 471.151C664.625 470.39 670.969 469.311 672.443 467.464C673.922 465.607 677.873 459.59 677.873 459.59C678 459.865 678.104 460.118 678.2 460.314C678.715 461.372 679.955 461.616 680.776 461.92C681.565 462.199 681.996 463.611 682.048 463.787L682.04 463.805C682.008 463.899 681.99 463.989 681.967 464.087C681.228 466.962 685.389 469.836 687.246 470.499C689.104 471.161 689.197 472.356 690.353 474.094C691.487 475.855 692.982 475.702 695.245 476.167C697.516 476.635 696.78 479.696 696.435 481.792C696.085 483.874 702.197 487.638 703.139 488.377C704.076 489.125 703.741 490.399 702.956 491.731C702.176 493.076 703.925 497.028 704.206 497.926C704.474 498.83 703.676 499.199 702.642 499.875C701.595 500.556 701.338 501.854 701.316 502.627C701.289 503.387 701.333 503.918 700.481 504.675C699.633 505.446 699.365 504.999 699.088 505.929C698.811 506.859 698.449 507.251 697.38 507.595C696.305 507.927 696.843 509.778 697.59 511.311C698.323 512.826 696.244 512.075 694.834 512.038C693.425 512.001 694.857 514.429 695.879 515.618C696.897 516.816 694.627 519.219 693.975 521.078C693.314 522.933 690.625 523.005 688.184 523.928C685.756 524.846 686.565 527.233 686.5 528.802C686.432 530.381 685.242 531.911 684.443 534.193C683.635 536.493 684.686 537.423 685.124 538.99C685.557 540.566 684.186 541.363 683.34 543.363C682.485 545.359 685.033 544.995 686.492 544.826C687.938 544.661 687.201 546.515 686.206 547.806C685.21 549.098 686.112 549.732 688.175 551.074C690.229 552.413 688.284 552.548 686.84 553.627C685.383 554.71 687.568 555.662 688.414 557.869C689.251 560.073 684.838 563.272 682.987 566.462C681.133 569.66 683.721 573.512 685.103 574.699C686.501 575.873 685.913 576.163 684.932 578.559C683.946 580.942 688.746 585.854 690.245 587.628C691.744 589.401 691.019 589.172 689.836 593.13C688.652 597.088 690.85 599.219 691.701 600.787C692.556 602.369 692.128 601.773 691.544 603.794C690.957 605.824 691.977 607.838 692.965 609.61C693.953 611.381 693.996 610.802 694.122 613.98C694.252 617.148 699.549 621.175 700.567 621.863C701.586 622.55 703.634 623.515 702.883 625.885C702.132 628.254 696.048 624.959 692.093 624.602C688.123 624.228 688.126 630.557 688.126 630.557L688.085 630.55Z" stroke="#FFF3F1" stroke-width="2" stroke-linejoin="round"/>
<path d="M650.601 670.6L644.591 673.983L626.874 684.793L603.053 701.541L589.483 712.837L571.655 722.999L571.449 726.527L568.654 728.019L567.306 731.446L569.593 737.054L565.997 743.807C565.997 743.807 564.285 753.942 563.779 755.453C563.281 756.969 562.944 759.242 562.217 760.154C561.485 761.053 561.965 761.922 562.345 762.408C562.721 762.903 562.773 763.199 562.366 763.885C561.968 764.576 562.278 765.216 562.907 766.456C563.54 767.709 562.78 768.551 561.401 769.388C560.019 770.233 565.874 777.274 567.927 779.34C569.967 781.411 567.494 784.049 567.494 784.049L563.702 785.048L549.743 771.531C549.743 771.531 539.959 767.168 539.588 767.001C539.217 766.834 537.068 761.789 537.068 761.789C537.068 761.789 528.266 758.509 528.158 758.46C528.049 758.412 527.585 755.452 527.585 755.452C527.585 755.452 523.816 754.852 523.707 754.803C523.598 754.754 518.498 749.761 518.498 749.761L515.562 737.348L510.137 731.382L510.556 729.461C510.556 729.461 508.467 727.063 508.37 726.965C508.216 726.896 503.057 728.606 502.918 728.576C502.791 728.519 502.835 722.863 502.717 722.81C502.599 722.757 497.056 720.63 496.939 720.577C496.821 720.524 496.007 717.135 496.007 717.135C496.007 717.135 493.155 715.633 493.037 715.58C492.92 715.527 479.56 714.631 479.422 714.623C479.404 714.615 479.37 714.568 479.327 714.494C479.327 714.494 484.479 699.211 483.374 697.604C482.273 696.01 481.314 695.262 481.985 693.869C482.657 692.475 486.457 690.348 486.023 688.456C485.59 686.565 484.946 687.199 485.614 683.564C486.291 679.933 485.191 676.186 485.191 676.186L478.571 671.737L478.672 666.846C478.672 666.846 484.608 667.181 486.348 664.768C488.079 662.351 489.185 661.61 489.185 661.61L483.702 654.976C483.702 654.976 485.209 649.066 487.127 646.548C489.049 644.021 491.734 640.696 491.648 638.831C491.572 636.97 491.877 627.952 493.391 626.307C494.918 624.657 496.319 624.277 497.033 622.184C497.565 620.641 497.719 619.645 497.296 618.747C497.427 618.698 499.634 617.811 501.163 617.172C502.748 616.505 503.054 615.73 505.152 616.077C507.236 616.428 509.699 614.83 511.768 614.49C513.855 614.136 515.07 612.356 515.786 611.08C516.502 609.804 526.048 609.982 528.397 609.529C530.755 609.08 534.224 604.738 535.939 602.357C537.658 599.967 542.047 598.562 543.515 597.842C544.978 597.131 548.711 594.235 550.103 592.981C551.496 591.727 554.829 585.269 554.829 585.269C555.484 587.271 556.88 588.258 559.147 588.181C562.544 588.058 571.019 586.939 571.019 586.939L575.514 594.584L568.922 600.782L572.563 607.641C572.563 607.641 578.192 606.142 579.989 608.147C581.786 610.153 588.753 618.184 589.461 618.546C590.169 618.908 586.47 623.375 587.267 625.158C588.069 626.933 587.499 628.101 587.931 628.98C588.353 629.855 589.097 632.289 587.115 631.396C585.132 630.503 581.241 630.392 579.416 631.18C577.591 631.967 573.84 632.561 574.274 633.627C574.709 634.692 575.792 640.628 575.792 640.628L589.527 643.617L593.911 651.267L597.922 652.66L605.979 657.061L620.643 648.388L627.18 653.529L633.296 651.651C633.296 651.651 637.942 656.494 639.063 658.695C640.098 660.749 642.23 665.276 650.589 670.627L650.601 670.6Z" stroke="#FFF3F1" stroke-width="2" stroke-linejoin="round"/>
<path d="M415.721 573.386L415.455 573.299C415.455 573.299 408.419 574.631 408.167 574.757C407.905 574.878 405.318 575.497 404.018 575.193C402.712 574.877 402.01 574.452 400.769 574.622C399.523 574.778 394.357 575.344 393.382 574.318C392.394 573.296 391.52 572.044 389.052 571.432C386.57 570.826 383.63 570.948 383.63 570.948L380.405 579.39L374.182 577.033C374.182 577.033 367.157 579.502 367.301 579.643C367.448 579.774 373.116 587.329 373.116 587.329C373.116 587.329 369.011 590.014 368.749 590.45C368.478 590.883 367.319 593.166 367.094 593.206C366.869 593.246 362.222 592.589 361.55 594.08C360.878 595.572 359.788 601.039 357.571 599.845C355.371 598.637 352.403 597.441 351.393 598.911C350.392 600.385 346.339 606.312 346.454 606.516C346.577 606.702 352.9 613.116 352.928 613.346C352.968 613.571 350.199 619.261 350.199 619.261C350.199 619.261 355.199 623.1 354.925 624.336C354.638 625.577 354.449 629.188 354.449 629.188C354.449 629.188 358.161 630.11 358.843 631.037C359.526 631.964 362.823 635.787 360.2 636.584C357.572 637.39 353.473 638.078 353.473 638.078C353.473 638.078 354.111 643.237 354.283 643.314C354.455 643.392 361.064 642.932 361.233 644.661C361.424 646.389 362.495 646.186 359.838 653.101L348.594 658.073L345.751 656.336L340.682 657.315L335.353 665.353L330.706 667.425C330.706 667.425 327.779 663.214 327.67 663.165C327.562 663.116 324.865 665.936 324.865 665.936L320.937 664.167L322.649 659.567L321.615 656.132L323.499 654.197L321 650.68L317.329 647.613L318.729 645.351L316.707 640.461L319.252 633.093L318.972 629.216L314.754 630.024L314.566 625.46L310.376 623.159L308.707 611.078L313.584 607.283L311.117 600.213L308.158 601.49L303.874 597.777L303.52 594.911L300.09 593.268L298.272 596.386L294.838 596.492L296.083 590.996L292.262 589.275L292.428 586.055L288.672 586.56L285.625 583.437L286.345 580.195L285.277 579.714C285.277 579.714 290.192 569.815 291.264 568.982C292.331 568.136 294.368 568.499 295.376 568.822C296.38 569.133 300.963 569.74 301.071 569.789C301.18 569.838 313.825 564.681 313.825 564.681L315.618 561.183L319.072 544.472L325.67 544.377L328.412 539.425C328.412 539.425 335.995 540.187 336.279 538.347C336.555 536.503 337.096 533.778 335.785 531.394C334.47 529.019 332.861 524.032 332.861 524.032L340.153 519.857L340.761 512.487L346.803 513.022C346.803 513.022 348.724 508.853 349.858 507.254C350.992 505.656 351.528 505.07 351.178 504.228C350.818 503.381 350.841 498.857 350.89 498.749C350.939 498.64 354.988 497.387 354.988 497.387L357.728 491.303C357.837 491.352 368.72 495.982 368.72 495.982C368.72 495.982 372.521 493.344 373.851 494.259C375.169 495.178 375.498 496.283 377.019 497.284C378.535 498.293 382.632 500.899 383.475 501.975C384.332 503.046 385.908 504.527 387.708 505.294C389.516 506.065 393.719 506.719 395.058 509.018C396.405 511.321 396.581 512.357 397.495 512.768C398.409 513.18 398.964 513.376 399.221 514.546C399.469 515.712 399.207 521.684 401.518 522.768C403.828 523.852 409.808 524.62 409.537 525.923C409.279 527.22 409.532 531.325 410.816 531.544C412.096 531.75 416.888 532.811 416.888 532.811C416.888 532.811 420.004 538.27 417.71 539.085C415.416 539.9 413.778 539.717 413.037 542.134C412.292 544.539 411.282 545.258 412.292 548.529C413.301 551.8 415.433 555.576 415.309 557.086C415.18 558.605 415.504 562.6 416.204 563.948C416.903 565.296 417.316 567.885 416.88 568.852C416.445 569.819 415.707 573.368 415.707 573.368L415.721 573.386Z" stroke="#FFF3F1" stroke-width="2" stroke-linejoin="round"/>
<path d="M350.895 498.762C350.842 498.88 350.823 503.394 351.182 504.241C351.536 505.075 350.997 505.669 349.863 507.268C348.729 508.866 346.808 513.035 346.808 513.035L340.766 512.5L340.158 519.87L332.866 524.045C332.866 524.045 334.475 529.032 335.79 531.407C337.096 533.778 336.563 536.507 336.284 538.36C336 540.2 328.416 539.438 328.416 539.438L325.674 544.39L319.077 544.485L315.623 561.196L313.829 564.695C313.829 564.695 301.185 569.851 301.076 569.802C300.967 569.753 296.375 569.142 295.381 568.836C294.368 568.521 292.336 568.15 291.269 568.996C290.202 569.841 285.282 579.727 285.282 579.727L284.367 579.316L282.353 581.975L277.91 580.115L274.795 581.735L270.899 580.209L269.874 577.094L267.067 575.275L267.158 567.02L264.794 562.889L260.905 561.225L259.377 556.687L259.94 554.929L266.143 555.929L270.616 555.377L272.858 551.222L270.776 549.219L271.043 548.023L274.707 547.238L273.251 542.201L271.236 541.38L270.005 544.936L263.736 546.331L262.158 543.913L260.241 544.616L258.947 542.097L253.978 542.709L252.006 540.657L253.026 538.006L247.639 539.256L249.886 534.581L246.01 533.107L241.481 526.576L243.102 523.969L240.116 523.08L235.167 517.144L230.1 515.677L226.507 512.026L232.594 504.579L235.984 504.91C235.984 504.91 237.907 508.57 240.48 509.359C243.054 510.149 244.978 510.156 244.978 510.156L245.637 505.332L253.246 500.332C253.246 500.332 259.371 503.003 260.465 501.3C261.55 499.592 263.419 496.868 263.119 495.406C262.815 493.931 262.73 492.208 263.671 491.207C264.626 490.224 265.863 487.476 267.359 487.105C268.854 486.735 270.395 487.374 270.467 485.982C270.543 484.603 270.424 481.799 271.646 482.034C272.882 482.264 275.027 482.676 275.48 481.379C275.928 480.07 277.03 474.988 278.651 474.337C280.269 473.696 285.607 471.609 286.124 472.299C286.641 472.988 287.236 474.909 288.084 474.138C288.936 473.38 289.385 473.908 289.93 473.012C290.475 472.116 290.153 470.775 291.551 470.404C292.961 470.028 296.15 469.453 295.449 468.18C294.739 466.904 292.357 465.277 293.582 464.589C294.802 463.91 298.272 459.372 297.699 458.397C297.134 457.403 297.019 456.449 297.689 455.783C298.346 455.122 302.527 454.808 302.527 454.808L303.842 457.281L306.272 456.865L311.115 457.306L313.265 460.971L310.743 462.629L310.323 465.593L317.552 470.817C317.552 470.817 326.395 468.396 329.058 469.181C331.72 469.967 335.221 470.848 335.375 471.015C335.523 471.169 335.859 473.299 339.019 474.722C342.178 476.145 343.67 475.904 344.092 477.192C344.522 478.484 343.594 480.762 346.323 480.48C349.062 480.202 348.781 479.304 350.73 480.464C352.692 481.62 353.375 482.014 353.375 482.014C353.375 482.014 351.894 484.696 352.936 485.937C353.969 487.175 357.536 491.173 357.719 491.299L354.979 497.383C354.979 497.383 350.93 498.636 350.881 498.745L350.895 498.762Z" stroke="#FFF3F1" stroke-width="2" stroke-linejoin="round"/>
<path d="M483.36 697.586C482.259 695.992 481.3 695.245 481.971 693.851C482.642 692.457 486.442 690.33 486.009 688.439C485.576 686.548 484.931 687.182 485.599 683.547C486.277 679.915 485.176 676.169 485.176 676.169L478.556 671.72L478.658 666.829C478.658 666.829 484.593 667.164 486.333 664.751C488.064 662.334 489.171 661.593 489.171 661.593L483.688 654.959C483.688 654.959 485.195 649.049 487.113 646.531C489.035 644.004 491.719 640.679 491.634 638.814C491.557 636.952 491.862 627.934 493.376 626.289C494.903 624.639 496.305 624.259 497.019 622.167C497.551 620.623 497.705 619.627 497.282 618.73C497.113 618.404 496.887 618.107 496.572 617.791C495.36 616.614 493.829 614.913 493.829 614.913L470.914 612.966L459.789 621.373L446.581 614.869C446.581 614.869 447.738 592.764 444.467 582.135L415.703 573.4L415.437 573.313C415.437 573.313 408.402 574.646 408.149 574.771C407.888 574.892 405.301 575.511 404 575.207C402.694 574.891 401.993 574.467 400.751 574.636C399.505 574.792 394.339 575.358 393.364 574.332C392.376 573.31 391.503 572.058 389.034 571.447C386.553 570.84 383.612 570.962 383.612 570.962L380.387 579.404L374.164 577.047C374.164 577.047 367.14 579.516 367.283 579.657C367.431 579.788 373.099 587.343 373.099 587.343C373.099 587.343 368.993 590.028 368.731 590.464C368.46 590.897 367.301 593.18 367.076 593.22C366.851 593.26 362.204 592.603 361.532 594.094C360.861 595.586 359.77 601.053 357.553 599.859C355.353 598.651 352.386 597.455 351.375 598.925C350.374 600.399 346.322 606.326 346.437 606.53C346.56 606.716 352.883 613.13 352.91 613.36C352.95 613.585 350.181 619.275 350.181 619.275C350.181 619.275 355.181 623.114 354.908 624.35C354.621 625.591 354.432 629.203 354.432 629.203C354.432 629.203 358.143 630.124 358.826 631.051C359.508 631.978 362.806 635.801 360.182 636.598C357.554 637.404 353.455 638.092 353.455 638.092C353.455 638.092 354.094 643.251 354.266 643.328C354.437 643.406 361.047 642.946 361.216 644.675C361.407 646.403 362.478 646.2 359.821 653.115L363.523 659.425L361.827 666.262L365.431 677.312C365.431 677.312 374.741 681.277 374.639 681.503C374.537 681.729 373.949 684.171 373.949 684.171L371.952 686.381L372.821 690.035L370.537 691.431L371.514 694.655L365.184 698.121L365.874 701.183L372.611 703.945L376.387 701.557L380.777 703.534L380.304 706.714L381.978 707.468L383.822 710.821L388.12 704.928L391.384 700.026L397.477 697.279L407.409 697.446L411.923 699.849C411.923 699.849 414.9 697.808 415.018 697.861C415.127 697.91 422.326 700.881 422.326 700.881L426.264 698.349C426.264 698.349 428.115 700.139 428.224 700.188C428.332 700.237 432.799 699.41 432.799 699.41C432.799 699.41 438.853 711.716 438.979 711.774C439.106 711.831 443.543 712.546 443.543 712.546C443.543 712.546 444.079 715.125 444.188 715.174L447.583 716.703C447.583 716.703 452.485 712.419 456.836 712.041L456.81 707.724L462.774 708.116L466.245 713.756L472.671 707.854L476.708 709.987C476.708 709.987 478.781 713.748 479.288 714.509C479.288 714.509 484.44 699.225 483.334 697.618L483.36 697.586Z" fill="#D9A8A5" stroke="#D9A8A5" stroke-width="3" stroke-linejoin="round"/>
<path d="M503.61 471.584L509.324 462.425L505.973 457.197L510.314 454.281L501.732 440.358L492.863 439.137L490.873 425.399L497.845 419.83L488.109 412.292L489.423 400.379L484.075 390.566L466.478 391.633L456.885 377.973L447.742 373.855L430.869 371.79L428.78 386.8L416.024 383.524L413.415 392.993L401.634 397.028L401.046 407.473L391.598 417.016L390.002 416.232L386.347 414.434L381.741 412.164L368.013 424.172L364.409 446.513L356.728 449.98L355.271 445.138L350.348 445.53C350.348 445.53 348.559 453.782 348.363 453.901C348.168 454.019 342.423 454.107 342.423 454.107L341.516 463.593L335.38 471.028C335.528 471.182 335.864 473.313 339.024 474.735C342.183 476.158 343.675 475.917 344.096 477.205C344.527 478.497 343.599 480.776 346.328 480.493C349.067 480.215 348.786 479.317 350.735 480.477C352.697 481.633 353.379 482.027 353.379 482.027C353.379 482.027 351.899 484.709 352.941 485.951C353.973 487.188 357.541 491.186 357.724 491.312C357.832 491.361 368.716 495.991 368.716 495.991C368.716 495.991 372.517 493.353 373.847 494.268C375.164 495.187 375.494 496.293 377.014 497.293C378.531 498.302 382.627 500.908 383.471 501.984C384.328 503.055 385.904 504.536 387.703 505.303C389.512 506.075 393.715 506.728 395.053 509.027C396.401 511.33 396.576 512.366 397.491 512.778C398.405 513.189 398.959 513.385 399.216 514.555C399.464 515.721 399.203 521.693 401.513 522.777C403.823 523.861 409.804 524.629 409.533 525.932C409.275 527.229 409.528 531.334 410.812 531.553C412.091 531.76 416.884 532.82 416.884 532.82L424.543 533.051L433.038 531.451L438.539 519.238L447.564 525.576L450.671 519.766L448.15 512.379L455.855 504.725L464.339 506.97L469.533 502.448L475.671 506.854L482.263 502.277L487.015 493.707L494.621 491.011L494.561 483.503L489.629 483.478L492.099 465.301L495.803 464.426L503.578 471.558L503.61 471.584Z" stroke="#FFF3F1" stroke-width="2" stroke-linejoin="round"/>
<path d="M241.49 368.364L232.678 375.117C232.678 375.117 227.555 376.724 227.378 374.991C227.178 373.259 224.641 365.038 224.641 365.038L215.521 357.364L212.722 361.258L204.915 361.645L196.501 372.687L186.871 373.156L183.033 378.147L181.494 377.454L175.676 370.234L172.274 370.148L167.481 378.493L161.708 370.543L160.284 370.174L149.963 374.79L139.669 372.187C139.735 370.857 140.2 369.534 140.751 368.336C141.249 367.277 141.679 366.177 142.286 365.167C142.927 364.107 143.291 363.01 143.306 361.767C143.332 360.137 143.152 358.87 142.09 357.576C141.342 356.674 140.355 356.012 139.621 355.105C138.989 354.331 138.244 353.713 137.578 352.967C137.085 352.419 136.682 351.814 136.201 351.238C135.162 350.161 134.242 348.431 134.65 346.897C135.107 345.157 136.247 343.278 137.859 342.384C138.736 341.909 139.638 341.576 140.284 340.769C140.935 339.953 141.368 338.821 141.598 337.805C141.91 336.434 141.541 335.126 140.536 334.141C139.782 333.399 138.77 332.986 138.04 332.212C137.362 331.493 136.79 330.54 136.854 329.503C136.93 328.319 137.621 327.195 138.088 326.134C138.561 325.085 139.082 323.928 139.065 322.757C139.039 321.702 138.398 321.021 138.063 320.098C137.399 318.332 138.2 316.529 139.372 315.208C141.11 313.283 144.062 313.862 146.14 312.439C147.221 311.708 148.263 310.698 148.781 309.475C149.323 308.175 149.126 306.727 149.533 305.388C149.854 304.337 150.469 303.722 151.478 303.317C152.829 302.784 154.423 301.882 154.982 300.47C155.607 298.914 156.293 297.462 156.001 295.742C155.753 294.261 154.683 293.181 154.448 291.694C154.243 290.384 154.625 288.762 155.389 287.671C155.797 287.104 156.495 286.908 156.881 286.342C157.333 285.676 157.405 284.936 157.209 284.163C157.005 283.43 156.457 282.617 156.575 281.822C156.676 281.139 157.529 280.599 158.071 280.289C158.618 279.97 159.225 279.71 159.506 279.086C159.807 278.417 159.088 277.137 158.542 276.706C157.423 275.854 155.887 275.227 155.186 273.955C154.461 272.639 154.44 271.064 154.872 269.671C155.059 269.038 155.287 268.531 155.592 267.951C156.014 267.184 155.587 266.416 155.416 265.61C155.163 264.431 154.82 263.21 155.081 262.002C155.365 260.694 156.464 259.971 157.411 259.126C157.399 259.153 157.351 259.186 157.313 259.223C157.438 259.138 157.639 259.054 157.722 259.016C157.934 258.883 158.16 258.767 158.376 258.625C158.739 258.376 159.095 258.166 159.435 257.895C160.089 257.385 160.808 257.046 161.43 256.488C161.952 256.006 162.402 255.611 163.051 255.305C163.766 254.975 164.353 254.325 164.964 253.839C165.312 253.55 165.898 253.216 165.98 252.743C166.05 252.274 165.795 251.583 165.687 251.121C165.509 250.356 165.47 249.62 165.483 248.843C165.509 248.181 165.523 247.785 165.983 247.296C166.439 246.816 166.856 246.591 167.417 246.289C168.296 245.837 169.531 244.012 169.027 242.98C168.798 242.497 168.316 242.334 168.201 241.793C168.054 241.031 168.113 240.198 168.08 239.401L172.268 236.655C172.268 236.655 175.16 238.403 175.364 239.691C175.364 239.691 177.36 242.754 178.518 242.069C179.695 241.391 182.01 236.541 183.657 234.02C185.303 231.5 187.166 228.598 191.557 228.108L190.222 223.288C190.222 223.288 197.39 218.59 197.497 218.812C197.608 219.025 202.724 228.19 202.806 228.227C202.887 228.263 204.622 227.772 204.622 227.772L204.902 230.269L221.944 227.778L222.53 223.888C222.53 223.888 237.463 221.654 237.543 221.864C237.617 222.06 245.415 228.562 245.505 228.603C245.587 228.64 263.553 219.356 263.553 219.356L269.469 226.456L265.307 231.03L261.712 234.347L262.259 242.901L253.309 253.005L251.386 260.925C251.386 260.925 241.64 260.733 241.513 260.871C241.372 261.014 236.376 269.061 236.376 269.061L237.7 285.511L232.177 288.927L234.057 295.123L219.932 321.24L221.047 325.244L224.951 324.675L227.856 329.202L222.567 332.387L225.893 339.506L231.259 339.803L231.885 340.563L228.762 348.562L231.912 353.003L234.092 353.507L235.604 352.132L241.73 359.154L241.495 368.377L241.49 368.364Z" stroke="#FFF3F1" stroke-width="2" stroke-linejoin="round"/>
<path d="M349.517 175.261C349.606 175.159 351.081 171.474 351.081 171.474L357.047 172.878L358.498 168.954L353.23 163.244C353.23 163.244 352.272 152.146 352.321 152.037C352.37 151.929 354.324 145.85 354.324 145.85L355.044 139.9C355.044 139.9 355.232 132.058 355.341 132.107C355.459 132.16 361.796 130.806 361.796 130.806L362.946 129.172L364.946 127.365L365.428 125.886L362.732 118.452L366.731 115.762L369.706 105.892L365.27 101.187L368.903 96.5056C367.65 96.1695 366.511 95.9176 365.192 96.3565C364.395 96.628 363.628 96.9027 362.796 97.0824C362.329 97.1765 361.837 97.205 361.371 97.2236C361.061 97.236 360.745 97.2132 360.441 97.1853C360.414 97.1731 360.32 97.1635 360.302 97.1554C358.943 97.152 357.451 97.3935 356.132 97.7126C355.815 97.7874 355.352 97.7748 355.055 97.902C354.702 98.0582 354.386 98.4703 354.079 98.6911C352.976 99.5208 352.002 100.572 350.841 101.288C349.455 102.165 348.087 103.027 346.701 103.904C346.104 104.287 345.59 104.654 344.945 104.95C344.505 105.154 344.121 105.449 343.72 105.736C342.719 106.46 341.623 107.249 340.449 107.655C339.376 108.031 338.658 109.045 337.64 109.565C336.448 110.181 335.111 110.394 333.867 110.834C332.878 111.194 331.956 111.692 331.012 112.169C329.106 113.137 327.225 113.519 325.094 113.679C323.89 113.767 322.743 113.751 321.52 113.711C320.496 113.663 319.411 113.871 318.396 113.707C315.664 113.27 312.887 113.053 310.202 112.366C309.615 112.22 308.939 112.221 308.369 112.399C307.247 112.763 306.267 113.366 305.054 113.45C303.91 113.522 302.936 112.833 301.822 112.745C301.006 112.671 300.259 112.443 299.455 112.342C298.593 112.226 297.824 112.336 296.986 112.046C295.816 111.671 294.659 111.193 293.515 110.711C292.602 110.321 291.654 109.644 290.654 109.64C290.055 109.642 289.461 109.798 288.872 109.946C288.234 110.083 287.586 110.313 286.945 110.068C286.403 109.867 286.032 109.58 285.433 109.604C284.719 109.642 283.997 109.697 283.298 109.654C282.572 109.599 281.9 109.133 281.203 108.939C280.358 108.711 279.497 108.279 278.611 108.359C277.858 108.411 277.102 108.375 276.355 108.267C275.685 108.161 274.929 108.049 274.245 108.045C273.734 108.043 273.317 108.051 272.788 107.943C272.264 107.849 271.728 107.781 271.197 107.705C270.839 107.653 270.503 107.48 270.15 107.418C269.264 107.281 268.405 107.883 267.49 107.764C266.815 107.667 266.129 107.304 265.478 107.13C264.795 106.953 264.033 106.686 263.343 106.745C262.639 106.808 262.012 106.798 261.292 106.778C260.584 106.753 259.898 107.02 259.221 107.194C258.307 107.434 256.913 107.459 256.044 107.067C255.51 106.827 254.942 106.517 254.363 106.376C253.69 106.225 253.056 106.255 252.38 106.353C251.722 106.437 251.106 106.159 250.445 106.275C249.867 106.373 249.495 106.521 248.897 106.447C248.401 106.387 247.768 106.439 247.297 106.227C246.827 106.015 246.49 105.722 245.946 105.673C245.353 105.613 244.819 105.589 244.206 105.476C243.485 105.337 243.618 105.669 243.24 106.096C243.05 106.326 242.729 106.312 242.524 106.502C242.361 106.646 242.308 106.862 242.222 107.051C242.023 107.494 242.179 107.945 241.974 108.353C241.582 109.101 241.21 108.574 240.649 108.561C239.836 108.554 239.47 110.335 239.177 110.888C238.59 112.07 237.721 113.201 236.671 114.011C236.21 114.358 235.716 114.462 235.176 114.621C234.632 114.767 234.145 115.026 233.572 115.138C232.333 115.374 231.092 115.663 229.865 115.969C229.364 116.091 228.914 116.172 228.509 116.489C228.066 116.822 227.603 117.125 227.146 117.463C225.721 118.474 224.862 120.164 224.07 121.656C223.72 122.313 223.453 122.954 223.002 123.545C222.369 124.369 221.878 125.29 221.242 126.123C220.82 126.672 220.301 127.221 219.81 127.707C219.323 128.184 218.63 128.078 218.041 127.911C217.34 127.726 216.772 127.611 216.138 128.098C215.526 128.539 215.069 129.432 214.84 130.134C214.729 130.453 214.769 130.776 214.694 131.111C214.628 131.451 214.428 131.775 214.29 132.082C213.984 132.76 213.691 133.411 213.449 134.117C213.198 134.82 213.126 135.44 213.276 136.17C213.417 136.799 213.619 137.173 213.904 137.725C214.102 138.108 214.213 138.539 214.428 138.907C214.582 139.194 214.807 139.372 214.746 139.725C214.655 140.336 213.908 140.641 213.632 141.158C213.304 141.717 213.229 142.391 212.943 142.979C212.82 143.25 212.687 143.886 212.435 144.034C212.174 144.177 211.907 143.948 211.652 143.887C211.269 143.454 210.829 143.006 210.823 142.416C210.795 140.761 211.789 139.133 211.347 137.455C211.158 136.739 210.61 136.383 210.044 135.998C209.481 135.603 209.104 135.183 208.768 134.575C208.451 133.997 208.112 133.54 207.559 133.15C207.041 132.775 206.362 132.47 205.998 131.925C205.548 131.255 205.605 130.258 205.494 129.49C205.334 128.418 205.043 127.276 204.316 126.448C203.85 125.912 203.213 125.56 202.76 125.019C202.311 124.469 202.017 123.815 201.83 123.143C201.568 122.275 201.373 121.328 200.84 120.577C200.392 119.929 199.833 119.841 199.573 120.659C199.38 121.257 199.39 121.816 199.012 122.341C198.582 122.909 198.489 123.357 198.47 124.076C198.455 124.689 198.517 125.544 197.713 125.562C197.03 125.581 196.282 125.114 195.705 124.799C195.402 125.304 195.518 125.868 195.722 126.405C196.028 127.25 196.406 128.127 196.804 128.937C197.18 129.672 197.634 130.333 197.867 131.144C198.257 132.527 198.539 134.296 198.12 135.684C197.767 136.83 197.328 137.806 197.48 139.016C197.673 140.593 197.97 142.086 197.836 143.689C197.776 144.402 197.761 145.112 197.531 145.792C197.341 146.336 196.996 146.812 196.773 147.331C196.541 147.846 196.311 148.308 196.024 148.777C195.582 149.491 195.342 150.362 195 151.121C194.443 152.36 194.035 153.579 193.739 154.913C193.603 155.505 193.381 156.046 193.295 156.649C193.199 157.345 193.06 158.065 192.875 158.743C192.512 160.08 192.131 161.507 192.019 162.892C191.911 164.267 191.638 165.623 191.261 166.943C191.077 167.545 190.978 168.055 190.667 168.6C190.298 169.228 189.905 169.834 189.521 170.444C188.622 171.909 187.466 173.508 185.926 174.413C185.553 174.637 185.151 174.804 184.754 174.962C184.298 175.126 183.964 175.095 183.486 175.141C183.051 175.163 182.589 175.27 182.158 175.358C181.938 175.411 181.694 175.421 181.528 175.499C180.625 175.908 180.589 177.196 180.543 178.024C180.478 179.136 180.718 180.223 180.671 181.343C180.646 181.713 180.706 182.207 180.618 182.548C180.51 182.934 180.132 183.264 179.86 183.555C179.46 183.984 179.004 184.344 178.609 184.786C178.222 185.209 178.079 185.308 177.496 185.491C176.842 185.686 176.215 185.893 175.575 186.083C175.1 186.217 174.619 186.392 174.13 186.487C173.658 186.59 173.371 186.841 172.931 187.045C172.508 187.235 172.022 187.321 171.604 187.524C171.134 187.747 170.706 188.044 170.288 188.345C169.444 188.911 168.906 189.745 168.35 190.593C168.094 190.967 167.852 191.358 167.601 191.723C167.329 192.133 167.229 192.621 166.93 193.019C166.231 193.966 165.335 194.215 164.213 194.144C163.665 194.104 163.188 193.954 162.646 193.852C162.024 193.735 161.404 193.782 160.781 193.664C160.459 193.606 160.202 193.404 159.885 193.358C159.705 193.321 159.418 193.355 159.237 193.371C158.309 193.399 157.386 193.516 156.458 193.642C155.786 193.731 154.831 193.725 154.692 194.565C154.592 195.15 154.745 195.752 154.901 196.301C155.131 197.144 155.271 198.066 155.058 198.926C154.738 200.217 153.881 200.451 152.945 201.128C151.733 202.006 151.375 203.694 151.282 205.087C151.26 205.327 151.262 205.589 151.219 205.831C151.134 206.478 151.195 207.407 151.638 207.922C151.829 208.15 152.097 208.281 152.279 208.505C152.555 208.836 152.679 209.261 152.911 209.616C153.237 210.078 153.445 210.606 153.805 211.04C154.753 212.152 155.996 213.017 156.771 214.246C157.247 215.004 157.928 215.594 158.499 216.286C158.919 216.779 159.132 217.419 159.299 218.038C160.191 221.158 160.326 224.535 161.805 227.441C162.147 228.106 162.333 228.636 162.43 229.364C162.534 230.172 162.772 230.975 163.222 231.667C163.63 232.286 164.042 232.385 164.633 232.716C165.543 233.235 166.22 234.344 166.714 235.23C167.386 236.446 167.919 237.534 168.065 238.926C168.079 239.063 168.09 239.209 168.099 239.333L172.287 236.587C172.287 236.587 175.18 238.336 175.384 239.624C175.384 239.624 177.38 242.687 178.538 242.001C179.714 241.324 182.029 236.473 183.676 233.953C185.323 231.433 187.185 228.531 191.576 228.04L190.241 223.22C190.241 223.22 197.409 218.522 197.516 218.744C197.627 218.957 202.744 228.123 202.825 228.159C202.907 228.196 204.641 227.705 204.641 227.705L204.922 230.202L221.963 227.71L222.55 223.821C222.55 223.821 237.482 221.586 237.562 221.796C237.637 221.993 245.434 228.495 245.524 228.536C245.606 228.572 263.572 219.288 263.572 219.288L269.488 226.389L265.327 230.963L271.224 235.543L286.305 237.257L287.751 235.571L290.732 230.281L295.619 227.578L303.165 228.834L306.535 225.002C306.535 225.002 311.144 228.405 311.314 228.438C311.484 228.471 312.636 226.01 312.636 226.01L313.119 223.39L320.346 221.197L317.322 212.148C317.322 212.148 310.588 206.647 310.383 205.772C310.174 204.906 309.208 202.459 310.305 200.844C311.403 199.229 313.205 197.257 315.743 198.03C318.28 198.803 329.524 201.399 329.524 201.399L335.004 190.971L344.71 193.331L346.7 187.268L352.28 181.311C352.28 181.311 349.459 175.365 349.524 175.22L349.517 175.261Z" stroke="#FFF3F1" stroke-width="2" stroke-linejoin="round"/>
<path d="M559.553 159.415C559.212 159.011 558.173 159.359 557.755 159.465C557.046 159.613 556.6 159.684 555.946 160.096C555.829 160.163 555.116 160.635 555.105 160.489C554.419 161.094 553.71 161.677 553.014 162.255C552.383 162.786 551.841 163.434 551.145 163.892C550.478 164.331 549.771 164.622 549.129 165.104C547.44 166.388 545.627 167.779 543.618 168.516C542.834 168.804 541.989 168.989 541.208 169.322C540.509 169.616 539.821 169.959 539.156 170.323C538.582 170.63 538.002 171.097 537.361 171.287C536.163 171.65 534.894 172.002 533.656 172.26C531.336 172.77 529.007 173.396 526.675 173.835C525.833 173.989 524.979 174.072 524.132 174.114C522.629 174.188 521.128 174.088 519.629 173.935C518.879 173.858 518.143 173.777 517.401 173.682C516.714 173.589 516.135 173.351 515.457 173.187C514.452 172.93 513.396 172.639 512.358 172.574C511.663 172.522 511.053 172.812 510.369 172.809C509.493 172.795 508.594 172.542 507.73 172.381C506.655 172.18 505.624 171.933 504.601 171.592C503.759 171.311 502.868 171.138 502.042 170.82C500.872 170.369 499.765 169.903 498.536 169.611C497.44 169.335 496.39 168.862 495.297 168.63C494.396 168.431 494.166 169.111 493.565 169.623C493.393 169.763 492.956 170.153 492.733 169.922C492.488 169.692 492.885 168.958 492.973 168.736C493.126 168.349 493.425 167.831 493.3 167.383C493.19 166.997 492.764 166.783 492.453 166.556C491.703 166.044 491.033 165.525 490.145 165.321C489.607 165.187 488.569 164.807 488.532 165.638C488.492 166.599 489.053 167.721 489.348 168.615C489.429 168.869 490.044 170.429 489.373 170.105C488.847 169.847 488.514 168.773 488.295 168.293C487.945 167.57 487.78 166.898 487.658 166.104C487.468 164.811 486.92 162.835 485.739 162.097C485.009 161.638 484.419 160.991 483.698 160.536C482.539 159.797 481.94 158.396 481.608 157.126C481.418 156.411 481.049 154.57 479.913 155.015C479.357 155.232 478.915 155.827 478.465 155.037C478.278 154.703 478.204 154.289 478.043 153.944C477.76 153.339 477.391 152.781 477.069 152.19C476.646 151.413 476.039 150.487 476.015 149.574C475.992 148.585 476.307 147.693 476.751 146.828C476.949 146.46 477.256 146.044 477.346 145.628C477.426 145.305 477.32 145.007 477.28 144.685C477.171 143.864 477.498 143.163 477.8 142.418C478.119 141.638 478.887 141.07 479.116 140.271C479.332 139.574 479.341 138.611 478.834 138.045C478.793 136.853 479.592 135.733 479.311 134.52C479.202 134.036 479.268 133.478 479.323 132.992C479.4 132.363 479.801 131.859 479.748 131.204C479.202 130.676 478.62 130.131 478.206 129.477C477.397 128.156 478.119 126.915 478.523 125.607C479.028 123.954 478.742 122.509 477.895 121.03C477.172 119.758 476.508 118.644 477.24 117.212C477.606 116.496 478.094 115.824 478.666 115.255C479.353 114.575 480.065 114.374 481.015 114.247C481.175 114.472 481.595 114.53 481.817 114.739C482.094 114.994 482.286 115.342 482.52 115.643C483.058 116.309 483.526 117.085 484.098 117.724C485.16 118.92 486.294 120.224 487.061 121.613C487.455 122.334 487.902 122.818 488.441 123.409C488.94 123.971 489.178 124.698 489.551 125.322C490.273 126.572 491.517 127.459 492.381 128.587C492.939 129.306 493.334 130.049 493.644 130.884C493.785 131.296 493.833 131.6 493.874 132.043C493.921 132.542 494.2 132.962 494.326 133.432C494.451 133.879 494.397 134.387 494.398 134.867C494.404 135.87 494.394 136.931 494.907 137.847C495.65 139.171 496.686 138.539 496.987 137.316C497.869 133.69 495.494 130.38 493.436 127.67C490.393 123.668 487.8 119.369 484.559 115.517C483.022 113.683 481.503 111.858 480.125 109.889C478.879 108.11 477.563 106.462 475.702 105.276C472.098 102.979 467.615 102.754 463.677 101.296C462.161 100.744 460.689 100.168 459.113 99.8712C456.633 99.4065 454.06 99.0521 451.544 98.8108C450.741 98.7319 449.988 98.4691 449.165 98.4354C446.81 98.3208 444.404 98.6832 442.05 98.3733C440.768 98.1982 439.561 97.5895 438.242 97.4735C437.858 97.4312 437.448 97.3987 437.059 97.3432C436.764 97.2973 436.501 97.1791 436.218 97.106C435.347 96.8657 434.446 96.7863 433.57 96.6526C432.783 96.5375 432.052 96.1539 431.257 96.0348C430.787 95.9648 430.338 95.9472 429.878 95.9034C428.951 95.8118 428.223 95.397 427.26 95.5287C426.362 95.6355 425.52 95.4739 424.655 95.2688C423.798 95.0677 423.01 94.5932 422.156 94.361C421.72 94.2408 421.317 94.0483 420.91 93.8648C420.077 93.4898 419.457 93.6565 418.59 93.7444C417.749 93.8224 416.785 93.3771 416.033 93.0387C415.463 92.7819 415.017 92.5157 414.386 92.634C413.518 92.7974 412.834 93.3485 411.921 93.3939C410.808 93.4472 409.713 92.9539 408.671 92.6804C408.042 92.5058 407.478 92.3063 406.819 92.2705C406.316 92.2506 405.771 92.2768 405.272 92.3456C404.808 92.4085 404.456 92.609 404.02 92.7063C403.523 92.8194 402.637 93.2142 402.186 93.0326C400.555 93.3418 398.989 93.7239 397.405 94.2177C397.006 94.3313 396.647 94.572 396.248 94.7078C395.814 94.8494 395.314 94.896 394.865 94.9983C394.254 95.147 393.549 95.1884 393.055 95.5855C392.603 95.9586 392.26 96.4561 391.817 96.8111C391.327 97.2213 390.744 97.5242 390.125 97.691C389.25 97.9167 388.385 97.8536 387.502 97.9777C386.774 98.0956 386.098 98.2912 385.365 98.3959C384.194 98.5537 383.087 98.9796 381.94 99.1586C381.587 99.2171 381.206 99.2633 380.868 99.3611C380.412 99.5036 380.171 99.6997 379.687 99.688C379.269 99.6736 378.834 99.6954 378.42 99.672C377.574 99.617 376.682 99.2265 375.844 99.0336C375.013 98.8227 374.177 98.5765 373.407 98.2299C372.747 97.9545 372.113 97.6469 371.461 97.3534C370.764 97.0395 370.086 96.8757 369.359 96.6784C369.193 96.6362 369.03 96.585 368.873 96.5468L365.241 101.228L369.677 105.933L366.701 115.804L362.702 118.493L365.398 125.927L364.917 127.406L362.916 129.213L361.766 130.848C361.766 130.848 355.429 132.202 355.311 132.149C355.203 132.1 355.014 139.941 355.014 139.941L354.294 145.891C354.294 145.891 352.34 151.97 352.292 152.078C352.243 152.187 353.201 163.285 353.201 163.285L358.469 168.995L357.017 172.919L351.051 171.515C351.051 171.515 349.576 175.201 349.487 175.302C349.422 175.447 352.243 181.392 352.243 181.392L346.664 187.35L344.674 193.413L345.113 207.257L347.526 211.909L349.214 212.876L352.816 212.204L363.608 216.238L366.563 221.353L372.088 218.927L375.922 212.324L379.511 211.462L381.226 216.214L388.911 219.675L393.374 220.38L398.978 217.076L394.561 210.998L397.436 209.064C397.436 209.064 404.912 210.332 404.92 210.314C404.838 210.277 407.552 205.389 407.461 205.348L412.487 207.1L413.998 211.456L415.349 212.64L421.921 209.12L430.388 215.271L431.752 220.343L445.601 226.678C445.601 226.678 447.5 230.926 447.495 231.032C447.604 231.081 454.555 228.243 454.555 228.243L458.186 232.39L455.839 238.302L466.514 244.893L470.914 244.94L478.217 245.021L484.534 239.069L492.482 237.016L492.51 231.44L496.795 228.26L504.501 232.524L516.471 221.442L515.634 219.869L509.912 216.302L505.368 219.671L503.73 213.758L504.281 208.036L500.026 206.12C499.945 206.084 500.66 195.793 500.66 195.793L506.681 183.826C506.408 183.562 506.195 183.259 505.843 183.003C506.005 182.304 507.317 182.873 507.823 182.764C508.646 182.58 508.63 181.746 509.063 181.148C509.436 180.609 510.091 180.219 510.589 179.791C511.108 179.339 511.379 178.907 511.309 178.191C511.257 177.775 511.235 177.364 510.977 177.019C510.789 176.76 510.373 176.595 510.254 176.302C509.95 175.599 511.139 175.232 511.614 175.12C512.894 174.794 513.796 175.668 514.769 176.335C516.007 177.164 517.23 177.182 518.599 176.657C519.884 176.148 521.235 175.18 522.685 175.344C523.864 175.483 524.712 176.452 525.855 176.695C527.37 177.03 528.879 176.024 530.134 175.317C531.559 174.523 533.066 173.691 534.741 173.695C535.793 173.68 536.843 174.13 537.912 173.981C538.897 173.849 539.741 173.207 540.568 172.677C541.438 172.123 542.343 171.66 543.247 171.176C544.312 170.601 545.319 169.913 546.36 169.294C547.47 168.642 548.614 168.156 549.823 167.744C550.783 167.426 551.657 167.058 552.359 166.32C553.19 165.444 553.849 164.414 554.726 163.58C555.641 162.709 556.752 162.079 557.658 161.204C558.043 160.834 560.087 160.21 559.485 159.493L559.553 159.415Z" stroke="#FFF3F1" stroke-width="2" stroke-linejoin="round"/>
<path d="M413.411 393.002L401.631 397.037L401.042 407.482L391.594 417.025L381.746 412.177L368.018 424.185L364.414 446.526L356.733 449.993L355.277 445.151L350.353 445.543C350.353 445.543 348.564 453.795 348.369 453.914C348.174 454.033 342.429 454.12 342.429 454.12L341.521 463.606L335.385 471.041C335.231 470.874 331.73 469.993 329.068 469.208C326.396 468.418 317.562 470.843 317.562 470.843L310.333 465.619L310.753 462.655L313.275 460.997L311.125 457.332L306.283 456.891L305.15 452.031L303.064 449.168L306.296 447.046L308.135 444.025L309.478 435.844L301.264 431.188L300.782 419.565L307.61 418.595L309.768 410.444L295.64 399.069L289.165 400.002L285.595 404.57L281.404 402.27L275.978 403.947L270.013 400.097L264.459 400.825L260.925 390.513L255.074 385.953L257.137 377.553L250.822 370.371L241.481 368.36L241.715 359.137L235.59 352.115L234.078 353.489L231.898 352.986L228.748 348.545L231.871 340.546L231.245 339.785L225.879 339.489L222.553 332.37L227.842 329.185L224.937 324.658L221.033 325.227L219.918 321.223L234.043 295.106L232.162 288.91L237.686 285.493L236.362 269.044C236.362 269.044 241.362 260.988 241.499 260.854C241.63 260.706 251.372 260.908 251.372 260.908L253.295 252.988L262.245 242.883L261.698 234.33L265.293 231.013L271.19 235.593L286.272 237.308L287.717 235.621L290.699 230.331L295.585 227.628L303.132 228.885L306.502 225.053C306.502 225.053 311.111 228.455 311.281 228.488C311.451 228.521 312.603 226.061 312.603 226.061L313.086 223.44L320.313 221.248L317.289 212.198C317.289 212.198 310.554 206.697 310.35 205.822C310.141 204.956 309.174 202.509 310.272 200.894C311.369 199.279 313.172 197.307 315.709 198.08C318.247 198.853 329.491 201.449 329.491 201.449L334.971 191.022L344.677 193.381L345.117 207.225L347.529 211.878L349.217 212.845L352.819 212.173L363.611 216.207L366.567 221.322L356.822 228.089L362.292 237.196L356.814 250.376L347.001 267.692L350.986 273.107L355.01 282.063L351.455 294.141L345.768 294.146L344.204 303.423L348.421 306.366L355.907 307.03L357.752 314.95L364.287 314.196L372.924 321.783L373.091 326.392L386.158 340.922L393.332 337.009L397.851 345.905L402.342 344.492L410.949 351.347L410.738 356.602C410.738 356.602 412.977 366.983 416.433 366.854C419.883 366.712 427.305 365.803 427.305 365.803L430.847 371.791L428.758 386.801L416.002 383.525L413.393 392.994L413.411 393.002Z" stroke="#FFF3F1" stroke-width="2" stroke-linejoin="round"/>
<path d="M306.274 456.887L303.843 457.303L302.528 454.83C302.528 454.83 298.348 455.144 297.691 455.805C297.02 456.471 297.131 457.434 297.7 458.419C298.269 459.403 294.804 463.932 293.583 464.611C292.35 465.295 294.74 466.926 295.45 468.202C296.16 469.479 292.972 470.054 291.552 470.426C290.154 470.797 290.467 472.134 289.931 473.034C289.386 473.93 288.938 473.402 288.085 474.16C287.228 474.927 286.642 473.01 286.125 472.321C285.617 471.635 280.27 473.718 278.652 474.359C277.031 475.01 275.929 480.092 275.481 481.401C275.024 482.707 272.883 482.286 271.647 482.056C270.425 481.821 270.544 484.625 270.468 486.004C270.396 487.396 268.85 486.744 267.36 487.127C265.865 487.498 264.618 490.242 263.672 491.229C262.726 492.217 262.816 493.953 263.12 495.428C263.42 496.889 261.551 499.614 260.466 501.322C259.372 503.025 253.247 500.354 253.247 500.354L245.638 505.354L244.979 510.178C244.979 510.178 243.055 510.171 240.481 509.381C237.908 508.592 235.985 504.932 235.985 504.932L232.595 504.601L226.508 512.048L225.062 510.592L222.888 513.364L225.187 517.835L223.552 520.861L224.313 522.531L224.016 524.593L226.047 523.953L228.038 529.612L225.13 531.695L227.444 536.227L224.642 537.249L222.931 532.999L220.956 535.545L219.569 533.137L215.267 535.147L210.685 533.812L208.082 537.271L202.027 540.416L198.786 538.956L192.63 529.899L194.383 523.273L193.294 512.975L188.862 511.718C188.862 511.718 188.424 504.736 188.473 504.628C188.522 504.519 184.129 503.683 184.129 503.683L183.361 496.323L185.005 492.671L188.049 493.77L196.527 491.63L198.371 485.817L201.757 487.342L202.942 484.711L199.304 476.299L193.534 473.516L191.337 476.049L188.069 475.545L188.817 472.989L184.254 470.162L181.584 470.602L180.752 473.152L176.74 473.911L175.938 471.027L177.408 470.591L177.72 463.588L175.05 462.385L170.83 464.018L169.068 462.127L171.043 459.265L169.484 453.757L165.885 454.615L159.639 451.802L159.097 448.122L151.22 444.216L148.776 440.092L144.078 441.554L142.885 438.907L146.443 436.302L146.062 433.281L144.043 432.709C143.777 431.513 143.574 430.367 143.511 429.153C143.445 428.21 142.974 427.443 143.111 426.461C143.196 425.815 143.593 424.982 143.916 424.41C144.231 423.856 144.87 423.622 145.236 423.123C145.756 422.379 145.696 421.787 145.51 420.942C145.426 420.523 145.259 420.242 145.08 419.867C144.828 419.362 144.837 418.714 144.519 418.234C144.126 417.633 143.594 416.904 142.878 416.657C142.341 416.47 142.088 416.573 141.62 416.765C141.371 416.859 140.956 416.934 140.689 416.802C140.236 416.598 140.128 415.799 139.955 415.385C139.798 415.009 139.646 414.549 139.441 414.207C138.978 413.444 137.883 414.038 137.423 414.527C136.156 412.336 134.41 409.201 131.349 410.171C128.424 411.105 130.366 414.143 129.601 416.18C129.214 417.234 128.103 417.451 127.129 417.752C125.989 418.108 125.458 418.804 125.046 419.913C124.613 421.066 124.24 422.692 123.062 423.325C121.849 423.964 120.608 422.851 119.756 422.108C118.705 421.178 117.71 420.317 116.388 419.819C115.734 419.579 114.514 419.41 114.799 418.462C115.206 417.101 116.916 415.914 117.957 415.078C119.355 413.957 120.851 412.979 122.241 411.876C123.316 411.011 124.297 410.018 125.017 408.831C125.691 407.721 126.075 406.48 126.582 405.284C127.138 404.001 127.966 402.961 129.03 402.048C130.137 401.09 131.396 400.276 132.267 399.092C133.079 397.989 133.358 396.669 133.843 395.398C134.426 393.91 135.386 392.722 136.573 391.658C137.785 390.562 139.152 389.558 140.054 388.159C140.912 386.86 141.214 385.343 141.288 383.8C141.358 382.266 141.05 380.605 140.823 379.078C140.569 377.322 140.218 375.587 139.796 373.864C139.671 373.319 139.635 372.77 139.675 372.222L149.969 374.825L160.29 370.209L161.714 370.578L167.487 378.528L172.279 370.183L175.681 370.269L181.5 377.489L183.039 378.182L186.877 373.191L196.507 372.722L204.92 361.68L212.728 361.293L215.526 357.399L224.647 365.073C224.647 365.073 227.193 373.298 227.384 375.026C227.552 376.755 232.684 375.152 232.684 375.152L241.492 368.408L250.837 370.41L257.152 377.592L255.089 385.992L260.94 390.552L264.474 400.864L270.028 400.136L275.993 403.986L281.419 402.309L285.61 404.609L289.18 400.041L295.655 399.108L309.783 410.483L307.625 418.635L300.797 419.604L301.279 431.227L309.493 435.884L308.15 444.064L306.311 447.085L303.079 449.207L305.165 452.071L306.298 456.93L306.274 456.887Z" fill="#D9A8A5" stroke="#D9A8A5" stroke-width="3" stroke-linejoin="round"/>
<path d="M675.927 457.094C675.129 457.561 672.757 459.102 672.879 457.744C673.006 456.398 673.424 454.553 672.401 453.244C671.383 451.927 668.803 447.742 664.918 445.829C661.036 443.907 658.272 441.944 656.831 441.807C655.382 441.665 654.462 442.425 653.184 441.056C651.906 439.686 650.44 436.318 649.191 436.408C647.941 436.498 645.597 438.052 646.04 436.707C646.473 435.358 647.786 434.884 647.178 433.479C646.578 432.079 644.876 430.66 645.839 429.441C646.798 428.23 648.601 425.291 647.417 423.181C646.237 421.062 643.205 412.466 643.205 412.466C643.205 412.466 649.352 408.439 649.608 406.347C649.86 404.264 650.658 401.503 651.03 400.507C651.411 399.515 652.857 395.773 651.083 394.974C649.308 394.175 647.21 393.806 646.462 394.644C645.71 395.469 645.292 395.694 644.174 394.744C643.055 393.795 640.988 392.896 641.007 391.089C641.03 389.273 641.071 388.432 641.214 388.333C641.36 388.226 645.648 387.482 646.104 385.937C646.561 384.392 647.468 384.213 645.973 383.399C644.487 382.588 641.543 381.196 640.381 381.913C639.233 382.625 637.741 382.964 636.893 382.647C636.041 382.339 632.656 382.457 632.187 380.669C631.718 378.881 630.542 373.926 630.58 371.714C630.613 369.489 631.129 367.982 630.306 367.198C629.492 366.418 626.104 363.859 626.104 363.859C626.104 363.859 627.813 359.725 627.903 359.864C627.915 359.837 624.143 349.765 622.765 348.666C621.369 347.559 619.28 345.477 619.694 344.195C620.099 342.909 620.187 342.351 620.027 340.844C619.885 339.345 621.065 335.179 620.585 333.44C620.091 331.707 616.412 326.386 618.47 324.018C620.527 321.65 622.878 319.718 623.08 318.059C623.267 316.436 623.09 310.615 623.078 310.327C621.768 310.433 619.181 309.985 615.527 309.71C610.941 309.351 604.347 311.47 604.347 311.47C604.347 311.47 598.225 308.887 598.053 308.81C597.881 308.732 584.375 314.762 584.375 314.762C584.375 314.762 581.119 309.686 578.822 308.934C576.521 308.17 575.503 310.43 575.046 312.072C574.576 313.72 572.883 313.055 571.592 313.409C570.304 313.753 563.655 310.65 562.778 310.396C561.892 310.139 561.134 310.928 559.026 312.175C556.918 313.422 551.622 314.81 551.622 314.81C551.622 314.81 544.568 311.155 544.478 311.114C544.396 311.077 542.388 311.717 540.862 312.301C539.326 312.882 537.726 320.012 537.726 320.012C537.726 320.012 532.628 317.89 531.784 317.782C530.94 317.673 523.403 313.278 522.046 312.156C520.698 311.038 515.426 312.132 515.426 312.132L510.212 304.391C510.212 304.391 509.384 304.464 508.645 304.751C507.897 305.034 506.746 304.374 505.768 304.564C504.793 304.745 504.96 306.527 504.278 307.873C503.608 309.213 498.554 304.164 498.554 304.164L501.034 298.659L488.195 301.902L488.15 314.646L472.789 314.59L470.582 323.142L470.066 337.73L459.656 343.752L460.435 351.04L447.739 366.536L447.734 373.873L456.877 377.991L466.47 391.651L484.068 390.584L489.415 400.397L488.101 412.31L497.838 419.848L490.865 425.417L492.855 439.155L501.724 440.376L510.306 454.299L505.965 457.215L509.316 462.443L503.602 471.602L495.828 464.469L492.123 465.345L489.653 483.522L494.586 483.547L494.645 491.054L487.039 493.75L482.287 502.32L486.819 502.024L487.873 510.055L495.53 518.103L494.243 521.71L504.096 528.072L518.882 530.055L521.779 537.96L531.61 542.388L535.342 554.844C535.342 554.844 538.939 547.341 542.164 547.967C545.384 548.602 547.63 548.787 548.255 550.156C548.867 551.53 553.965 557.327 556.634 559.018C556.634 559.018 557.874 553.531 559.072 552.081C560.274 550.621 560.908 547.689 561.271 546.134C561.625 544.575 562.049 542.57 563.535 541.108C565.012 539.642 567.219 537.352 568.537 534.717C569.863 532.085 571.726 531.14 569.222 528.915C566.719 526.689 567.792 522.638 569.659 522.457C571.53 522.267 573.464 523.486 574.044 521.279C574.628 519.063 574.311 518.148 574.861 516.612C575.411 515.077 575.441 512.568 576.263 511.057C577.085 509.546 577.946 508.433 576.833 508.389C575.703 508.336 569.754 508.125 568.373 506.503C566.995 504.871 562.993 498.404 563.611 497.541C564.233 496.668 566.277 495.077 567.181 496.213C568.081 497.358 570.361 501.266 572.329 501.369C574.297 501.473 577.241 501.657 578.43 500.855C579.605 500.058 583.672 496.855 585.15 496.618C586.637 496.364 585.512 496.227 585.042 494.417C584.572 492.607 582.878 489.962 584.862 489.932C586.843 489.911 589.145 489.077 589.145 489.077L586.635 481.814L592.614 468.948L605.055 467.461L623.681 475.665L634.213 471.623L639.922 476.162C639.922 476.162 643.577 469.979 645.391 469.698C647.219 469.412 648.235 469.598 649.115 470.592C649.996 471.587 654.342 478.209 656.983 476.332C659.62 474.443 660.06 471.944 662.329 471.183C664.599 470.422 670.944 469.343 672.418 467.496C673.897 465.639 677.848 459.622 677.848 459.622C677.31 458.423 676.552 456.745 675.915 457.121L675.927 457.094Z" fill="#D9A8A5" stroke="#D9A8A5" stroke-width="3" stroke-linejoin="round"/>
</svg>
