<svg width="127" height="91" viewBox="0 0 127 91" fill="none" xmlns="http://www.w3.org/2000/svg">
<path opacity="0.5" d="M48.2699 15L44.5312 10.0398H43.6903V15H41.2301V3.36364H43.6903V8.01136H44.1847L48.0483 3.36364H51.1108L46.571 8.76136L51.321 15H48.2699ZM52.5128 18.2727V6.27273H54.8991V7.73864H55.0071C55.1132 7.50379 55.2666 7.26515 55.4673 7.02273C55.6719 6.77652 55.937 6.57197 56.2628 6.40909C56.5923 6.24242 57.0014 6.15909 57.4901 6.15909C58.1264 6.15909 58.7135 6.32576 59.2514 6.65909C59.7893 6.98864 60.2192 7.48674 60.5412 8.15341C60.8632 8.81629 61.0241 9.64773 61.0241 10.6477C61.0241 11.6212 60.867 12.4432 60.5526 13.1136C60.242 13.7803 59.8177 14.286 59.2798 14.6307C58.7457 14.9716 58.1473 15.142 57.4844 15.142C57.0147 15.142 56.6151 15.0644 56.2855 14.9091C55.9598 14.7538 55.6927 14.5587 55.4844 14.3239C55.276 14.0852 55.117 13.8447 55.0071 13.6023H54.9332V18.2727H52.5128ZM54.8821 10.6364C54.8821 11.1553 54.9541 11.608 55.098 11.9943C55.242 12.3807 55.4503 12.6818 55.723 12.8977C55.9957 13.1098 56.3272 13.2159 56.7173 13.2159C57.1113 13.2159 57.4446 13.108 57.7173 12.892C57.9901 12.6723 58.1965 12.3693 58.3366 11.983C58.4806 11.5928 58.5526 11.1439 58.5526 10.6364C58.5526 10.1326 58.4825 9.68939 58.3423 9.30682C58.2022 8.92424 57.9957 8.625 57.723 8.40909C57.4503 8.19318 57.1151 8.08523 56.7173 8.08523C56.3234 8.08523 55.9901 8.18939 55.7173 8.39773C55.4484 8.60606 55.242 8.90151 55.098 9.28409C54.9541 9.66667 54.8821 10.1174 54.8821 10.6364ZM65.1264 15.1648C64.5696 15.1648 64.0734 15.0682 63.6378 14.875C63.2022 14.678 62.8575 14.3883 62.6037 14.0057C62.3537 13.6193 62.2287 13.1383 62.2287 12.5625C62.2287 12.0777 62.3177 11.6705 62.4957 11.3409C62.6738 11.0114 62.9162 10.7462 63.223 10.5455C63.5298 10.3447 63.8783 10.1932 64.2685 10.0909C64.6624 9.98864 65.0753 9.91667 65.5071 9.875C66.0147 9.82197 66.4238 9.77273 66.7344 9.72727C67.045 9.67803 67.2704 9.60606 67.4105 9.51136C67.5507 9.41667 67.6207 9.27652 67.6207 9.09091V9.05682C67.6207 8.69697 67.5071 8.41856 67.2798 8.22159C67.0563 8.02462 66.7382 7.92614 66.3253 7.92614C65.8897 7.92614 65.5431 8.02273 65.2855 8.21591C65.0279 8.4053 64.8575 8.64394 64.7741 8.93182L62.5355 8.75C62.6491 8.2197 62.8726 7.76136 63.206 7.375C63.5393 6.98485 63.9692 6.68561 64.4957 6.47727C65.026 6.26515 65.6397 6.15909 66.3366 6.15909C66.8215 6.15909 67.2855 6.21591 67.7287 6.32955C68.1757 6.44318 68.5715 6.61932 68.9162 6.85795C69.2647 7.09659 69.5393 7.40341 69.7401 7.77841C69.9408 8.14962 70.0412 8.5947 70.0412 9.11364V15H67.7457V13.7898H67.6776C67.5374 14.0625 67.3499 14.303 67.1151 14.5114C66.8802 14.7159 66.598 14.8769 66.2685 14.9943C65.9389 15.108 65.5582 15.1648 65.1264 15.1648ZM65.8196 13.4943C66.1757 13.4943 66.4901 13.4242 66.7628 13.2841C67.0355 13.1402 67.2495 12.947 67.4048 12.7045C67.5601 12.4621 67.6378 12.1875 67.6378 11.8807V10.9545C67.562 11.0038 67.4579 11.0492 67.3253 11.0909C67.1965 11.1288 67.0507 11.1648 66.8878 11.1989C66.7249 11.2292 66.562 11.2576 66.3991 11.2841C66.2363 11.3068 66.0885 11.3277 65.956 11.3466C65.6719 11.3883 65.4238 11.4545 65.2116 11.5455C64.9995 11.6364 64.8348 11.7595 64.7173 11.9148C64.5999 12.0663 64.5412 12.2557 64.5412 12.483C64.5412 12.8125 64.6605 13.0644 64.8991 13.2386C65.1416 13.4091 65.4484 13.4943 65.8196 13.4943ZM71.919 15V6.27273H74.3395V9.65909H75.0213L77.3963 6.27273H80.2372L77.152 10.6023L80.2713 15H77.3963L75.2429 11.9034H74.3395V15H71.919ZM84.8778 15.1705C83.9953 15.1705 83.232 14.983 82.5881 14.608C81.9479 14.2292 81.4536 13.7027 81.1051 13.0284C80.7566 12.3504 80.5824 11.5644 80.5824 10.6705C80.5824 9.76894 80.7566 8.98106 81.1051 8.30682C81.4536 7.62879 81.9479 7.10227 82.5881 6.72727C83.232 6.34848 83.9953 6.15909 84.8778 6.15909C85.7604 6.15909 86.5218 6.34848 87.1619 6.72727C87.8059 7.10227 88.3021 7.62879 88.6506 8.30682C88.9991 8.98106 89.1733 9.76894 89.1733 10.6705C89.1733 11.5644 88.9991 12.3504 88.6506 13.0284C88.3021 13.7027 87.8059 14.2292 87.1619 14.608C86.5218 14.983 85.7604 15.1705 84.8778 15.1705ZM84.8892 13.2955C85.2907 13.2955 85.6259 13.1818 85.8949 12.9545C86.1638 12.7235 86.3665 12.4091 86.5028 12.0114C86.643 11.6136 86.7131 11.161 86.7131 10.6534C86.7131 10.1458 86.643 9.69318 86.5028 9.29545C86.3665 8.89773 86.1638 8.58333 85.8949 8.35227C85.6259 8.12121 85.2907 8.00568 84.8892 8.00568C84.4839 8.00568 84.143 8.12121 83.8665 8.35227C83.5938 8.58333 83.3873 8.89773 83.2472 9.29545C83.1108 9.69318 83.0426 10.1458 83.0426 10.6534C83.0426 11.161 83.1108 11.6136 83.2472 12.0114C83.3873 12.4091 83.5938 12.7235 83.8665 12.9545C84.143 13.1818 84.4839 13.2955 84.8892 13.2955ZM90.7472 15V6.27273H94.4688C95.5445 6.27273 96.3949 6.47727 97.0199 6.88636C97.6449 7.29545 97.9574 7.87689 97.9574 8.63068C97.9574 9.10417 97.7813 9.49811 97.429 9.8125C97.0767 10.1269 96.5881 10.339 95.9631 10.4489C96.4858 10.4867 96.9309 10.6061 97.2983 10.8068C97.6695 11.0038 97.9517 11.2595 98.1449 11.5739C98.3419 11.8883 98.4403 12.2367 98.4403 12.6193C98.4403 13.1155 98.3078 13.5417 98.0426 13.8977C97.7813 14.2538 97.3968 14.5265 96.8892 14.7159C96.3854 14.9053 95.7699 15 95.0426 15H90.7472ZM93.0028 13.1875H95.0426C95.3797 13.1875 95.643 13.108 95.8324 12.9489C96.0256 12.786 96.1222 12.5644 96.1222 12.2841C96.1222 11.9735 96.0256 11.7292 95.8324 11.5511C95.643 11.3731 95.3797 11.2841 95.0426 11.2841H93.0028V13.1875ZM93.0028 9.86364H94.5199C94.7623 9.86364 94.9688 9.82955 95.1392 9.76136C95.3134 9.68939 95.446 9.58712 95.5369 9.45455C95.6316 9.32197 95.679 9.16477 95.679 8.98295C95.679 8.71402 95.571 8.50379 95.3551 8.35227C95.1392 8.20076 94.8438 8.125 94.4688 8.125H93.0028V9.86364Z" fill="#D9A8A5"/>
<path opacity="0.7" d="M30.8082 40V28.3636H35.4673C36.3234 28.3636 37.0374 28.4905 37.6094 28.7443C38.1813 28.9981 38.6113 29.3504 38.8991 29.8011C39.187 30.2481 39.331 30.7633 39.331 31.3466C39.331 31.8011 39.2401 32.2008 39.0582 32.5455C38.8764 32.8864 38.6264 33.1667 38.3082 33.3864C37.9938 33.6023 37.634 33.7557 37.2287 33.8466V33.9602C37.6719 33.9792 38.0866 34.1042 38.473 34.3352C38.8632 34.5663 39.1795 34.8902 39.4219 35.3068C39.6643 35.7197 39.7855 36.2121 39.7855 36.7841C39.7855 37.4015 39.6321 37.9527 39.3253 38.4375C39.0223 38.9186 38.5734 39.2992 37.9787 39.5795C37.384 39.8598 36.651 40 35.7798 40H30.8082ZM33.2685 37.9886H35.2741C35.9598 37.9886 36.4598 37.858 36.7741 37.5966C37.0885 37.3314 37.2457 36.9792 37.2457 36.5398C37.2457 36.2178 37.1681 35.9337 37.0128 35.6875C36.8575 35.4413 36.6359 35.2481 36.348 35.108C36.0639 34.9678 35.7249 34.8977 35.331 34.8977H33.2685V37.9886ZM33.2685 33.233H35.0923C35.4295 33.233 35.7287 33.1742 35.9901 33.0568C36.2552 32.9356 36.4635 32.7652 36.6151 32.5455C36.7704 32.3258 36.848 32.0625 36.848 31.7557C36.848 31.3352 36.6984 30.9962 36.3991 30.7386C36.1037 30.4811 35.6832 30.3523 35.1378 30.3523H33.2685V33.233ZM41.3409 43.2727V31.2727H43.7273V32.7386H43.8352C43.9413 32.5038 44.0947 32.2652 44.2955 32.0227C44.5 31.7765 44.7652 31.572 45.0909 31.4091C45.4205 31.2424 45.8295 31.1591 46.3182 31.1591C46.9545 31.1591 47.5417 31.3258 48.0795 31.6591C48.6174 31.9886 49.0473 32.4867 49.3693 33.1534C49.6913 33.8163 49.8523 34.6477 49.8523 35.6477C49.8523 36.6212 49.6951 37.4432 49.3807 38.1136C49.0701 38.7803 48.6458 39.286 48.108 39.6307C47.5739 39.9716 46.9754 40.142 46.3125 40.142C45.8428 40.142 45.4432 40.0644 45.1136 39.9091C44.7879 39.7538 44.5208 39.5587 44.3125 39.3239C44.1042 39.0852 43.9451 38.8447 43.8352 38.6023H43.7614V43.2727H41.3409ZM43.7102 35.6364C43.7102 36.1553 43.7822 36.608 43.9261 36.9943C44.0701 37.3807 44.2784 37.6818 44.5511 37.8977C44.8239 38.1098 45.1553 38.2159 45.5455 38.2159C45.9394 38.2159 46.2727 38.108 46.5455 37.892C46.8182 37.6723 47.0246 37.3693 47.1648 36.983C47.3087 36.5928 47.3807 36.1439 47.3807 35.6364C47.3807 35.1326 47.3106 34.6894 47.1705 34.3068C47.0303 33.9242 46.8239 33.625 46.5511 33.4091C46.2784 33.1932 45.9432 33.0852 45.5455 33.0852C45.1515 33.0852 44.8182 33.1894 44.5455 33.3977C44.2765 33.6061 44.0701 33.9015 43.9261 34.2841C43.7822 34.6667 43.7102 35.1174 43.7102 35.6364ZM55.4091 40.1705C54.5265 40.1705 53.7633 39.983 53.1193 39.608C52.4792 39.2292 51.9848 38.7027 51.6364 38.0284C51.2879 37.3504 51.1136 36.5644 51.1136 35.6705C51.1136 34.7689 51.2879 33.9811 51.6364 33.3068C51.9848 32.6288 52.4792 32.1023 53.1193 31.7273C53.7633 31.3485 54.5265 31.1591 55.4091 31.1591C56.2917 31.1591 57.053 31.3485 57.6932 31.7273C58.3371 32.1023 58.8333 32.6288 59.1818 33.3068C59.5303 33.9811 59.7045 34.7689 59.7045 35.6705C59.7045 36.5644 59.5303 37.3504 59.1818 38.0284C58.8333 38.7027 58.3371 39.2292 57.6932 39.608C57.053 39.983 56.2917 40.1705 55.4091 40.1705ZM55.4205 38.2955C55.822 38.2955 56.1572 38.1818 56.4261 37.9545C56.6951 37.7235 56.8977 37.4091 57.0341 37.0114C57.1742 36.6136 57.2443 36.161 57.2443 35.6534C57.2443 35.1458 57.1742 34.6932 57.0341 34.2955C56.8977 33.8977 56.6951 33.5833 56.4261 33.3523C56.1572 33.1212 55.822 33.0057 55.4205 33.0057C55.0152 33.0057 54.6742 33.1212 54.3977 33.3523C54.125 33.5833 53.9186 33.8977 53.7784 34.2955C53.642 34.6932 53.5739 35.1458 53.5739 35.6534C53.5739 36.161 53.642 36.6136 53.7784 37.0114C53.9186 37.4091 54.125 37.7235 54.3977 37.9545C54.6742 38.1818 55.0152 38.2955 55.4205 38.2955ZM68.9091 31.2727V38.3295H70.3011V42.8068H67.9489V40H61.2784V31.2727H63.5909V38.0966H66.625V31.2727H68.9091ZM71.2827 40L71.2713 38.0795H71.5611C71.7656 38.0795 71.9418 38.0303 72.0895 37.9318C72.241 37.8295 72.366 37.6648 72.4645 37.4375C72.563 37.2102 72.6406 36.9091 72.6974 36.5341C72.7543 36.1553 72.7921 35.6894 72.8111 35.1364L72.9531 31.2727H79.5895V40H77.2827V33.1761H75.1293L74.9929 35.8409C74.9588 36.572 74.8698 37.2008 74.7259 37.7273C74.5857 38.2538 74.3906 38.6856 74.1406 39.0227C73.8906 39.3561 73.5895 39.6023 73.2372 39.7614C72.8849 39.9205 72.4759 40 72.0099 40H71.2827ZM83.9545 40.1648C83.3977 40.1648 82.9015 40.0682 82.4659 39.875C82.0303 39.678 81.6856 39.3883 81.4318 39.0057C81.1818 38.6193 81.0568 38.1383 81.0568 37.5625C81.0568 37.0777 81.1458 36.6705 81.3239 36.3409C81.5019 36.0114 81.7443 35.7462 82.0511 35.5455C82.358 35.3447 82.7064 35.1932 83.0966 35.0909C83.4905 34.9886 83.9034 34.9167 84.3352 34.875C84.8428 34.822 85.2519 34.7727 85.5625 34.7273C85.8731 34.678 86.0985 34.6061 86.2386 34.5114C86.3788 34.4167 86.4489 34.2765 86.4489 34.0909V34.0568C86.4489 33.697 86.3352 33.4186 86.108 33.2216C85.8845 33.0246 85.5663 32.9261 85.1534 32.9261C84.7178 32.9261 84.3712 33.0227 84.1136 33.2159C83.8561 33.4053 83.6856 33.6439 83.6023 33.9318L81.3636 33.75C81.4773 33.2197 81.7008 32.7614 82.0341 32.375C82.3674 31.9848 82.7973 31.6856 83.3239 31.4773C83.8542 31.2652 84.4678 31.1591 85.1648 31.1591C85.6496 31.1591 86.1136 31.2159 86.5568 31.3295C87.0038 31.4432 87.3996 31.6193 87.7443 31.858C88.0928 32.0966 88.3674 32.4034 88.5682 32.7784C88.7689 33.1496 88.8693 33.5947 88.8693 34.1136V40H86.5739V38.7898H86.5057C86.3655 39.0625 86.178 39.303 85.9432 39.5114C85.7083 39.7159 85.4261 39.8769 85.0966 39.9943C84.767 40.108 84.3864 40.1648 83.9545 40.1648ZM84.6477 38.4943C85.0038 38.4943 85.3182 38.4242 85.5909 38.2841C85.8636 38.1402 86.0777 37.947 86.233 37.7045C86.3883 37.4621 86.4659 37.1875 86.4659 36.8807V35.9545C86.3902 36.0038 86.286 36.0492 86.1534 36.0909C86.0246 36.1288 85.8788 36.1648 85.7159 36.1989C85.553 36.2292 85.3902 36.2576 85.2273 36.2841C85.0644 36.3068 84.9167 36.3277 84.7841 36.3466C84.5 36.3883 84.2519 36.4545 84.0398 36.5455C83.8277 36.6364 83.6629 36.7595 83.5455 36.9148C83.428 37.0663 83.3693 37.2557 83.3693 37.483C83.3693 37.8125 83.4886 38.0644 83.7273 38.2386C83.9697 38.4091 84.2765 38.4943 84.6477 38.4943ZM90.7472 40V31.2727H94.4688C95.5445 31.2727 96.3949 31.4773 97.0199 31.8864C97.6449 32.2955 97.9574 32.8769 97.9574 33.6307C97.9574 34.1042 97.7813 34.4981 97.429 34.8125C97.0767 35.1269 96.5881 35.339 95.9631 35.4489C96.4858 35.4867 96.9309 35.6061 97.2983 35.8068C97.6695 36.0038 97.9517 36.2595 98.1449 36.5739C98.3419 36.8883 98.4403 37.2367 98.4403 37.6193C98.4403 38.1155 98.3078 38.5417 98.0426 38.8977C97.7813 39.2538 97.3968 39.5265 96.8892 39.7159C96.3854 39.9053 95.7699 40 95.0426 40H90.7472ZM93.0028 38.1875H95.0426C95.3797 38.1875 95.643 38.108 95.8324 37.9489C96.0256 37.786 96.1222 37.5644 96.1222 37.2841C96.1222 36.9735 96.0256 36.7292 95.8324 36.5511C95.643 36.3731 95.3797 36.2841 95.0426 36.2841H93.0028V38.1875ZM93.0028 34.8636H94.5199C94.7623 34.8636 94.9688 34.8295 95.1392 34.7614C95.3134 34.6894 95.446 34.5871 95.5369 34.4545C95.6316 34.322 95.679 34.1648 95.679 33.983C95.679 33.714 95.571 33.5038 95.3551 33.3523C95.1392 33.2008 94.8438 33.125 94.4688 33.125H93.0028V34.8636Z" fill="#D9A8A5"/>
<path d="M28.5114 65V53.3636H33.1705C34.0265 53.3636 34.7405 53.4905 35.3125 53.7443C35.8845 53.9981 36.3144 54.3504 36.6023 54.8011C36.8902 55.2481 37.0341 55.7633 37.0341 56.3466C37.0341 56.8011 36.9432 57.2008 36.7614 57.5455C36.5795 57.8864 36.3295 58.1667 36.0114 58.3864C35.697 58.6023 35.3371 58.7557 34.9318 58.8466V58.9602C35.375 58.9792 35.7898 59.1042 36.1761 59.3352C36.5663 59.5663 36.8826 59.8902 37.125 60.3068C37.3674 60.7197 37.4886 61.2121 37.4886 61.7841C37.4886 62.4015 37.3352 62.9527 37.0284 63.4375C36.7254 63.9186 36.2765 64.2992 35.6818 64.5795C35.0871 64.8598 34.3542 65 33.483 65H28.5114ZM30.9716 62.9886H32.9773C33.6629 62.9886 34.1629 62.858 34.4773 62.5966C34.7917 62.3314 34.9489 61.9792 34.9489 61.5398C34.9489 61.2178 34.8712 60.9337 34.7159 60.6875C34.5606 60.4413 34.339 60.2481 34.0511 60.108C33.767 59.9678 33.428 59.8977 33.0341 59.8977H30.9716V62.9886ZM30.9716 58.233H32.7955C33.1326 58.233 33.4318 58.1742 33.6932 58.0568C33.9583 57.9356 34.1667 57.7652 34.3182 57.5455C34.4735 57.3258 34.5511 57.0625 34.5511 56.7557C34.5511 56.3352 34.4015 55.9962 34.1023 55.7386C33.8068 55.4811 33.3864 55.3523 32.8409 55.3523H30.9716V58.233ZM41.5327 65.1648C40.9759 65.1648 40.4796 65.0682 40.044 64.875C39.6084 64.678 39.2637 64.3883 39.0099 64.0057C38.7599 63.6193 38.6349 63.1383 38.6349 62.5625C38.6349 62.0777 38.724 61.6705 38.902 61.3409C39.08 61.0114 39.3224 60.7462 39.6293 60.5455C39.9361 60.3447 40.2846 60.1932 40.6747 60.0909C41.0687 59.9886 41.4815 59.9167 41.9134 59.875C42.4209 59.822 42.83 59.7727 43.1406 59.7273C43.4512 59.678 43.6766 59.6061 43.8168 59.5114C43.9569 59.4167 44.027 59.2765 44.027 59.0909V59.0568C44.027 58.697 43.9134 58.4186 43.6861 58.2216C43.4626 58.0246 43.1444 57.9261 42.7315 57.9261C42.2959 57.9261 41.9493 58.0227 41.6918 58.2159C41.4342 58.4053 41.2637 58.6439 41.1804 58.9318L38.9418 58.75C39.0554 58.2197 39.2789 57.7614 39.6122 57.375C39.9455 56.9848 40.3755 56.6856 40.902 56.4773C41.4323 56.2652 42.0459 56.1591 42.7429 56.1591C43.2277 56.1591 43.6918 56.2159 44.1349 56.3295C44.5819 56.4432 44.9777 56.6193 45.3224 56.858C45.6709 57.0966 45.9455 57.4034 46.1463 57.7784C46.3471 58.1496 46.4474 58.5947 46.4474 59.1136V65H44.152V63.7898H44.0838C43.9437 64.0625 43.7562 64.303 43.5213 64.5114C43.2865 64.7159 43.0043 64.8769 42.6747 64.9943C42.3452 65.108 41.9645 65.1648 41.5327 65.1648ZM42.2259 63.4943C42.5819 63.4943 42.8963 63.4242 43.169 63.2841C43.4418 63.1402 43.6558 62.947 43.8111 62.7045C43.9664 62.4621 44.044 62.1875 44.044 61.8807V60.9545C43.9683 61.0038 43.8641 61.0492 43.7315 61.0909C43.6027 61.1288 43.4569 61.1648 43.294 61.1989C43.1312 61.2292 42.9683 61.2576 42.8054 61.2841C42.6425 61.3068 42.4948 61.3277 42.3622 61.3466C42.0781 61.3883 41.83 61.4545 41.6179 61.5455C41.4058 61.6364 41.241 61.7595 41.1236 61.9148C41.0062 62.0663 40.9474 62.2557 40.9474 62.483C40.9474 62.8125 41.0668 63.0644 41.3054 63.2386C41.5478 63.4091 41.8546 63.4943 42.2259 63.4943ZM48.3253 68.2727V56.2727H50.7116V57.7386H50.8196C50.9257 57.5038 51.0791 57.2652 51.2798 57.0227C51.4844 56.7765 51.7495 56.572 52.0753 56.4091C52.4048 56.2424 52.8139 56.1591 53.3026 56.1591C53.9389 56.1591 54.526 56.3258 55.0639 56.6591C55.6018 56.9886 56.0317 57.4867 56.3537 58.1534C56.6757 58.8163 56.8366 59.6477 56.8366 60.6477C56.8366 61.6212 56.6795 62.4432 56.3651 63.1136C56.0545 63.7803 55.6302 64.286 55.0923 64.6307C54.5582 64.9716 53.9598 65.142 53.2969 65.142C52.8272 65.142 52.4276 65.0644 52.098 64.9091C51.7723 64.7538 51.5052 64.5587 51.2969 64.3239C51.0885 64.0852 50.9295 63.8447 50.8196 63.6023H50.7457V68.2727H48.3253ZM50.6946 60.6364C50.6946 61.1553 50.7666 61.608 50.9105 61.9943C51.0545 62.3807 51.2628 62.6818 51.5355 62.8977C51.8082 63.1098 52.1397 63.2159 52.5298 63.2159C52.9238 63.2159 53.2571 63.108 53.5298 62.892C53.8026 62.6723 54.009 62.3693 54.1491 61.983C54.2931 61.5928 54.3651 61.1439 54.3651 60.6364C54.3651 60.1326 54.295 59.6894 54.1548 59.3068C54.0147 58.9242 53.8082 58.625 53.5355 58.4091C53.2628 58.1932 52.9276 58.0852 52.5298 58.0852C52.1359 58.0852 51.8026 58.1894 51.5298 58.3977C51.2609 58.6061 51.0545 58.9015 50.9105 59.2841C50.7666 59.6667 50.6946 60.1174 50.6946 60.6364ZM58.4503 56.2727H60.7628V63.0795H63.223V56.2727H65.5355V63.0795H67.9957V56.2727H70.3082V65H58.4503V56.2727ZM74.6733 65.1648C74.1165 65.1648 73.6203 65.0682 73.1847 64.875C72.7491 64.678 72.4044 64.3883 72.1506 64.0057C71.9006 63.6193 71.7756 63.1383 71.7756 62.5625C71.7756 62.0777 71.8646 61.6705 72.0426 61.3409C72.2206 61.0114 72.4631 60.7462 72.7699 60.5455C73.0767 60.3447 73.4252 60.1932 73.8153 60.0909C74.2093 59.9886 74.6222 59.9167 75.054 59.875C75.5616 59.822 75.9706 59.7727 76.2812 59.7273C76.5919 59.678 76.8172 59.6061 76.9574 59.5114C77.0975 59.4167 77.1676 59.2765 77.1676 59.0909V59.0568C77.1676 58.697 77.054 58.4186 76.8267 58.2216C76.6032 58.0246 76.285 57.9261 75.8722 57.9261C75.4366 57.9261 75.09 58.0227 74.8324 58.2159C74.5748 58.4053 74.4044 58.6439 74.321 58.9318L72.0824 58.75C72.196 58.2197 72.4195 57.7614 72.7528 57.375C73.0862 56.9848 73.5161 56.6856 74.0426 56.4773C74.5729 56.2652 75.1866 56.1591 75.8835 56.1591C76.3684 56.1591 76.8324 56.2159 77.2756 56.3295C77.7225 56.4432 78.1184 56.6193 78.4631 56.858C78.8116 57.0966 79.0862 57.4034 79.2869 57.7784C79.4877 58.1496 79.5881 58.5947 79.5881 59.1136V65H77.2926V63.7898H77.2244C77.0843 64.0625 76.8968 64.303 76.6619 64.5114C76.4271 64.7159 76.1449 64.8769 75.8153 64.9943C75.4858 65.108 75.1051 65.1648 74.6733 65.1648ZM75.3665 63.4943C75.7225 63.4943 76.0369 63.4242 76.3097 63.2841C76.5824 63.1402 76.7964 62.947 76.9517 62.7045C77.107 62.4621 77.1847 62.1875 77.1847 61.8807V60.9545C77.1089 61.0038 77.0047 61.0492 76.8722 61.0909C76.7434 61.1288 76.5975 61.1648 76.4347 61.1989C76.2718 61.2292 76.1089 61.2576 75.946 61.2841C75.7831 61.3068 75.6354 61.3277 75.5028 61.3466C75.2188 61.3883 74.9706 61.4545 74.7585 61.5455C74.5464 61.6364 74.3816 61.7595 74.2642 61.9148C74.1468 62.0663 74.0881 62.2557 74.0881 62.483C74.0881 62.8125 74.2074 63.0644 74.446 63.2386C74.6884 63.4091 74.9953 63.4943 75.3665 63.4943ZM81.4659 65V56.2727H85.1875C86.2633 56.2727 87.1136 56.4773 87.7386 56.8864C88.3636 57.2955 88.6761 57.8769 88.6761 58.6307C88.6761 59.1042 88.5 59.4981 88.1477 59.8125C87.7955 60.1269 87.3068 60.339 86.6818 60.4489C87.2045 60.4867 87.6496 60.6061 88.017 60.8068C88.3883 61.0038 88.6705 61.2595 88.8636 61.5739C89.0606 61.8883 89.1591 62.2367 89.1591 62.6193C89.1591 63.1155 89.0265 63.5417 88.7614 63.8977C88.5 64.2538 88.1155 64.5265 87.608 64.7159C87.1042 64.9053 86.4886 65 85.7614 65H81.4659ZM83.7216 63.1875H85.7614C86.0985 63.1875 86.3617 63.108 86.5511 62.9489C86.7443 62.786 86.8409 62.5644 86.8409 62.2841C86.8409 61.9735 86.7443 61.7292 86.5511 61.5511C86.3617 61.3731 86.0985 61.2841 85.7614 61.2841H83.7216V63.1875ZM83.7216 59.8636H85.2386C85.4811 59.8636 85.6875 59.8295 85.858 59.7614C86.0322 59.6894 86.1648 59.5871 86.2557 59.4545C86.3504 59.322 86.3977 59.1648 86.3977 58.983C86.3977 58.714 86.2898 58.5038 86.0739 58.3523C85.858 58.2008 85.5625 58.125 85.1875 58.125H83.7216V59.8636ZM93.1733 65.1648C92.6165 65.1648 92.1203 65.0682 91.6847 64.875C91.2491 64.678 90.9044 64.3883 90.6506 64.0057C90.4006 63.6193 90.2756 63.1383 90.2756 62.5625C90.2756 62.0777 90.3646 61.6705 90.5426 61.3409C90.7206 61.0114 90.9631 60.7462 91.2699 60.5455C91.5767 60.3447 91.9252 60.1932 92.3153 60.0909C92.7093 59.9886 93.1222 59.9167 93.554 59.875C94.0616 59.822 94.4706 59.7727 94.7812 59.7273C95.0919 59.678 95.3172 59.6061 95.4574 59.5114C95.5975 59.4167 95.6676 59.2765 95.6676 59.0909V59.0568C95.6676 58.697 95.554 58.4186 95.3267 58.2216C95.1032 58.0246 94.785 57.9261 94.3722 57.9261C93.9366 57.9261 93.59 58.0227 93.3324 58.2159C93.0748 58.4053 92.9044 58.6439 92.821 58.9318L90.5824 58.75C90.696 58.2197 90.9195 57.7614 91.2528 57.375C91.5862 56.9848 92.0161 56.6856 92.5426 56.4773C93.0729 56.2652 93.6866 56.1591 94.3835 56.1591C94.8684 56.1591 95.3324 56.2159 95.7756 56.3295C96.2225 56.4432 96.6184 56.6193 96.9631 56.858C97.3116 57.0966 97.5862 57.4034 97.7869 57.7784C97.9877 58.1496 98.0881 58.5947 98.0881 59.1136V65H95.7926V63.7898H95.7244C95.5843 64.0625 95.3968 64.303 95.1619 64.5114C94.9271 64.7159 94.6449 64.8769 94.3153 64.9943C93.9858 65.108 93.6051 65.1648 93.1733 65.1648ZM93.8665 63.4943C94.2225 63.4943 94.5369 63.4242 94.8097 63.2841C95.0824 63.1402 95.2964 62.947 95.4517 62.7045C95.607 62.4621 95.6847 62.1875 95.6847 61.8807V60.9545C95.6089 61.0038 95.5047 61.0492 95.3722 61.0909C95.2434 61.1288 95.0975 61.1648 94.9347 61.1989C94.7718 61.2292 94.6089 61.2576 94.446 61.2841C94.2831 61.3068 94.1354 61.3277 94.0028 61.3466C93.7188 61.3883 93.4706 61.4545 93.2585 61.5455C93.0464 61.6364 92.8816 61.7595 92.7642 61.9148C92.6468 62.0663 92.5881 62.2557 92.5881 62.483C92.5881 62.8125 92.7074 63.0644 92.946 63.2386C93.1884 63.4091 93.4953 63.4943 93.8665 63.4943Z" fill="#D9A8A5"/>
<path d="M123.25 67.75L112.75 61L123.25 54.25L123.25 67.75Z" stroke="#D9A8A5" stroke-width="1.5" stroke-linecap="round" stroke-linejoin="round"/>
</svg>
