<svg width="140" height="32" viewBox="0 0 140 32" fill="none" xmlns="http://www.w3.org/2000/svg">
<path d="M137.499 7.79166C137.956 7.78967 138.414 7.78769 138.871 7.79206C140.103 7.8032 140.204 7.94736 139.756 9.04836C139.02 10.8598 138.284 12.6715 137.542 14.4808C135.872 18.5518 134.199 22.6209 132.528 26.6911C132.143 27.6308 131.702 28.5419 131.119 29.3791C129.935 31.0754 128.357 31.9829 126.225 31.9595C125.007 31.9462 123.853 31.7521 122.73 31.3089C122.016 31.0269 121.694 30.8422 122.135 29.9973C122.313 29.6576 122.426 29.286 122.587 28.937C123.014 28.009 123.059 28.0033 124.005 28.3419C124.433 28.4948 124.872 28.6459 125.319 28.7104C126.713 28.9114 127.775 28.4246 128.524 27.1993C129.014 26.3962 129.16 25.7092 128.717 24.7736C126.326 19.7214 124.016 14.6309 121.68 9.55303C121.534 9.23587 121.385 8.91872 121.265 8.59162C121.088 8.10663 121.229 7.8547 121.742 7.80896C122.196 7.7686 122.656 7.80061 123.114 7.80061C125.196 7.80678 124.75 7.59182 125.548 9.3866C127.145 12.9813 128.712 16.589 130.302 20.1869L130.633 20.8586C130.633 20.8586 130.737 21.0743 130.868 21.0743C130.998 21.0743 131.189 21.0962 131.337 20.8327C131.395 20.7305 131.459 20.5792 131.516 20.4322C131.531 20.373 131.547 20.3163 131.567 20.2656C133.077 16.4333 134.556 12.589 136.052 8.75109C136.426 7.79166 136.439 7.79624 137.499 7.79166ZM111.819 14.9091C113.078 15.346 114.384 15.6375 115.618 16.1527C116.599 16.5627 117.514 17.0644 118.264 17.8305C120.079 19.6856 119.747 23.1516 117.809 24.9281C116.602 26.0343 115.155 26.5917 113.521 26.6982C110.877 26.8704 108.433 26.2451 106.177 24.8832C104.589 23.9244 104.559 23.8305 105.627 22.3926C106.35 21.4185 106.257 20.9812 107.75 21.992C109.451 23.1427 111.351 23.6985 113.438 23.5199C114.202 23.4545 114.884 23.227 115.418 22.6667C116.3 21.7424 116.178 20.5207 115.136 19.7776C114.409 19.2591 113.552 19.034 112.72 18.7633C111.954 18.5142 111.169 18.3205 110.398 18.0849C109.589 17.8379 108.823 17.4889 108.084 17.0797C104.948 15.3434 105.118 11.5476 107.003 9.53852C108.16 8.30667 109.609 7.67932 111.291 7.56975C111.641 7.54688 111.994 7.56637 112.346 7.56637C114.521 7.48783 116.495 8.1639 118.361 9.20247C119.131 9.63138 119.176 9.8515 118.732 10.6238C118.489 11.0481 118.221 11.4584 117.968 11.8773C117.724 12.281 117.384 12.3498 116.976 12.1569C116.753 12.0521 116.537 11.9342 116.323 11.8139C115.111 11.1331 113.797 10.7467 112.423 10.6353C111.621 10.5703 110.808 10.7256 110.098 11.1641C108.891 11.9089 108.857 13.2537 110.011 14.0726C110.562 14.4639 111.187 14.69 111.819 14.9091ZM95.2584 15.3885C94.7737 15.8968 94.7677 15.9377 95.2185 16.5293C97.3826 19.3694 99.556 22.2028 101.72 25.0429C101.963 25.361 102.42 25.6414 102.198 26.1132C101.98 26.5746 101.482 26.4668 101.067 26.4706C100.504 26.4755 99.9386 26.4413 99.3783 26.4797C98.7533 26.5227 98.3253 26.2984 97.9458 25.7977C96.4448 23.8168 94.9124 21.8593 93.3857 19.8977C92.1532 18.3143 92.3378 18.4052 91.3734 19.2907C90.7294 19.926 89.9201 20.7524 89.6197 21.1765C89.4965 21.3982 89.3949 21.6277 89.3179 21.8665C89.1488 22.5237 89.2067 23.2109 89.2067 23.2109V24.089C89.2408 24.4604 89.2249 24.8398 89.2067 25.2176C89.2009 25.334 89.1951 25.4501 89.1905 25.5658C89.1632 26.2321 88.9627 26.4391 88.3022 26.4648C87.6698 26.4895 87.0349 26.4902 86.4025 26.4642C85.6942 26.4348 85.5777 26.3115 85.5723 25.5587C85.5591 23.7778 85.5673 21.9967 85.5673 20.2159C85.5671 17.9461 85.5671 15.6763 85.5671 13.4064C85.5671 9.60036 85.5671 5.79407 85.5673 1.98778C85.5675 1.7084 85.5763 1.42902 85.5707 1.14984C85.5619 0.715167 85.801 0.49087 86.2077 0.477945C86.9459 0.454283 87.6863 0.442153 88.4239 0.47377C88.9468 0.496239 89.144 0.733461 89.1901 1.2775C89.2107 1.52049 89.1961 1.76606 89.1961 2.01064C89.1961 6.51528 89.1905 11.0199 89.2067 15.5245V16.3826C89.2484 16.4518 89.3149 16.5082 89.4205 16.5436C89.7447 16.6524 89.9802 16.1915 90.2152 15.9483C92.6503 13.4299 95.0837 10.9098 97.4976 8.3713C97.8905 7.9581 98.2925 7.74772 98.8748 7.78073C99.6464 7.82447 100.422 7.79524 101.197 7.79226C101.526 7.79087 101.85 7.81672 102 8.16171C102.149 8.50373 101.839 8.66678 101.656 8.85389C100.308 10.2315 98.9475 11.597 97.5968 12.9718C96.8111 13.7715 96.0321 14.5774 95.2584 15.3885ZM62.5597 17.1064C62.5704 11.9316 66.4334 7.423 72.34 7.41882C78.4995 7.41445 82.2515 12.3907 82.0351 17.1414C82.1674 21.7237 78.7234 26.8108 72.2757 26.8298C66.3661 26.8472 62.5492 22.3668 62.5597 17.1064ZM78.4122 17.2135C78.5791 14.1446 76.0047 10.4108 71.8463 10.737C69.7372 10.9024 68.1749 11.8688 67.1333 13.6349C66.1922 15.2314 65.9483 16.9666 66.4154 18.7818C67.476 22.9031 71.7848 24.6444 75.1763 22.8204C77.3935 21.6277 78.3168 19.6386 78.4122 17.2135ZM39.9151 17.1219C39.9187 12.2746 43.588 7.41087 49.6833 7.41544C55.7437 7.41982 59.4955 12.1619 59.4183 17.1252C59.445 22.2212 55.6503 26.8683 49.5485 26.8291C43.4982 26.7903 39.9113 22.0405 39.9151 17.1219ZM54.1577 21.5533C56.0959 19.3467 56.3384 16.031 54.7554 13.5584C53.5772 11.7177 51.9061 10.7145 49.3543 10.734C48.1064 10.6642 46.7863 11.1939 45.6296 12.2225C43.0938 14.4776 42.8269 18.7649 45.1387 21.4285C47.7199 24.4026 51.9558 24.0604 54.1577 21.5533ZM23.1182 8.22395C24.5492 7.38184 26.1382 6.93404 27.7462 7.00026C31.1642 7.14124 33.86 8.68686 35.6451 11.6433C36.7043 13.3973 37.0728 15.3106 37.046 17.3523C37.0157 19.6456 36.3599 21.6864 34.8795 23.4346C33.019 25.632 30.615 26.6931 27.7238 26.9355C23.4596 27.2932 19.9969 25.5575 16.7441 23.1397C15.1387 21.9464 13.5206 20.7727 11.8287 19.7013C11.0815 19.2282 10.2872 18.8689 9.43121 18.643C7.50822 18.1356 5.65797 18.8683 4.61963 20.55C4.52766 20.6987 4.42947 20.8462 4.36015 21.0055C4.15216 21.4833 3.79649 21.6726 3.27432 21.6561C2.50087 21.6317 1.72563 21.6663 0.952184 21.6452C0.0308645 21.6199 -0.196961 21.2926 0.161308 20.4567C1.37497 17.6245 3.51437 15.8383 6.52278 15.1499C9.31319 14.5114 11.8946 15.0732 14.2069 16.7608C15.5669 17.753 16.8859 18.8013 18.2615 19.7711C20.1286 21.0868 22.0468 22.3596 24.2753 22.9739C26.6257 23.6215 28.9376 23.539 31.0209 22.0471C32.2458 21.17 33.0533 20.0127 33.2845 18.5251C33.5939 16.5345 33.3831 14.6341 32.1242 12.9503C29.7503 9.77554 25.1179 9.92945 22.9561 13.2879C22.3405 14.2442 21.9546 15.281 22.0173 16.4482C22.0434 16.9355 22.0504 17.4291 22.0021 17.9135C21.9452 18.4826 21.6156 18.6983 21.1403 18.4517C20.2672 17.9994 19.4569 17.4388 18.6795 16.8379C18.293 16.5392 18.3625 16.0909 18.3623 15.6743C18.3621 13.2649 18.3623 10.8551 18.3651 8.44566C18.3651 6.03606 18.3605 3.62646 18.3671 1.21685C18.3699 0.113264 18.4388 0.0553998 19.585 0.0428726C19.9368 0.0390945 20.2887 0.0390945 20.6405 0.0428726C21.84 0.0557975 22.0173 0.234161 22.0211 1.46541C22.0263 3.07188 22.0225 4.67815 22.0225 6.28462C22.0225 6.70358 22.0217 7.12275 22.0227 7.54171C22.0255 8.84415 22.0359 8.86085 23.1182 8.22395Z" fill="white"/>
</svg>
