<svg width="531" height="71" viewBox="0 0 531 71" fill="none" xmlns="http://www.w3.org/2000/svg">
<g filter="url(#filter0_d_391_621)">
<path d="M474.766 65.0183V2H481.232V27.2822C482.784 24.51 485.161 22.1883 488.363 20.3171C491.579 18.432 495.079 17.4063 498.863 17.24C503.575 17.24 507.824 18.3627 511.608 20.6082C515.406 22.8398 518.386 25.709 520.548 29.2158C522.724 32.7226 523.875 36.2848 523.999 39.9025C523.999 44.532 523.057 48.8289 521.172 52.7931C519.301 56.7573 516.563 59.9453 512.959 62.3571C509.369 64.755 505.156 66.0371 500.318 66.2035C497.421 66.2035 494.704 65.8431 492.168 65.1223C489.645 64.4015 487.407 63.3481 485.452 61.962C483.498 60.5621 481.925 58.8572 480.733 56.8474V65.0183H474.766ZM480.733 40.2352C480.733 42.8687 481.093 45.3567 481.814 47.6992C482.535 50.0278 483.678 52.1139 485.244 53.9574C486.825 55.8009 488.855 57.2563 491.336 58.3236C493.831 59.3908 496.77 59.9453 500.152 59.9869C503.173 59.9869 506.022 59.1829 508.697 57.5751C511.386 55.9672 513.541 53.694 515.163 50.7555C516.785 47.817 517.596 44.4835 517.596 40.7549C517.596 38.3709 517.076 36.1185 516.036 33.9978C515.011 31.8771 513.618 30.0336 511.857 28.4673C510.111 26.8872 508.122 25.6605 505.89 24.7872C503.672 23.9001 501.385 23.4566 499.029 23.4566C496.576 23.4566 493.907 24.1081 491.024 25.411C488.141 26.7 485.702 28.6198 483.706 31.1702C481.724 33.7067 480.733 36.7284 480.733 40.2352Z" fill="#272727"/>
<path d="M388.4 42.0229C388.442 38.3082 389.17 34.9054 390.583 31.8144C391.997 28.7235 393.889 26.0968 396.259 23.9345C398.644 21.7722 401.319 20.1159 404.285 18.9654C407.265 17.815 410.287 17.2397 413.35 17.2397C421.874 17.4477 427.98 20.8574 431.667 27.4691V18.4248H437.8V65.0181H431.667V56.161C429.921 59.2936 427.391 61.7261 424.078 63.4587C420.765 65.1775 417.016 66.0369 412.83 66.0369C409.642 65.9537 406.586 65.3438 403.661 64.2072C400.737 63.0568 398.117 61.4281 395.802 59.3213C393.501 57.2144 391.692 54.6848 390.376 51.7325C389.059 48.7801 388.4 45.5436 388.4 42.0229ZM394.866 40.5676C394.866 44.3931 395.705 47.7821 397.382 50.7345C399.073 53.673 401.298 55.9323 404.056 57.5124C406.815 59.0926 409.739 59.9173 412.83 59.9866C416.392 59.9866 419.608 59.1342 422.477 57.4293C425.346 55.7105 427.592 53.4651 429.214 50.6929C430.849 47.9069 431.667 45.0169 431.667 42.0229C431.667 38.7241 430.877 35.6816 429.297 32.8956C427.717 30.1095 425.541 27.8849 422.768 26.2216C420.01 24.5444 416.981 23.6227 413.683 23.4563C410.093 23.4563 406.856 24.3504 403.973 26.1384C401.09 27.9265 398.851 30.165 397.257 32.854C395.663 35.543 394.866 38.1142 394.866 40.5676Z" fill="#272727"/>
<path d="M345.133 65.0183V2H351.433V65.0183H345.133Z" fill="#272727"/>
<path d="M258.768 42.0229C258.809 38.3082 259.537 34.9054 260.951 31.8144C262.364 28.7235 264.256 26.0968 266.627 23.9345C269.011 21.7722 271.686 20.1159 274.652 18.9654C277.632 17.815 280.654 17.2397 283.717 17.2397C292.242 17.4477 298.347 20.8574 302.034 27.4691V18.4248H308.168V65.0181H302.034V56.161C300.288 59.2936 297.758 61.7261 294.445 63.4587C291.133 65.1775 287.383 66.0369 283.197 66.0369C280.009 65.9537 276.953 65.3438 274.028 64.2072C271.104 63.0568 268.484 61.4281 266.169 59.3213C263.868 57.2144 262.06 54.6848 260.743 51.7325C259.426 48.7801 258.768 45.5436 258.768 42.0229ZM265.234 40.5676C265.234 44.3931 266.072 47.7821 267.749 50.7345C269.44 53.673 271.665 55.9323 274.423 57.5124C277.182 59.0926 280.106 59.9173 283.197 59.9866C286.76 59.9866 289.975 59.1342 292.844 57.4293C295.714 55.7105 297.959 53.4651 299.581 50.6929C301.216 47.9069 302.034 45.0169 302.034 42.0229C302.034 38.7241 301.244 35.6816 299.664 32.8956C298.084 30.1095 295.908 27.8849 293.136 26.2216C290.377 24.5444 287.349 23.6227 284.05 23.4563C280.46 23.4563 277.223 24.3504 274.34 26.1384C271.457 27.9265 269.219 30.165 267.625 32.854C266.031 35.543 265.234 38.1142 265.234 40.5676Z" fill="#272727"/>
<path d="M172.566 65.0183V2H179.032V27.2822C180.585 24.51 182.962 22.1883 186.164 20.3171C189.38 18.432 192.879 17.4063 196.663 17.24C201.376 17.24 205.625 18.3627 209.409 20.6082C213.206 22.8398 216.186 25.709 218.349 29.2158C220.525 32.7226 221.675 36.2848 221.8 39.9025C221.8 44.532 220.858 48.8289 218.973 52.7931C217.101 56.7573 214.364 59.9453 210.76 62.3571C207.17 64.755 202.956 66.0371 198.119 66.2035C195.222 66.2035 192.505 65.8431 189.969 65.1223C187.446 64.4015 185.208 63.3481 183.253 61.962C181.299 60.5621 179.726 58.8572 178.534 56.8474V65.0183H172.566ZM178.534 40.2352C178.534 42.8687 178.894 45.3567 179.615 47.6992C180.335 50.0278 181.479 52.1139 183.045 53.9574C184.625 55.8009 186.656 57.2563 189.137 58.3236C191.632 59.3908 194.571 59.9453 197.953 59.9869C200.974 59.9869 203.823 59.1829 206.498 57.5751C209.187 55.9672 211.342 53.694 212.964 50.7555C214.586 47.817 215.396 44.4835 215.396 40.7549C215.396 38.3709 214.877 36.1185 213.837 33.9978C212.811 31.8771 211.418 30.0336 209.658 28.4673C207.912 26.8872 205.923 25.6605 203.691 24.7872C201.473 23.9001 199.186 23.4566 196.83 23.4566C194.376 23.4566 191.708 24.1081 188.825 25.411C185.942 26.7 183.503 28.6198 181.507 31.1702C179.525 33.7067 178.534 36.7284 178.534 40.2352Z" fill="#272727"/>
<path d="M86.1992 42.0229C86.2408 38.3082 86.9685 34.9054 88.3823 31.8144C89.7961 28.7235 91.6881 26.0968 94.0583 23.9345C96.4424 21.7722 99.1175 20.1159 102.084 18.9654C105.064 17.815 108.085 17.2397 111.149 17.2397C119.673 17.4477 125.779 20.8574 129.466 27.4691V18.4248H135.599V65.0181H129.466V56.161C127.719 59.2936 125.19 61.7261 121.877 63.4587C118.564 65.1775 114.815 66.0369 110.629 66.0369C107.441 65.9537 104.385 65.3438 101.46 64.2072C98.5354 63.0568 95.9157 61.4281 93.6009 59.3213C91.3 57.2144 89.4912 54.6848 88.1744 51.7325C86.8576 48.7801 86.1992 45.5436 86.1992 42.0229ZM92.6653 40.5676C92.6653 44.3931 93.5039 47.7821 95.181 50.7345C96.8721 53.673 99.0967 55.9323 101.855 57.5124C104.613 59.0926 107.538 59.9173 110.629 59.9866C114.191 59.9866 117.407 59.1342 120.276 57.4293C123.145 55.7105 125.391 53.4651 127.012 50.6929C128.648 47.9069 129.466 45.0169 129.466 42.0229C129.466 38.7241 128.676 35.6816 127.096 32.8956C125.516 30.1095 123.339 27.8849 120.567 26.2216C117.809 24.5444 114.78 23.6227 111.481 23.4563C107.891 23.4563 104.655 24.3504 101.772 26.1384C98.8888 27.9265 96.6503 30.165 95.0563 32.854C93.4623 35.543 92.6653 38.1142 92.6653 40.5676Z" fill="#272727"/>
<path d="M0 65.0183V2H6.46609V27.2822C8.0185 24.51 10.3956 22.1883 13.5975 20.3171C16.8132 18.432 20.3131 17.4063 24.0971 17.24C28.8098 17.24 33.0581 18.3627 36.8421 20.6082C40.64 22.8398 43.6201 25.709 45.7824 29.2158C47.9585 32.7226 49.109 36.2848 49.2337 39.9025C49.2337 44.532 48.2912 48.8289 46.4061 52.7931C44.5349 56.7573 41.7974 59.9453 38.1936 62.3571C34.6036 64.755 30.3899 66.0371 25.5525 66.2035C22.6556 66.2035 19.9388 65.8431 17.4023 65.1223C14.8796 64.4015 12.6411 63.3481 10.6867 61.962C8.73234 60.5621 7.15913 58.8572 5.9671 56.8474V65.0183H0ZM5.9671 40.2352C5.9671 42.8687 6.32748 45.3567 7.04824 47.6992C7.76901 50.0278 8.91253 52.1139 10.4788 53.9574C12.0589 55.8009 14.0896 57.2563 16.5706 58.3236C19.0656 59.3908 22.0041 59.9453 25.3861 59.9869C28.4078 59.9869 31.2562 59.1829 33.9314 57.5751C36.6204 55.9672 38.7757 53.694 40.3974 50.7555C42.0192 47.817 42.83 44.4835 42.83 40.7549C42.83 38.3709 42.3102 36.1185 41.2707 33.9978C40.245 31.8771 38.852 30.0336 37.0916 28.4673C35.3452 26.8872 33.3561 25.6605 31.1245 24.7872C28.9068 23.9001 26.6198 23.4566 24.2634 23.4566C21.81 23.4566 19.1418 24.1081 16.2588 25.411C13.3757 26.7 10.9362 28.6198 8.94025 31.1702C6.95815 33.7067 5.9671 36.7284 5.9671 40.2352Z" fill="#272727"/>
</g>
<defs>
<filter id="filter0_d_391_621" x="0" y="0" width="531" height="70.2035" filterUnits="userSpaceOnUse" color-interpolation-filters="sRGB">
<feFlood flood-opacity="0" result="BackgroundImageFix"/>
<feColorMatrix in="SourceAlpha" type="matrix" values="0 0 0 0 0 0 0 0 0 0 0 0 0 0 0 0 0 0 127 0" result="hardAlpha"/>
<feOffset dx="4" dy="1"/>
<feGaussianBlur stdDeviation="1.5"/>
<feComposite in2="hardAlpha" operator="out"/>
<feColorMatrix type="matrix" values="0 0 0 0 0 0 0 0 0 0 0 0 0 0 0 0 0 0 0.45 0"/>
<feBlend mode="normal" in2="BackgroundImageFix" result="effect1_dropShadow_391_621"/>
<feBlend mode="normal" in="SourceGraphic" in2="effect1_dropShadow_391_621" result="shape"/>
</filter>
</defs>
</svg>
