<svg width="110" height="32" viewBox="0 0 110 32" fill="none" xmlns="http://www.w3.org/2000/svg">
<path d="M109.106 29.6804V24.3003H109.834V29.6804H109.106ZM109.106 23.6521V22.4037H109.834V23.6521H109.106Z" fill="#272727"/>
<path d="M105.446 29.3755V24.3003H106.185V29.6012C106.185 30.0622 106.055 30.4935 105.794 30.8952C105.535 31.297 105.055 31.5178 104.356 31.5578V30.8496C104.57 30.84 104.754 30.8008 104.908 30.732C105.063 30.6631 105.191 30.5215 105.292 30.307C105.395 30.0942 105.446 29.7837 105.446 29.3755ZM106.185 22.4037V23.6521H105.446V22.4037H106.185Z" fill="#272727"/>
<path d="M97.1718 26.9771C97.1766 26.5514 97.2574 26.1656 97.4143 25.8199C97.5727 25.4742 97.7848 25.1805 98.0505 24.9388C98.3178 24.6972 98.6139 24.5115 98.9388 24.3819C99.2653 24.2506 99.5974 24.1778 99.9351 24.1634C100.55 24.1634 101.111 24.3082 101.62 24.5979C102.129 24.886 102.502 25.3246 102.737 25.9136H101.911C101.714 25.5806 101.448 25.3254 101.111 25.1477C100.775 24.9701 100.383 24.8812 99.9351 24.8812C99.5286 24.9068 99.1716 25.0189 98.8643 25.2173C98.5586 25.4142 98.3234 25.6687 98.1585 25.9808C97.9937 26.2913 97.9072 26.6234 97.8992 26.9771C97.8992 27.3596 97.9905 27.7109 98.1729 28.031C98.357 28.3511 98.6115 28.6064 98.9364 28.7969C99.2613 28.9873 99.6206 29.0882 100.014 29.0994C100.429 29.0994 100.806 29.0066 101.145 28.8209C101.486 28.6336 101.748 28.396 101.933 28.1079H102.737C102.151 29.2346 101.256 29.798 100.053 29.798C99.691 29.798 99.3373 29.7308 98.9916 29.5963C98.6475 29.4603 98.337 29.2658 98.0601 29.013C97.7832 28.7601 97.5639 28.4624 97.4023 28.1199C97.2406 27.7774 97.1574 27.4092 97.1526 27.0155C97.1606 27.0075 97.1654 27.0003 97.167 26.9939C97.1702 26.9859 97.1718 26.9803 97.1718 26.9771Z" fill="#272727"/>
<path d="M88.7292 27.0251C88.734 26.5962 88.8181 26.2032 88.9813 25.8463C89.1446 25.4894 89.3631 25.1861 89.6367 24.9364C89.912 24.6868 90.2209 24.4955 90.5634 24.3627C90.9075 24.2298 91.2565 24.1634 91.6102 24.1634C92.5945 24.1874 93.2995 24.5811 93.7253 25.3446V24.3002H94.4335V29.6804H93.7253V28.6576C93.5236 29.0194 93.2315 29.3002 92.849 29.5003C92.4665 29.6988 92.0335 29.798 91.5502 29.798C91.182 29.7884 90.8291 29.718 90.4914 29.5867C90.1537 29.4539 89.8512 29.2658 89.5839 29.0226C89.3182 28.7793 89.1094 28.4872 88.9573 28.1463C88.8053 27.8054 88.7292 27.4316 88.7292 27.0251ZM89.4759 26.8571C89.4759 27.2988 89.5727 27.6901 89.7664 28.031C89.9616 28.3703 90.2185 28.6312 90.537 28.8137C90.8555 28.9961 91.1932 29.0914 91.5502 29.0994C91.9615 29.0994 92.3328 29.0009 92.6641 28.8041C92.9954 28.6056 93.2547 28.3463 93.442 28.0262C93.6308 27.7045 93.7253 27.3708 93.7253 27.0251C93.7253 26.6442 93.634 26.2929 93.4516 25.9712C93.2691 25.6495 93.0178 25.3926 92.6977 25.2005C92.3792 25.0069 92.0295 24.9004 91.6486 24.8812C91.2341 24.8812 90.8603 24.9845 90.5274 25.1909C90.1945 25.3974 89.936 25.6559 89.752 25.9664C89.5679 26.2769 89.4759 26.5738 89.4759 26.8571Z" fill="#272727"/>
<path d="M85.2947 29.6804V22.4037H86.0221V29.6804H85.2947Z" fill="#272727"/>
<path d="M81.6445 29.6804V24.3003H82.372V29.6804H81.6445ZM81.6445 23.6521V22.4037H82.372V23.6521H81.6445Z" fill="#272727"/>
<path d="M73.2788 31.5578V24.281H73.9774V25.2461C74.1391 25.0109 74.3271 24.814 74.5416 24.6555C74.7577 24.4971 74.9914 24.3779 75.2426 24.2978C75.4955 24.2162 75.7588 24.1714 76.0325 24.1634C76.3974 24.1634 76.7543 24.229 77.1032 24.3603C77.4522 24.4899 77.7651 24.674 78.0419 24.9124C78.3204 25.1509 78.5429 25.4374 78.7094 25.7719C78.8758 26.1064 78.9638 26.4681 78.9734 26.8571C78.9734 27.2876 78.9006 27.6805 78.755 28.0358C78.6093 28.3912 78.4029 28.7009 78.1356 28.9649C77.8699 29.2274 77.5642 29.4299 77.2185 29.5723C76.8744 29.7132 76.5054 29.7884 76.1117 29.798C75.6412 29.798 75.217 29.6972 74.8393 29.4955C74.4632 29.2922 74.1895 29.0098 74.0182 28.648V31.5578H73.2788ZM73.9582 27.0251C73.9662 27.3436 74.0463 27.6597 74.1983 27.9734C74.352 28.2855 74.5912 28.5488 74.9161 28.7633C75.241 28.9761 75.6428 29.0882 76.1213 29.0994C76.4862 29.0994 76.8304 29.009 77.1537 28.8281C77.477 28.6472 77.7346 28.396 77.9267 28.0743C78.1204 27.7509 78.2172 27.3916 78.2172 26.9963C78.2172 26.6218 78.1228 26.2729 77.9339 25.9496C77.745 25.6247 77.485 25.3654 77.1537 25.1717C76.8224 24.9781 76.455 24.8812 76.0517 24.8812C75.634 24.8956 75.2658 25.0037 74.9473 25.2053C74.6288 25.407 74.384 25.6711 74.2127 25.9976C74.0431 26.3225 73.9582 26.665 73.9582 27.0251Z" fill="#272727"/>
<path d="M64.9666 26.9555C64.9778 26.525 65.0618 26.1376 65.2186 25.7935C65.3771 25.4494 65.59 25.1565 65.8572 24.9148C66.1245 24.6716 66.4206 24.4867 66.7455 24.3603C67.072 24.2338 67.4065 24.1682 67.749 24.1634C68.2084 24.1634 68.6533 24.2754 69.0839 24.4995C69.5144 24.722 69.8665 25.0573 70.1402 25.5054C70.4155 25.952 70.5532 26.4849 70.5532 27.1043V27.2412H65.694C65.726 27.6397 65.8484 27.9798 66.0613 28.2615C66.2742 28.5416 66.5319 28.7513 66.8344 28.8905C67.1385 29.0298 67.4369 29.0994 67.7298 29.0994C67.9907 29.0994 68.254 29.0474 68.5197 28.9433C68.7854 28.8393 69.0199 28.6969 69.2231 28.516C69.428 28.3335 69.5728 28.1319 69.6577 27.911H70.4043C70.2539 28.3239 70.0338 28.6736 69.7441 28.9601C69.456 29.245 69.1327 29.4563 68.7742 29.5939C68.4173 29.73 68.0563 29.798 67.6914 29.798C67.2129 29.7788 66.7647 29.6516 66.347 29.4163C65.9309 29.1794 65.5964 28.8481 65.3435 28.4224C65.0922 27.9966 64.9666 27.5077 64.9666 26.9555ZM69.8449 26.593C69.7841 26.2825 69.6561 25.9952 69.4608 25.7311C69.2671 25.467 69.0223 25.2565 68.7262 25.0997C68.4317 24.9412 68.1124 24.862 67.7683 24.862C67.3073 24.862 66.924 24.9717 66.6183 25.1909C66.3126 25.4086 66.0877 25.6527 65.9437 25.9232C65.7996 26.192 65.7164 26.4153 65.694 26.593H69.8449Z" fill="#272727"/>
<path d="M56.5235 26.7395C56.5667 26.2385 56.7236 25.7944 56.9941 25.4071C57.2662 25.0197 57.6055 24.7196 58.012 24.5068C58.4185 24.2923 58.8371 24.1779 59.2676 24.1635C59.7221 24.1635 60.1463 24.2507 60.54 24.4251C60.9337 24.5996 61.2538 24.8733 61.5003 25.2462V22.4037H62.2278V29.6804H61.5387V28.6577C61.2827 29.0402 60.9754 29.3259 60.6168 29.5148C60.2599 29.7036 59.823 29.7981 59.306 29.7981C58.8643 29.7789 58.4265 29.6492 57.9928 29.4091C57.5591 29.1675 57.2037 28.8338 56.9268 28.408C56.6516 27.9823 56.5139 27.5021 56.5139 26.9676C56.5139 26.8683 56.5171 26.7923 56.5235 26.7395ZM57.2702 26.6819C57.2574 26.7475 57.251 26.8459 57.251 26.9772C57.251 27.3325 57.3438 27.6726 57.5294 27.9975C57.7151 28.3224 57.9688 28.5857 58.2905 28.7873C58.6138 28.989 58.9723 29.093 59.366 29.0994C59.7213 29.0994 60.0663 29.0106 60.4008 28.833C60.7369 28.6553 61.0106 28.3992 61.2218 28.0647C61.4331 27.7286 61.5387 27.3397 61.5387 26.8979C61.5387 26.6611 61.4627 26.3834 61.3107 26.0649C61.1602 25.7448 60.9209 25.4679 60.5928 25.2342C60.2663 24.9989 59.8574 24.8813 59.366 24.8813C59.0987 24.8813 58.8179 24.9413 58.5234 25.0613C58.2305 25.1798 57.9664 25.375 57.7311 25.6471C57.4974 25.9176 57.3438 26.2625 57.2702 26.6819Z" fill="#272727"/>
<path d="M41.3821 24.3003H42.0711V25.0301C42.1991 24.7613 42.3928 24.5532 42.6521 24.4059C42.9114 24.2571 43.1963 24.1827 43.5068 24.1827C43.8829 24.1827 44.2414 24.2731 44.5823 24.454C44.9232 24.6348 45.1937 24.8853 45.3938 25.2054C45.5858 24.8773 45.8363 24.6284 46.1452 24.4588C46.4541 24.2891 46.7774 24.2043 47.1151 24.2043C47.4016 24.2043 47.6801 24.2563 47.9506 24.3603C48.2227 24.4628 48.4644 24.6076 48.6756 24.7949C48.8869 24.9821 49.055 25.207 49.1798 25.4695C49.3046 25.732 49.3671 26.0145 49.3671 26.317V29.6804H48.6588V26.4346C48.6588 26.1097 48.5876 25.8312 48.4452 25.5991C48.3043 25.3671 48.1179 25.1926 47.8858 25.0758C47.6537 24.9589 47.4032 24.9005 47.1343 24.9005C46.8927 24.9005 46.6662 24.9533 46.4549 25.059C46.2436 25.163 46.0748 25.3182 45.9484 25.5247C45.8219 25.7312 45.7587 25.9761 45.7587 26.2593V29.6804H45.0096V26.377C45.0096 26.0761 44.9368 25.8136 44.7912 25.5895C44.6471 25.3655 44.4575 25.195 44.2222 25.0782C43.9869 24.9597 43.7348 24.9005 43.466 24.9005C43.2211 24.9005 42.9954 24.9549 42.7889 25.0638C42.5825 25.171 42.4176 25.3342 42.2944 25.5535C42.1711 25.7728 42.1095 26.0409 42.1095 26.3578V29.6804H41.3821V24.3003Z" fill="#272727"/>
<path d="M33.7183 27.5077V24.3003H34.4457V27.3997C34.4457 27.9374 34.6041 28.36 34.921 28.6673C35.238 28.973 35.6173 29.1306 36.059 29.1402C36.3551 29.1322 36.6296 29.057 36.8825 28.9145C37.137 28.7705 37.3418 28.556 37.4971 28.2711C37.6523 27.9863 37.73 27.6429 37.73 27.2412V24.3003H38.4574V29.6804H37.79V28.8353C37.6299 29.149 37.3906 29.3915 37.0721 29.5628C36.7536 29.7324 36.4031 29.8172 36.0206 29.8172C35.6317 29.8172 35.2604 29.7284 34.9066 29.5508C34.5529 29.3731 34.2664 29.109 34.0472 28.7585C33.8279 28.408 33.7183 27.9911 33.7183 27.5077Z" fill="#272727"/>
<path d="M29.0784 29.6804V24.281H29.7578V25.0877C30.0571 24.4715 30.5813 24.1634 31.3303 24.1634V24.9004C31.1606 24.9004 30.9846 24.9364 30.8021 25.0085C30.6197 25.0805 30.4516 25.1829 30.298 25.3158C30.1459 25.4486 30.0243 25.6039 29.933 25.7815C29.8418 25.9592 29.7962 26.1512 29.7962 26.3577V29.6804H29.0784Z" fill="#272727"/>
<path d="M24.6647 29.6804V24.9605H23.5339V24.3003H24.6647V22.4037H25.3921V24.3003H26.6405V24.9605H25.3921V29.6804H24.6647Z" fill="#272727"/>
<path d="M16.3521 29.6804V24.3003H17.0411V25.107C17.2187 24.8109 17.4612 24.5828 17.7685 24.4228C18.0758 24.2627 18.4031 24.1827 18.7504 24.1827C19.0529 24.1827 19.345 24.2371 19.6267 24.3459C19.9084 24.4548 20.1605 24.6132 20.3829 24.8213C20.6054 25.0293 20.7823 25.2886 20.9135 25.5991C21.0464 25.9096 21.1128 26.2569 21.1128 26.6411V29.6804H20.4046V26.6411C20.4046 26.2697 20.3245 25.9528 20.1645 25.6904C20.006 25.4263 19.7972 25.2286 19.5379 25.0974C19.2802 24.9661 19.0049 24.9005 18.712 24.9005C18.4255 24.9005 18.1582 24.9637 17.9102 25.0902C17.6621 25.215 17.4612 25.4031 17.3076 25.6543C17.1555 25.904 17.0795 26.2033 17.0795 26.5522V29.6804H16.3521Z" fill="#272727"/>
<path d="M8.06812 26.9555C8.07932 26.525 8.16335 26.1376 8.3202 25.7935C8.47865 25.4494 8.69152 25.1565 8.9588 24.9148C9.22609 24.6716 9.52218 24.4867 9.84709 24.3603C10.1736 24.2338 10.5081 24.1682 10.8506 24.1634C11.31 24.1634 11.7549 24.2754 12.1854 24.4995C12.616 24.722 12.9681 25.0573 13.2418 25.5054C13.5171 25.952 13.6547 26.4849 13.6547 27.1043V27.2412H8.79555C8.82756 27.6397 8.95 27.9798 9.16287 28.2615C9.37574 28.5416 9.63342 28.7513 9.93592 28.8905C10.24 29.0298 10.5385 29.0994 10.8314 29.0994C11.0923 29.0994 11.3556 29.0474 11.6213 28.9433C11.8869 28.8393 12.1214 28.6969 12.3247 28.516C12.5296 28.3335 12.6744 28.1319 12.7592 27.911H13.5059C13.3554 28.3239 13.1353 28.6736 12.8457 28.9601C12.5576 29.245 12.2343 29.4563 11.8757 29.5939C11.5188 29.73 11.1579 29.798 10.793 29.798C10.3144 29.7788 9.86629 29.6516 9.44856 29.4163C9.03243 29.1794 8.69792 28.8481 8.44504 28.4224C8.19376 27.9966 8.06812 27.5077 8.06812 26.9555ZM12.9465 26.593C12.8857 26.2825 12.7576 25.9952 12.5624 25.7311C12.3687 25.467 12.1238 25.2565 11.8277 25.0997C11.5332 24.9412 11.2139 24.862 10.8698 24.862C10.4089 24.862 10.0255 24.9717 9.71985 25.1909C9.41415 25.4086 9.18928 25.6527 9.04523 25.9232C8.90118 26.192 8.81796 26.4153 8.79555 26.593H12.9465Z" fill="#272727"/>
<path d="M0.0192062 26.9771C0.0240077 26.5514 0.104834 26.1656 0.261684 25.8199C0.420135 25.4742 0.632204 25.1805 0.897889 24.9388C1.16518 24.6972 1.46127 24.5115 1.78618 24.3819C2.11268 24.2506 2.44479 24.1778 2.7825 24.1634C3.39709 24.1634 3.95888 24.3082 4.46784 24.5979C4.9768 24.886 5.34892 25.3246 5.5842 25.9136H4.75833C4.56147 25.5806 4.29498 25.3254 3.95888 25.1477C3.62277 24.9701 3.23064 24.8812 2.7825 24.8812C2.37597 24.9068 2.01905 25.0189 1.71175 25.2173C1.40605 25.4142 1.17078 25.6687 1.00592 25.9808C0.841071 26.2913 0.754643 26.6234 0.746641 26.9771C0.746641 27.3596 0.83787 27.7109 1.02033 28.031C1.20439 28.3511 1.45887 28.6064 1.78377 28.7969C2.10868 28.9873 2.46799 29.0882 2.86172 29.0994C3.27626 29.0994 3.65318 29.0066 3.99249 28.8209C4.3334 28.6336 4.59588 28.396 4.77994 28.1079H5.5842C4.99841 29.2346 4.10372 29.798 2.90013 29.798C2.53842 29.798 2.1847 29.7308 1.83899 29.5963C1.49488 29.4603 1.18438 29.2658 0.907492 29.013C0.630603 28.7601 0.411332 28.4624 0.24968 28.1199C0.0880284 27.7774 0.00480155 27.4092 0 27.0155C0.00800258 27.0075 0.0128041 27.0003 0.0144046 26.9939C0.0176057 26.9859 0.0192062 26.9803 0.0192062 26.9771Z" fill="#272727"/>
<path d="M94.8401 19.8468V0.442186H96.8311V8.2271C97.3091 7.37349 98.0411 6.65859 99.027 6.0824C100.017 5.50195 101.095 5.18612 102.26 5.1349C103.711 5.1349 105.019 5.48061 106.185 6.17203C107.354 6.85919 108.272 7.74267 108.937 8.82249C109.608 9.9023 109.962 10.9992 110 12.1131C110 13.5387 109.71 14.8618 109.129 16.0824C108.553 17.3031 107.71 18.2847 106.601 19.0274C105.495 19.7657 104.198 20.1605 102.708 20.2118C101.816 20.2118 100.98 20.1008 100.199 19.8789C99.4218 19.6569 98.7325 19.3325 98.1307 18.9057C97.529 18.4747 97.0445 17.9497 96.6775 17.3308V19.8468H94.8401ZM96.6775 12.2156C96.6775 13.0265 96.7884 13.7926 97.0104 14.5139C97.2323 15.231 97.5844 15.8733 98.0667 16.4409C98.5533 17.0086 99.1786 17.4567 99.9425 17.7854C100.711 18.114 101.616 18.2847 102.657 18.2975C103.587 18.2975 104.465 18.05 105.288 17.5549C106.116 17.0598 106.78 16.3598 107.279 15.455C107.779 14.5502 108.028 13.5237 108.028 12.3756C108.028 11.6415 107.868 10.948 107.548 10.295C107.232 9.64195 106.803 9.0743 106.261 8.59201C105.724 8.10546 105.111 7.72773 104.424 7.45885C103.741 7.18569 103.037 7.04912 102.311 7.04912C101.556 7.04912 100.734 7.24971 99.8465 7.65091C98.9587 8.04784 98.2076 8.63896 97.593 9.42428C96.9826 10.2053 96.6775 11.1358 96.6775 12.2156Z" fill="#272727"/>
<path d="M76.312 12.7662C76.3248 11.6223 76.5489 10.5745 76.9842 9.62275C77.4196 8.67098 78.0022 7.86218 78.732 7.19637C79.4661 6.53055 80.2898 6.02052 81.2032 5.66627C82.1208 5.31203 83.0512 5.1349 83.9945 5.1349C86.6193 5.19892 88.4994 6.24886 89.6347 8.28472V5.49982H91.5233V19.8468H89.6347V17.1196C89.0969 18.0841 88.318 18.8332 87.298 19.3667C86.2779 19.8959 85.1234 20.1605 83.8344 20.1605C82.8528 20.1349 81.9117 19.9471 81.0111 19.5972C80.1106 19.2429 79.3039 18.7414 78.5911 18.0927C77.8827 17.4439 77.3257 16.665 76.9202 15.7559C76.5147 14.8468 76.312 13.8502 76.312 12.7662ZM78.3031 12.318C78.3031 13.496 78.5613 14.5395 79.0777 15.4486C79.5984 16.3535 80.2834 17.0491 81.1328 17.5357C81.9821 18.0223 82.8827 18.2762 83.8344 18.2975C84.9313 18.2975 85.9215 18.0351 86.805 17.5101C87.6885 16.9809 88.3799 16.2894 88.8793 15.4358C89.3829 14.5779 89.6347 13.6881 89.6347 12.7662C89.6347 11.7504 89.3914 10.8135 88.9049 9.95566C88.4183 9.09778 87.7482 8.41276 86.8946 7.90059C86.0453 7.38416 85.1127 7.10034 84.0969 7.04912C82.9915 7.04912 81.9949 7.32441 81.1072 7.87499C80.2194 8.42556 79.5301 9.11485 79.0393 9.94285C78.5485 10.7709 78.3031 11.5626 78.3031 12.318Z" fill="#272727"/>
<path d="M71.6646 19.8468V0.442186H73.6044V19.8468H71.6646Z" fill="#272727"/>
<path d="M53.1365 12.7662C53.1493 11.6223 53.3734 10.5745 53.8087 9.62275C54.244 8.67098 54.8266 7.86218 55.5565 7.19637C56.2906 6.53055 57.1143 6.02052 58.0277 5.66627C58.9453 5.31203 59.8757 5.1349 60.8189 5.1349C63.4438 5.19892 65.3239 6.24886 66.4592 8.28472V5.49982H68.3478V19.8468H66.4592V17.1196C65.9214 18.0841 65.1425 18.8332 64.1224 19.3667C63.1024 19.8959 61.9478 20.1605 60.6589 20.1605C59.6772 20.1349 58.7361 19.9471 57.8356 19.5972C56.935 19.2429 56.1284 18.7414 55.4156 18.0927C54.7071 17.4439 54.1501 16.665 53.7447 15.7559C53.3392 14.8468 53.1365 13.8502 53.1365 12.7662ZM55.1275 12.318C55.1275 13.496 55.3857 14.5395 55.9022 15.4486C56.4229 16.3535 57.1079 17.0491 57.9572 17.5357C58.8066 18.0223 59.7071 18.2762 60.6589 18.2975C61.7558 18.2975 62.746 18.0351 63.6295 17.5101C64.5129 16.9809 65.2044 16.2894 65.7037 15.4358C66.2074 14.5779 66.4592 13.6881 66.4592 12.7662C66.4592 11.7504 66.2159 10.8135 65.7293 9.95566C65.2428 9.09778 64.5727 8.41276 63.7191 7.90059C62.8697 7.38416 61.9372 7.10034 60.9214 7.04912C59.816 7.04912 58.8194 7.32441 57.9316 7.87499C57.0439 8.42556 56.3546 9.11485 55.8638 9.94285C55.3729 10.7709 55.1275 11.5626 55.1275 12.318Z" fill="#272727"/>
<path d="M35.8386 19.8468V0.442186H37.8297V8.2271C38.3077 7.37349 39.0397 6.65859 40.0256 6.0824C41.0158 5.50195 42.0934 5.18612 43.2586 5.1349C44.7097 5.1349 46.0179 5.48061 47.1831 6.17203C48.3525 6.85919 49.2701 7.74267 49.936 8.82249C50.606 9.9023 50.9603 10.9992 50.9987 12.1131C50.9987 13.5387 50.7085 14.8618 50.128 16.0824C49.5518 17.3031 48.7089 18.2847 47.5992 19.0274C46.4938 19.7657 45.1963 20.1605 43.7068 20.2118C42.8147 20.2118 41.9782 20.1008 41.1971 19.8789C40.4204 19.6569 39.7311 19.3325 39.1293 18.9057C38.5275 18.4747 38.0431 17.9497 37.676 17.3308V19.8468H35.8386ZM37.676 12.2156C37.676 13.0265 37.787 13.7926 38.0089 14.5139C38.2309 15.231 38.583 15.8733 39.0653 16.4409C39.5518 17.0086 40.1771 17.4567 40.9411 17.7854C41.7093 18.114 42.6141 18.2847 43.6555 18.2975C44.586 18.2975 45.4631 18.05 46.2868 17.5549C47.1148 17.0598 47.7785 16.3598 48.2778 15.455C48.7772 14.5502 49.0269 13.5237 49.0269 12.3756C49.0269 11.6415 48.8668 10.948 48.5467 10.295C48.2309 9.64195 47.8019 9.0743 47.2599 8.59201C46.7221 8.10546 46.1097 7.72773 45.4225 7.45885C44.7396 7.18569 44.0354 7.04912 43.3098 7.04912C42.5544 7.04912 41.7328 7.24971 40.845 7.65091C39.9573 8.04784 39.2061 8.63896 38.5915 9.42428C37.9812 10.2053 37.676 11.1358 37.676 12.2156Z" fill="#272727"/>
<path d="M17.3105 12.7662C17.3234 11.6223 17.5474 10.5745 17.9828 9.62275C18.4181 8.67098 19.0007 7.86218 19.7305 7.19637C20.4646 6.53055 21.2884 6.02052 22.2017 5.66627C23.1194 5.31203 24.0498 5.1349 24.993 5.1349C27.6179 5.19892 29.4979 6.24886 30.6332 8.28472V5.49982H32.5218V19.8468H30.6332V17.1196C30.0955 18.0841 29.3165 18.8332 28.2965 19.3667C27.2764 19.8959 26.1219 20.1605 24.833 20.1605C23.8513 20.1349 22.9102 19.9471 22.0097 19.5972C21.1091 19.2429 20.3024 18.7414 19.5897 18.0927C18.8812 17.4439 18.3242 16.665 17.9187 15.7559C17.5133 14.8468 17.3105 13.8502 17.3105 12.7662ZM19.3016 12.318C19.3016 13.496 19.5598 14.5395 20.0762 15.4486C20.5969 16.3535 21.282 17.0491 22.1313 17.5357C22.9806 18.0223 23.8812 18.2762 24.833 18.2975C25.9299 18.2975 26.92 18.0351 27.8035 17.5101C28.687 16.9809 29.3784 16.2894 29.8778 15.4358C30.3814 14.5779 30.6332 13.6881 30.6332 12.7662C30.6332 11.7504 30.39 10.8135 29.9034 9.95566C29.4168 9.09778 28.7468 8.41276 27.8932 7.90059C27.0438 7.38416 26.1112 7.10034 25.0955 7.04912C23.99 7.04912 22.9934 7.32441 22.1057 7.87499C21.2179 8.42556 20.5287 9.11485 20.0378 9.94285C19.547 10.7709 19.3016 11.5626 19.3016 12.318Z" fill="#272727"/>
<path d="M0.012207 19.8468V0.442186H2.00325V8.2271C2.48127 7.37349 3.21324 6.65859 4.19916 6.0824C5.18934 5.50195 6.26702 5.18612 7.4322 5.1349C8.88333 5.1349 10.1915 5.48061 11.3567 6.17203C12.5261 6.85919 13.4437 7.74267 14.1095 8.82249C14.7796 9.9023 15.1339 10.9992 15.1723 12.1131C15.1723 13.5387 14.8821 14.8618 14.3016 16.0824C13.7254 17.3031 12.8825 18.2847 11.7728 19.0274C10.6674 19.7657 9.36989 20.1605 7.88034 20.2118C6.98832 20.2118 6.15178 20.1008 5.37073 19.8789C4.59395 19.6569 3.90466 19.3325 3.30287 18.9057C2.70107 18.4747 2.21665 17.9497 1.8496 17.3308V19.8468H0.012207ZM1.8496 12.2156C1.8496 13.0265 1.96057 13.7926 2.18251 14.5139C2.40444 15.231 2.75656 15.8733 3.23885 16.4409C3.7254 17.0086 4.35067 17.4567 5.11465 17.7854C5.8829 18.114 6.78772 18.2847 7.82912 18.2975C8.75956 18.2975 9.63664 18.05 10.4604 17.5549C11.2884 17.0598 11.9521 16.3598 12.4514 15.455C12.9508 14.5502 13.2005 13.5237 13.2005 12.3756C13.2005 11.6415 13.0404 10.948 12.7203 10.295C12.4045 9.64195 11.9755 9.0743 11.4335 8.59201C10.8957 8.10546 10.2832 7.72773 9.59609 7.45885C8.91321 7.18569 8.20898 7.04912 7.48341 7.04912C6.72797 7.04912 5.90637 7.24971 5.01862 7.65091C4.13087 8.04784 3.37969 8.63896 2.76509 9.42428C2.15476 10.2053 1.8496 11.1358 1.8496 12.2156Z" fill="#272727"/>
</svg>
