<svg width="51" height="62" viewBox="0 0 51 62" fill="none" xmlns="http://www.w3.org/2000/svg">
<g filter="url(#filter0_d_8_2279)">
<path fill-rule="evenodd" clip-rule="evenodd" d="M25.5 52C26.5335 52 45 32.2695 45 21.5C45 10.7304 36.2694 2 25.5 2C14.7304 2 6 10.7304 6 21.5C6 32.2695 24.4665 52 25.5 52ZM25.5 31.2532C30.9601 31.2532 35.3865 26.8268 35.3865 21.3666C35.3865 15.9065 30.9601 11.4801 25.5 11.4801C20.0398 11.4801 15.6135 15.9065 15.6135 21.3666C15.6135 26.8268 20.0398 31.2532 25.5 31.2532Z" fill="#0B5CD5"/>
<path fill-rule="evenodd" clip-rule="evenodd" d="M6 21.5C6 32.2695 24.4665 52 25.5 52V31.2532C20.0398 31.253 15.6135 26.8268 15.6135 21.3666C15.6135 15.9065 20.0398 11.4801 25.5 11.4801V2C14.7304 2 6 10.7304 6 21.5Z" fill="#0B5CD5"/>
</g>
<defs>
<filter id="filter0_d_8_2279" x="0" y="0" width="51" height="62" filterUnits="userSpaceOnUse" color-interpolation-filters="sRGB">
<feFlood flood-opacity="0" result="BackgroundImageFix"/>
<feColorMatrix in="SourceAlpha" type="matrix" values="0 0 0 0 0 0 0 0 0 0 0 0 0 0 0 0 0 0 127 0" result="hardAlpha"/>
<feOffset dy="4"/>
<feGaussianBlur stdDeviation="3"/>
<feComposite in2="hardAlpha" operator="out"/>
<feColorMatrix type="matrix" values="0 0 0 0 0 0 0 0 0 0 0 0 0 0 0 0 0 0 0.25 0"/>
<feBlend mode="normal" in2="BackgroundImageFix" result="effect1_dropShadow_8_2279"/>
<feBlend mode="normal" in="SourceGraphic" in2="effect1_dropShadow_8_2279" result="shape"/>
</filter>
</defs>
</svg>
