<svg width="16" height="17" viewBox="0 0 16 17" fill="none" xmlns="http://www.w3.org/2000/svg">
<path d="M5.77977 7.78075C6.29842 8.84109 7.15792 9.69668 8.2206 10.2105C8.29835 10.2473 8.38436 10.2633 8.47015 10.2568C8.55595 10.2503 8.63857 10.2216 8.7099 10.1735L10.2746 9.13008C10.3438 9.08393 10.4235 9.05578 10.5063 9.04817C10.5891 9.04056 10.6725 9.05374 10.749 9.0865L13.6763 10.3411C13.7757 10.3833 13.8588 10.4567 13.9128 10.5502C13.9669 10.6438 13.9892 10.7523 13.9762 10.8596C13.8837 11.5836 13.5304 12.2491 12.9826 12.7314C12.4347 13.2137 11.7299 13.4798 11 13.4798C8.74566 13.4798 6.58365 12.5843 4.98959 10.9902C3.39553 9.39615 2.5 7.23414 2.5 4.9798C2.50004 4.24991 2.76612 3.54506 3.24843 2.99722C3.73073 2.44939 4.39618 2.09613 5.12019 2.00361C5.22745 1.99063 5.33602 2.01286 5.42955 2.06695C5.52307 2.12104 5.59649 2.20406 5.63873 2.3035L6.89439 5.23337C6.92687 5.30915 6.9401 5.39179 6.93291 5.47392C6.92572 5.55606 6.89833 5.63514 6.85318 5.70413L5.81341 7.29287C5.76608 7.36433 5.7381 7.44686 5.73221 7.53237C5.72631 7.61788 5.7427 7.70346 5.77977 7.78075V7.78075Z" stroke="#272727" stroke-linecap="round" stroke-linejoin="round"/>
</svg>
